<svg xmlns="http://www.w3.org/2000/svg" xmlns:xlink="http://www.w3.org/1999/xlink" width="1920" zoomAndPan="magnify" viewBox="0 0 1440 449.999984" height="600" preserveAspectRatio="xMidYMid meet" version="1.0"><defs><g/></defs><g fill="#ffffff" fill-opacity="1"><g transform="translate(0.00002608, 248.95152)"><g><path d="M 160.796875 -195.015625 C 163.597656 -198.378906 165.28125 -198.726562 165.84375 -196.0625 C 166.257812 -194.382812 166.222656 -191.96875 165.734375 -188.8125 C 165.242188 -185.664062 164.789062 -183.394531 164.375 -182 C 162.6875 -176.957031 160.164062 -170.378906 156.8125 -162.265625 C 153.457031 -154.148438 149.609375 -145.160156 145.265625 -135.296875 C 140.929688 -125.429688 136.382812 -115.25 131.625 -104.75 C 126.863281 -94.25 122.207031 -84.101562 117.65625 -74.3125 C 113.113281 -64.519531 108.953125 -55.664062 105.171875 -47.75 C 101.390625 -39.84375 98.3125 -33.515625 95.9375 -28.765625 L 95.296875 -27.703125 C 94.742188 -26.722656 94.253906 -25.78125 93.828125 -24.875 C 93.410156 -23.96875 92.851562 -22.882812 92.15625 -21.625 L 89 -15.328125 L 91.109375 -16.15625 C 100.765625 -19.101562 110.5625 -21.972656 120.5 -24.765625 C 130.4375 -27.566406 140.582031 -29.738281 150.9375 -31.28125 C 152.894531 -31.5625 154.257812 -32.296875 155.03125 -33.484375 C 155.800781 -34.671875 156.460938 -35.960938 157.015625 -37.359375 C 157.160156 -37.640625 157.265625 -37.953125 157.328125 -38.296875 C 157.398438 -38.648438 157.507812 -38.96875 157.65625 -39.25 C 165.488281 -56.320312 173.359375 -71.609375 181.265625 -85.109375 C 189.171875 -98.617188 197.535156 -110.972656 206.359375 -122.171875 C 206.773438 -122.585938 207.332031 -123.425781 208.03125 -124.6875 C 209.007812 -125.945312 210.054688 -127.242188 211.171875 -128.578125 C 212.296875 -129.910156 213.421875 -130.578125 214.546875 -130.578125 C 215.242188 -130.578125 215.867188 -130.363281 216.421875 -129.9375 C 217.410156 -129.101562 217.972656 -128.332031 218.109375 -127.625 C 218.390625 -126.507812 218.144531 -125.390625 217.375 -124.265625 C 216.601562 -123.148438 215.726562 -122.101562 214.75 -121.125 C 214.332031 -120.5625 213.910156 -120.035156 213.484375 -119.546875 C 213.066406 -119.054688 212.71875 -118.601562 212.4375 -118.1875 L 208.453125 -111.671875 C 201.878906 -100.753906 195.335938 -89.660156 188.828125 -78.390625 C 182.316406 -67.128906 176.332031 -55.625 170.875 -43.875 C 170.59375 -43.457031 170.242188 -42.894531 169.828125 -42.1875 C 169.265625 -41.207031 168.773438 -40.15625 168.359375 -39.03125 C 167.941406 -37.914062 168.007812 -36.453125 168.5625 -34.640625 L 170.03125 -34.640625 C 170.3125 -34.773438 171.429688 -34.878906 173.390625 -34.953125 C 175.347656 -35.023438 177.550781 -35.128906 180 -35.265625 C 182.457031 -35.410156 184.769531 -35.515625 186.9375 -35.578125 C 189.101562 -35.648438 190.609375 -35.6875 191.453125 -35.6875 C 192.148438 -35.6875 192.882812 -35.71875 193.65625 -35.78125 C 194.425781 -35.851562 195.160156 -35.890625 195.859375 -35.890625 C 196.835938 -35.890625 197.816406 -35.890625 198.796875 -35.890625 C 199.773438 -35.890625 200.753906 -35.890625 201.734375 -35.890625 C 203.410156 -35.890625 204.878906 -35.890625 206.140625 -35.890625 L 207.40625 -35.6875 C 208.382812 -35.6875 209.394531 -35.648438 210.4375 -35.578125 C 211.488281 -35.515625 212.367188 -35.269531 213.078125 -34.84375 C 213.773438 -34.5625 214.125 -34.28125 214.125 -34 C 214.125 -33.445312 213.632812 -32.890625 212.65625 -32.328125 C 211.675781 -31.765625 210.832031 -31.414062 210.125 -31.28125 C 208.445312 -31 206.734375 -30.785156 204.984375 -30.640625 C 203.234375 -30.503906 201.519531 -30.4375 199.84375 -30.4375 L 195.015625 -30.4375 C 193.753906 -30.4375 192.566406 -30.4375 191.453125 -30.4375 C 188.234375 -30.300781 184.90625 -30.125 181.46875 -29.90625 C 178.039062 -29.695312 174.648438 -29.382812 171.296875 -28.96875 C 165.972656 -28.125 162.265625 -25.460938 160.171875 -20.984375 C 155.972656 -11.472656 152.085938 -1.785156 148.515625 8.078125 C 144.953125 17.941406 141.488281 27.703125 138.125 37.359375 C 135.882812 43.796875 133.570312 50.300781 131.1875 56.875 C 128.8125 63.457031 126.367188 69.96875 123.859375 76.40625 C 123.296875 77.8125 122.664062 79.175781 121.96875 80.5 C 121.269531 81.832031 120.21875 82.847656 118.8125 83.546875 C 118.394531 83.691406 118.046875 83.765625 117.765625 83.765625 C 117.484375 83.484375 117.269531 82.640625 117.125 81.234375 C 116.988281 79.835938 117.410156 76.972656 118.390625 72.640625 L 118.609375 71.796875 C 119.585938 67.316406 120.671875 62.867188 121.859375 58.453125 C 123.046875 54.046875 124.269531 49.675781 125.53125 45.34375 L 128.046875 36.953125 C 129.867188 31.210938 131.863281 25.4375 134.03125 19.625 C 136.195312 13.820312 138.398438 8.050781 140.640625 2.3125 L 144.84375 -8.609375 C 145.257812 -9.867188 145.75 -11.195312 146.3125 -12.59375 C 146.875 -13.988281 147.363281 -15.390625 147.78125 -16.796875 C 147.925781 -17.078125 148.140625 -17.632812 148.421875 -18.46875 C 148.554688 -19.3125 148.832031 -20.429688 149.25 -21.828125 C 149.675781 -23.234375 150.023438 -24.003906 150.296875 -24.140625 L 149.46875 -25.828125 C 137.988281 -23.859375 127.28125 -21.441406 117.34375 -18.578125 C 107.40625 -15.710938 98.3125 -12.804688 90.0625 -9.859375 C 86.28125 -8.609375 83.335938 -6.234375 81.234375 -2.734375 C 79.554688 0.203125 77.878906 3.101562 76.203125 5.96875 C 74.523438 8.84375 72.84375 11.75 71.15625 14.6875 C 67.382812 20.851562 63.644531 27.15625 59.9375 33.59375 C 56.226562 40.03125 52.625 46.46875 49.125 52.90625 C 47.71875 55.414062 46.59375 58.035156 45.75 60.765625 C 44.914062 63.492188 44.148438 66.191406 43.453125 68.859375 C 43.035156 70.390625 42.613281 71.851562 42.1875 73.25 C 41.769531 74.65625 41.28125 76.128906 40.71875 77.671875 C 39.738281 80.609375 38.484375 83.054688 36.953125 85.015625 L 36.3125 86.0625 C 35.613281 87.039062 34.804688 88.019531 33.890625 89 C 32.984375 89.976562 31.972656 90.46875 30.859375 90.46875 C 29.734375 90.46875 28.613281 90.050781 27.5 89.21875 C 25.394531 87.957031 24.378906 86.59375 24.453125 85.125 C 24.523438 83.65625 24.984375 81.941406 25.828125 79.984375 L 26.234375 78.9375 C 29.597656 69.832031 33.171875 61.363281 36.953125 53.53125 C 39.890625 47.65625 40.097656 42.546875 37.578125 38.203125 C 35.191406 33.867188 30.222656 30.582031 22.671875 28.34375 C 22.109375 28.0625 21.476562 27.882812 20.78125 27.8125 C 20.082031 27.738281 19.453125 27.703125 18.890625 27.703125 C 17.066406 27.566406 15.5625 27.285156 14.375 26.859375 C 13.1875 26.441406 12.3125 25.328125 11.75 23.515625 C 11.050781 21.410156 11.226562 19.9375 12.28125 19.09375 C 13.332031 18.257812 14.625 17.492188 16.15625 16.796875 C 16.582031 16.648438 17.003906 16.472656 17.421875 16.265625 C 17.835938 16.054688 18.257812 15.882812 18.6875 15.75 C 26.382812 11.125 34.1875 7.0625 42.09375 3.5625 C 50 0.0703125 57.519531 -3.070312 64.65625 -5.875 C 66.613281 -6.71875 68.5 -7.660156 70.3125 -8.703125 C 72.132812 -9.753906 73.609375 -11.257812 74.734375 -13.21875 L 79.140625 -21.203125 C 80.960938 -24.554688 83.484375 -29.554688 86.703125 -36.203125 C 89.921875 -42.859375 93.488281 -50.453125 97.40625 -58.984375 C 101.320312 -67.523438 105.378906 -76.410156 109.578125 -85.640625 C 113.773438 -94.878906 117.796875 -103.765625 121.640625 -112.296875 C 125.492188 -120.835938 128.992188 -128.46875 132.140625 -135.1875 C 135.296875 -141.90625 137.710938 -147.015625 139.390625 -150.515625 C 141.910156 -155.554688 144.320312 -160.628906 146.625 -165.734375 C 148.9375 -170.835938 151.28125 -175.976562 153.65625 -181.15625 C 154.78125 -183.394531 155.863281 -185.773438 156.90625 -188.296875 C 157.957031 -190.816406 159.253906 -193.054688 160.796875 -195.015625 Z M 65.5 2.734375 L 63.390625 3.15625 C 55.835938 4.832031 48.703125 7.207031 41.984375 10.28125 C 35.265625 13.363281 27.914062 17.210938 19.9375 21.828125 L 18.265625 22.671875 L 20.359375 23.296875 C 25.398438 24.554688 29.703125 26.410156 33.265625 28.859375 C 36.835938 31.304688 40.164062 34.84375 43.25 39.46875 L 44.078125 40.71875 Z M 65.5 2.734375 "/></g></g></g><g fill="#ffffff" fill-opacity="1"><g transform="translate(220.420884, 248.95152)"><g><path d="M 55 -69.484375 C 53.320312 -69.347656 51.851562 -69.769531 50.59375 -70.75 C 49.332031 -71.726562 48.492188 -73.054688 48.078125 -74.734375 C 47.367188 -76.691406 47.503906 -78.226562 48.484375 -79.34375 C 49.472656 -80.46875 50.734375 -81.097656 52.265625 -81.234375 C 53.804688 -81.515625 55.3125 -81.203125 56.78125 -80.296875 C 58.25 -79.390625 59.265625 -78.09375 59.828125 -76.40625 C 60.523438 -74.445312 60.347656 -72.835938 59.296875 -71.578125 C 58.253906 -70.316406 56.820312 -69.617188 55 -69.484375 Z M 39.46875 -71.375 C 38.0625 -71.375 36.796875 -71.863281 35.671875 -72.84375 C 34.554688 -73.820312 33.863281 -75.007812 33.59375 -76.40625 C 33.3125 -78.363281 33.726562 -79.832031 34.84375 -80.8125 C 35.96875 -81.800781 37.4375 -82.363281 39.25 -82.5 C 40.507812 -82.5 41.554688 -82.078125 42.390625 -81.234375 C 43.234375 -80.398438 43.867188 -79.421875 44.296875 -78.296875 C 44.296875 -76.484375 43.976562 -74.910156 43.34375 -73.578125 C 42.71875 -72.242188 41.425781 -71.507812 39.46875 -71.375 Z M 118.390625 -33.171875 C 118.953125 -32.742188 119.234375 -32.320312 119.234375 -31.90625 C 119.378906 -31.488281 118.957031 -30.789062 117.96875 -29.8125 C 111.53125 -23.507812 104.425781 -17.488281 96.65625 -11.75 C 88.894531 -6.019531 79.835938 -1.753906 69.484375 1.046875 C 67.109375 1.742188 64.800781 2.09375 62.5625 2.09375 C 58.5 2.09375 55.066406 0.835938 52.265625 -1.671875 C 48.210938 -5.171875 45.695312 -11.191406 44.71875 -19.734375 L 44.5 -21.203125 L 38.421875 -16.15625 C 36.460938 -14.476562 34.5 -12.800781 32.53125 -11.125 C 30.570312 -9.445312 28.613281 -7.835938 26.65625 -6.296875 C 21.625 -2.234375 16.164062 0.703125 10.28125 2.515625 C 8.46875 3.078125 6.929688 3.359375 5.671875 3.359375 C 3.148438 3.359375 0.910156 2.519531 -1.046875 0.84375 C -4.546875 -2.09375 -6.085938 -5.660156 -5.671875 -9.859375 C -3.710938 -27.078125 3.914062 -44.15625 17.21875 -61.09375 C 18.195312 -62.488281 19.242188 -63.1875 20.359375 -63.1875 C 21.203125 -63.1875 22.039062 -62.835938 22.875 -62.140625 C 23.851562 -61.296875 24.273438 -60.453125 24.140625 -59.609375 C 24.003906 -58.773438 23.65625 -57.796875 23.09375 -56.671875 C 22.113281 -54.578125 21.023438 -52.441406 19.828125 -50.265625 C 18.640625 -48.097656 17.414062 -45.894531 16.15625 -43.65625 C 13.082031 -38.0625 10.144531 -32.359375 7.34375 -26.546875 C 4.550781 -20.742188 2.875 -14.484375 2.3125 -7.765625 C 2.3125 -7.203125 2.34375 -6.570312 2.40625 -5.875 C 2.476562 -5.175781 2.796875 -4.546875 3.359375 -3.984375 C 4.054688 -3.285156 4.828125 -2.867188 5.671875 -2.734375 C 6.085938 -2.734375 6.503906 -2.734375 6.921875 -2.734375 C 8.460938 -2.734375 9.96875 -3.046875 11.4375 -3.671875 C 12.90625 -4.304688 14.269531 -4.972656 15.53125 -5.671875 C 32.882812 -14.628906 44.921875 -26.382812 51.640625 -40.9375 C 51.773438 -41.21875 51.910156 -41.566406 52.046875 -41.984375 C 52.191406 -42.398438 52.335938 -42.820312 52.484375 -43.25 C 52.898438 -44.507812 53.390625 -45.695312 53.953125 -46.8125 C 54.515625 -47.925781 55.351562 -48.484375 56.46875 -48.484375 C 57.3125 -48.484375 58.222656 -48.132812 59.203125 -47.4375 C 60.460938 -46.738281 61.300781 -45.972656 61.71875 -45.140625 C 62.132812 -44.148438 62.164062 -43.164062 61.8125 -42.1875 C 61.46875 -41.207031 61.015625 -40.226562 60.453125 -39.25 C 60.316406 -38.695312 60.144531 -38.207031 59.9375 -37.78125 C 59.726562 -37.363281 59.550781 -36.945312 59.40625 -36.53125 C 58.988281 -35.40625 58.566406 -34.25 58.140625 -33.0625 C 57.722656 -31.875 57.304688 -30.71875 56.890625 -29.59375 C 56.046875 -27.21875 55.238281 -24.769531 54.46875 -22.25 C 53.695312 -19.726562 53.175781 -17.140625 52.90625 -14.484375 C 52.476562 -10.421875 53.175781 -7.410156 55 -5.453125 C 56.820312 -3.640625 59.972656 -2.660156 64.453125 -2.515625 C 69.203125 -2.515625 73.394531 -3.316406 77.03125 -4.921875 C 80.675781 -6.535156 84.109375 -8.320312 87.328125 -10.28125 C 99.222656 -17.28125 108.53125 -24.488281 115.25 -31.90625 C 115.382812 -32.050781 115.59375 -32.332031 115.875 -32.75 C 116.4375 -33.445312 116.859375 -33.796875 117.140625 -33.796875 C 117.421875 -33.796875 117.835938 -33.585938 118.390625 -33.171875 Z M 118.390625 -33.171875 "/></g></g></g><g fill="#ffffff" fill-opacity="1"><g transform="translate(333.570259, 248.95152)"><g><path d="M 71.375 -37.15625 L 71.796875 -36.3125 C 71.796875 -35.757812 71.128906 -35.34375 69.796875 -35.0625 C 68.472656 -34.78125 67.390625 -34.566406 66.546875 -34.421875 C 65.703125 -34.285156 65.210938 -34.21875 65.078125 -34.21875 C 63.117188 -33.65625 61.160156 -33.128906 59.203125 -32.640625 C 57.242188 -32.148438 55.28125 -31.554688 53.3125 -30.859375 C 45.894531 -28.617188 39.53125 -26.171875 34.21875 -23.515625 C 30.15625 -21.410156 26.375 -18.957031 22.875 -16.15625 C 19.382812 -13.363281 17.144531 -9.097656 16.15625 -3.359375 C 14.195312 7.140625 7.972656 16.9375 -2.515625 26.03125 C -6.578125 29.53125 -10.707031 31.28125 -14.90625 31.28125 C -17.84375 31.28125 -20.363281 30.367188 -22.46875 28.546875 C -25.257812 26.171875 -26.65625 23.019531 -26.65625 19.09375 C -26.65625 15.175781 -25.1875 11.472656 -22.25 7.984375 C -18.613281 3.359375 -14.3125 -0.628906 -9.34375 -3.984375 C -4.375 -7.347656 0.695312 -10.359375 5.875 -13.015625 C 9.09375 -14.691406 10.84375 -16.71875 11.125 -19.09375 C 11.40625 -21.476562 10.285156 -24.5625 7.765625 -28.34375 C 6.785156 -29.601562 5.875 -30.894531 5.03125 -32.21875 C 4.195312 -33.550781 3.359375 -34.914062 2.515625 -36.3125 L 1.046875 -38.828125 C -2.171875 -44.015625 -2.171875 -48.21875 1.046875 -51.4375 C 11.828125 -62.351562 25.332031 -68.300781 41.5625 -69.28125 L 42.609375 -69.28125 C 46.253906 -69.28125 49.054688 -68.160156 51.015625 -65.921875 C 53.109375 -63.535156 53.738281 -60.316406 52.90625 -56.265625 C 51.925781 -52.066406 49.335938 -48.425781 45.140625 -45.34375 C 44.859375 -45.0625 44.472656 -44.78125 43.984375 -44.5 C 43.492188 -44.21875 42.96875 -44.078125 42.40625 -44.078125 C 41.84375 -44.078125 41.210938 -44.359375 40.515625 -44.921875 C 39.671875 -45.484375 39.316406 -46.113281 39.453125 -46.8125 C 39.597656 -47.507812 39.882812 -48.347656 40.3125 -49.328125 C 41.144531 -50.867188 41.945312 -52.375 42.71875 -53.84375 C 43.488281 -55.3125 44.296875 -56.742188 45.140625 -58.140625 C 45.554688 -58.984375 45.867188 -59.820312 46.078125 -60.65625 C 46.285156 -61.5 46.039062 -62.484375 45.34375 -63.609375 C 44.5 -64.867188 43.3125 -65.5 41.78125 -65.5 C 41.5 -65.5 41.007812 -65.425781 40.3125 -65.28125 L 39.671875 -65.28125 C 26.234375 -63.882812 15.457031 -58.78125 7.34375 -49.96875 C 4.6875 -47.019531 5.035156 -43.585938 8.390625 -39.671875 C 10.210938 -37.578125 11.894531 -35.269531 13.4375 -32.75 C 14.976562 -30.09375 16.445312 -27.890625 17.84375 -26.140625 C 19.238281 -24.390625 21.054688 -23.515625 23.296875 -23.515625 C 24.554688 -23.515625 26.097656 -23.929688 27.921875 -24.765625 C 33.234375 -27.148438 38.65625 -29.25 44.1875 -31.0625 C 49.71875 -32.882812 54.929688 -34.492188 59.828125 -35.890625 C 60.671875 -36.171875 61.960938 -36.519531 63.703125 -36.9375 C 65.453125 -37.363281 67.097656 -37.578125 68.640625 -37.578125 C 69.484375 -37.578125 70.113281 -37.503906 70.53125 -37.359375 C 70.945312 -37.222656 71.226562 -37.15625 71.375 -37.15625 Z M -9.234375 25.609375 C 1.960938 19.734375 8.816406 8.816406 11.328125 -7.140625 L 10.078125 -7.765625 C 9.929688 -7.203125 9.160156 -6.535156 7.765625 -5.765625 C 6.367188 -5.003906 5.109375 -4.34375 3.984375 -3.78125 C 2.585938 -3.082031 1.75 -2.59375 1.46875 -2.3125 C -1.882812 0.0703125 -4.894531 2.382812 -7.5625 4.625 L -9.03125 5.875 C -11.269531 7.832031 -13.613281 10.101562 -16.0625 12.6875 C -18.507812 15.28125 -19.875 18.046875 -20.15625 20.984375 C -20.289062 22.804688 -19.867188 24.28125 -18.890625 25.40625 C -17.910156 26.382812 -16.441406 26.875 -14.484375 26.875 C -13.367188 26.875 -12.351562 26.734375 -11.4375 26.453125 C -10.53125 26.171875 -9.796875 25.890625 -9.234375 25.609375 Z M -9.234375 25.609375 "/></g></g></g><g fill="#ffffff" fill-opacity="1"><g transform="translate(399.276667, 248.95152)"><g><path d="M 71.796875 -31.0625 C 72.773438 -31.625 73.894531 -31.90625 75.15625 -31.90625 C 75.289062 -31.207031 75.007812 -30.539062 74.3125 -29.90625 C 73.613281 -29.28125 72.984375 -28.6875 72.421875 -28.125 L 71.15625 -27.078125 C 66.125 -23.296875 61.019531 -19.617188 55.84375 -16.046875 C 50.664062 -12.484375 45.101562 -9.546875 39.15625 -7.234375 C 33.207031 -4.929688 26.59375 -3.78125 19.3125 -3.78125 L 18.46875 -3.78125 C 11.332031 -3.78125 5.804688 -5.945312 1.890625 -10.28125 C -1.609375 -14.34375 -2.796875 -19.242188 -1.671875 -24.984375 C 2.242188 -44.148438 14.695312 -56.535156 35.6875 -62.140625 C 36.800781 -62.421875 37.921875 -62.5625 39.046875 -62.5625 C 42.398438 -62.5625 45.128906 -61.085938 47.234375 -58.140625 C 48.910156 -55.910156 49.429688 -53.988281 48.796875 -52.375 C 48.171875 -50.769531 47.226562 -49.125 45.96875 -47.4375 C 40.375 -40.582031 31.140625 -36.175781 18.265625 -34.21875 C 13.640625 -33.519531 10.628906 -31.695312 9.234375 -28.75 C 7.835938 -25.8125 6.789062 -22.664062 6.09375 -19.3125 L 5.875 -17.84375 C 5.457031 -15.882812 5.804688 -14.066406 6.921875 -12.390625 C 8.460938 -10.285156 10.914062 -8.742188 14.28125 -7.765625 C 16.789062 -7.066406 19.445312 -6.71875 22.25 -6.71875 C 24.488281 -6.71875 26.65625 -6.925781 28.75 -7.34375 C 30.851562 -7.769531 33.097656 -8.332031 35.484375 -9.03125 C 42.898438 -11.125 50.316406 -14.691406 57.734375 -19.734375 C 60.953125 -21.828125 64.171875 -24.347656 67.390625 -27.296875 C 67.671875 -27.429688 67.945312 -27.640625 68.21875 -27.921875 C 68.5 -28.203125 68.78125 -28.484375 69.0625 -28.765625 C 69.476562 -29.179688 69.894531 -29.5625 70.3125 -29.90625 C 70.738281 -30.257812 71.234375 -30.644531 71.796875 -31.0625 Z M 20.78125 -41.78125 L 19.3125 -40.09375 L 21.625 -40.71875 C 26.519531 -41.84375 30.679688 -43.3125 34.109375 -45.125 C 37.535156 -46.945312 40.507812 -49.890625 43.03125 -53.953125 L 43.875 -55.625 L 41.984375 -55 C 37.921875 -53.738281 34.140625 -52.160156 30.640625 -50.265625 C 27.148438 -48.378906 23.863281 -45.550781 20.78125 -41.78125 Z M 20.78125 -41.78125 "/></g></g></g><g fill="#ffffff" fill-opacity="1"><g transform="translate(470.860921, 248.95152)"><g><path d="M 111.265625 -35.265625 C 111.535156 -34.984375 111.425781 -34.457031 110.9375 -33.6875 C 110.445312 -32.914062 109.992188 -32.320312 109.578125 -31.90625 C 108.179688 -30.789062 106.609375 -29.773438 104.859375 -28.859375 C 103.109375 -27.953125 101.320312 -27.078125 99.5 -26.234375 C 98.664062 -25.816406 97.828125 -25.363281 96.984375 -24.875 C 96.140625 -24.382812 95.367188 -23.929688 94.671875 -23.515625 C 91.867188 -21.972656 89.101562 -20.429688 86.375 -18.890625 C 83.65625 -17.347656 80.960938 -15.738281 78.296875 -14.0625 C 66.679688 -6.925781 56.535156 0.207031 47.859375 7.34375 C 44.785156 10 42.40625 13.078125 40.71875 16.578125 L 35.6875 27.296875 C 31.207031 36.523438 26.65625 45.894531 22.03125 55.40625 C 17.414062 64.925781 12.378906 74.164062 6.921875 83.125 C 4.679688 86.625 1.988281 90.507812 -1.15625 94.78125 C -4.300781 99.050781 -8.113281 103.003906 -12.59375 106.640625 C -13.570312 107.335938 -14.65625 108.070312 -15.84375 108.84375 C -17.039062 109.613281 -18.40625 110.140625 -19.9375 110.421875 C -21.195312 110.835938 -22.25 111.046875 -23.09375 111.046875 C -25.1875 111.046875 -27.003906 110.273438 -28.546875 108.734375 C -29.804688 107.617188 -30.503906 106.460938 -30.640625 105.265625 C -30.785156 104.078125 -30.789062 102.71875 -30.65625 101.1875 C -30.226562 97.96875 -29.421875 94.992188 -28.234375 92.265625 C -27.046875 89.535156 -25.820312 86.910156 -24.5625 84.390625 C -13.78125 63.953125 1.894531 44.148438 22.46875 24.984375 C 29.039062 18.828125 34.144531 11.828125 37.78125 3.984375 C 40.164062 -0.910156 42.613281 -5.804688 45.125 -10.703125 C 47.644531 -15.597656 50.164062 -20.5 52.6875 -25.40625 L 59.625 -39.25 L 57.734375 -38.625 C 53.109375 -36.800781 48.941406 -34.523438 45.234375 -31.796875 C 41.523438 -29.066406 37.992188 -26.234375 34.640625 -23.296875 C 33.234375 -22.035156 31.796875 -20.8125 30.328125 -19.625 C 28.859375 -18.4375 27.359375 -17.28125 25.828125 -16.15625 L 22.46875 -13.640625 C 19.664062 -11.398438 16.722656 -9.265625 13.640625 -7.234375 C 10.566406 -5.210938 7.207031 -3.570312 3.5625 -2.3125 C 2.03125 -1.882812 0.632812 -1.671875 -0.625 -1.671875 C -2.726562 -1.671875 -4.757812 -2.441406 -6.71875 -3.984375 C -9.9375 -6.367188 -11.335938 -9.660156 -10.921875 -13.859375 C -10.078125 -20.296875 -7.90625 -25.753906 -4.40625 -30.234375 C -0.90625 -34.710938 2.941406 -38.769531 7.140625 -42.40625 C 7.835938 -43.101562 8.675781 -43.453125 9.65625 -43.453125 C 10.632812 -43.453125 11.613281 -43.03125 12.59375 -42.1875 C 13.570312 -41.207031 14.023438 -40.332031 13.953125 -39.5625 C 13.890625 -38.800781 13.507812 -37.929688 12.8125 -36.953125 C 12.101562 -35.972656 11.429688 -34.988281 10.796875 -34 C 10.171875 -33.019531 9.507812 -32.039062 8.8125 -31.0625 C 7.832031 -29.664062 6.851562 -28.300781 5.875 -26.96875 C 4.894531 -25.644531 3.988281 -24.28125 3.15625 -22.875 C 2.875 -22.457031 2.554688 -22.003906 2.203125 -21.515625 C 1.847656 -21.023438 1.460938 -20.570312 1.046875 -20.15625 C 0.210938 -19.03125 -0.625 -17.835938 -1.46875 -16.578125 C -2.3125 -15.316406 -2.875 -13.921875 -3.15625 -12.390625 C -3.570312 -10.566406 -3.359375 -9.164062 -2.515625 -8.1875 C -1.535156 -7.207031 -0.0664062 -6.71875 1.890625 -6.71875 C 2.867188 -6.71875 3.914062 -6.820312 5.03125 -7.03125 C 6.15625 -7.238281 7.066406 -7.484375 7.765625 -7.765625 C 9.441406 -8.460938 10.976562 -9.265625 12.375 -10.171875 C 13.78125 -11.085938 15.179688 -12.035156 16.578125 -13.015625 C 19.796875 -15.390625 23.015625 -17.800781 26.234375 -20.25 C 29.453125 -22.707031 32.601562 -25.125 35.6875 -27.5 C 38.207031 -29.457031 40.757812 -31.453125 43.34375 -33.484375 C 45.9375 -35.515625 48.492188 -37.4375 51.015625 -39.25 C 51.429688 -39.53125 51.921875 -39.953125 52.484375 -40.515625 C 53.316406 -41.210938 54.1875 -41.875 55.09375 -42.5 C 56.007812 -43.132812 57.023438 -43.453125 58.140625 -43.453125 C 59.265625 -43.453125 60.523438 -42.894531 61.921875 -41.78125 C 63.460938 -40.375 64.09375 -38.898438 63.8125 -37.359375 C 63.53125 -35.828125 63.039062 -34.289062 62.34375 -32.75 C 61.925781 -31.90625 61.644531 -31.273438 61.5 -30.859375 C 60.945312 -29.179688 60.390625 -27.535156 59.828125 -25.921875 C 59.265625 -24.316406 58.632812 -22.742188 57.9375 -21.203125 C 56.957031 -18.546875 55.976562 -15.851562 55 -13.125 C 54.019531 -10.394531 53.109375 -7.5625 52.265625 -4.625 L 53.53125 -3.984375 C 53.664062 -4.546875 54.257812 -5.101562 55.3125 -5.65625 C 56.363281 -6.21875 57.304688 -6.640625 58.140625 -6.921875 C 59.128906 -7.484375 59.757812 -7.835938 60.03125 -7.984375 L 67.171875 -12.390625 C 74.171875 -16.867188 81.3125 -20.992188 88.59375 -24.765625 C 92.363281 -26.722656 96.070312 -28.546875 99.71875 -30.234375 C 100.132812 -30.515625 100.617188 -30.789062 101.171875 -31.0625 C 101.734375 -31.34375 102.226562 -31.625 102.65625 -31.90625 C 104.050781 -32.46875 105.378906 -33.0625 106.640625 -33.6875 C 107.898438 -34.320312 109.226562 -34.847656 110.625 -35.265625 C 110.90625 -35.265625 111.117188 -35.265625 111.265625 -35.265625 Z M -17.640625 102.234375 C -8.398438 92.710938 -0.769531 82.003906 5.25 70.109375 C 11.269531 58.210938 16.9375 46.25 22.25 34.21875 L 21.203125 32.953125 C 7.765625 44.296875 -3.921875 56.894531 -13.859375 70.75 C -16.378906 74.382812 -18.828125 78.195312 -21.203125 82.1875 C -23.578125 86.175781 -25.394531 90.617188 -26.65625 95.515625 C -26.800781 95.929688 -26.941406 96.488281 -27.078125 97.1875 C -27.492188 98.445312 -27.769531 99.773438 -27.90625 101.171875 C -28.050781 102.578125 -27.359375 103.910156 -25.828125 105.171875 C -24.835938 105.867188 -23.851562 106.21875 -22.875 106.21875 C -21.894531 106.21875 -21.054688 105.898438 -20.359375 105.265625 C -19.660156 104.640625 -19.03125 103.976562 -18.46875 103.28125 C -18.050781 102.71875 -17.773438 102.367188 -17.640625 102.234375 Z M -17.640625 102.234375 "/></g></g></g><g fill="#ffffff" fill-opacity="1"><g transform="translate(575.823193, 248.95152)"><g><path d="M 73.046875 -33.375 C 73.472656 -33.09375 73.6875 -32.460938 73.6875 -31.484375 C 73.6875 -30.503906 73.085938 -29.59375 71.890625 -28.75 C 70.703125 -27.914062 69.757812 -27.21875 69.0625 -26.65625 C 66.6875 -24.5625 64.238281 -22.535156 61.71875 -20.578125 C 59.195312 -18.617188 56.675781 -16.726562 54.15625 -14.90625 C 48.84375 -11.125 43.210938 -7.765625 37.265625 -4.828125 C 31.316406 -1.890625 24.984375 0.488281 18.265625 2.3125 C 15.460938 3.007812 12.519531 3.359375 9.4375 3.359375 C 6.363281 3.359375 3.285156 1.957031 0.203125 -0.84375 C -2.867188 -3.5 -4.578125 -6.332031 -4.921875 -9.34375 C -5.273438 -12.351562 -5.035156 -15.253906 -4.203125 -18.046875 C -1.679688 -27.566406 1.882812 -36.453125 6.5 -44.703125 C 11.125 -52.960938 16.65625 -60.59375 23.09375 -67.59375 C 23.789062 -68.570312 24.664062 -69.476562 25.71875 -70.3125 C 26.769531 -71.15625 28.203125 -70.878906 30.015625 -69.484375 C 31.972656 -67.941406 32.601562 -66.578125 31.90625 -65.390625 C 31.207031 -64.203125 30.578125 -63.117188 30.015625 -62.140625 C 25.535156 -55.003906 21.195312 -47.863281 17 -40.71875 C 12.800781 -33.582031 9.09375 -26.097656 5.875 -18.265625 C 5.3125 -16.859375 4.609375 -15.382812 3.765625 -13.84375 C 2.929688 -12.3125 2.515625 -10.738281 2.515625 -9.125 C 2.515625 -7.519531 3.285156 -5.945312 4.828125 -4.40625 C 7.347656 -1.75 10.144531 -0.628906 13.21875 -1.046875 C 16.300781 -1.460938 19.101562 -1.953125 21.625 -2.515625 C 27.082031 -3.773438 32.117188 -5.664062 36.734375 -8.1875 C 41.347656 -10.707031 45.757812 -13.503906 49.96875 -16.578125 C 50.519531 -17.003906 51.914062 -18.195312 54.15625 -20.15625 C 56.394531 -22.113281 58.84375 -24.210938 61.5 -26.453125 C 64.164062 -28.691406 66.617188 -30.507812 68.859375 -31.90625 C 71.097656 -33.300781 72.492188 -33.789062 73.046875 -33.375 Z M 39.25 -79.34375 C 36.03125 -79.070312 34.003906 -80.546875 33.171875 -83.765625 C 32.472656 -86.554688 32.75 -88.546875 34 -89.734375 C 35.257812 -90.929688 37.082031 -91.597656 39.46875 -91.734375 C 41.144531 -91.878906 42.613281 -91.53125 43.875 -90.6875 C 45.132812 -89.84375 46.046875 -88.375 46.609375 -86.28125 C 46.742188 -83.894531 46.109375 -82.210938 44.703125 -81.234375 C 43.304688 -80.253906 41.488281 -79.625 39.25 -79.34375 Z M 39.25 -79.34375 "/></g></g></g><g fill="#ffffff" fill-opacity="1"><g transform="translate(645.098303, 248.95152)"><g><path d="M 115.671875 -35.265625 C 116.503906 -34.703125 116.992188 -34.144531 117.140625 -33.59375 C 117.273438 -33.03125 117.164062 -32.503906 116.8125 -32.015625 C 116.46875 -31.523438 116.085938 -31.070312 115.671875 -30.65625 C 115.109375 -30.09375 114.757812 -29.671875 114.625 -29.390625 C 103 -11.472656 86.550781 3.5 65.28125 15.53125 C 63.039062 16.789062 60.171875 17.421875 56.671875 17.421875 L 56.265625 17.421875 C 52.765625 17.421875 50.101562 16.507812 48.28125 14.6875 C 46.320312 12.875 45.34375 10.144531 45.34375 6.5 C 45.34375 3.28125 45.972656 0.378906 47.234375 -2.203125 C 48.492188 -4.796875 49.820312 -7.28125 51.21875 -9.65625 L 53.3125 -13.015625 C 53.738281 -13.859375 54.195312 -14.695312 54.6875 -15.53125 C 55.175781 -16.375 55.628906 -17.210938 56.046875 -18.046875 L 56.265625 -18.6875 C 56.535156 -19.238281 56.773438 -19.9375 56.984375 -20.78125 C 57.203125 -21.625 56.820312 -22.535156 55.84375 -23.515625 C 54.71875 -24.628906 53.382812 -25.1875 51.84375 -25.1875 C 51.289062 -25.1875 50.664062 -25.046875 49.96875 -24.765625 C 47.164062 -24.210938 44.398438 -23.550781 41.671875 -22.78125 C 38.941406 -22.007812 36.175781 -21.203125 33.375 -20.359375 C 29.875 -19.097656 26.476562 -17.628906 23.1875 -15.953125 C 19.90625 -14.273438 16.722656 -12.523438 13.640625 -10.703125 C 12.242188 -10.003906 10.878906 -9.269531 9.546875 -8.5 C 8.222656 -7.726562 6.859375 -6.992188 5.453125 -6.296875 L 4.625 -5.875 C 4.0625 -5.457031 3.425781 -5.109375 2.71875 -4.828125 C 2.019531 -4.546875 1.320312 -4.40625 0.625 -4.40625 C -0.632812 -4.40625 -1.960938 -4.96875 -3.359375 -6.09375 C -4.898438 -7.488281 -5.671875 -8.78125 -5.671875 -9.96875 C -5.671875 -11.15625 -5.53125 -12.378906 -5.25 -13.640625 L -5.03125 -14.484375 C -2.519531 -25.960938 1.742188 -36.179688 7.765625 -45.140625 L 8.1875 -45.765625 C 8.46875 -46.328125 8.816406 -46.851562 9.234375 -47.34375 C 9.648438 -47.832031 10.140625 -48.078125 10.703125 -48.078125 C 11.117188 -48.078125 11.539062 -47.9375 11.96875 -47.65625 C 12.945312 -47.226562 13.578125 -46.664062 13.859375 -45.96875 C 14.554688 -44.570312 14.585938 -42.925781 13.953125 -41.03125 C 13.328125 -39.144531 12.664062 -37.570312 11.96875 -36.3125 C 11.539062 -35.476562 11.328125 -34.921875 11.328125 -34.640625 L 3.984375 -15.53125 C 3.847656 -15.25 3.707031 -14.789062 3.5625 -14.15625 C 3.425781 -13.53125 3.640625 -13.007812 4.203125 -12.59375 C 4.753906 -12.175781 5.453125 -11.96875 6.296875 -11.96875 C 7.140625 -11.96875 8.117188 -12.140625 9.234375 -12.484375 C 10.359375 -12.835938 11.128906 -13.15625 11.546875 -13.4375 C 12.242188 -13.71875 12.875 -14.03125 13.4375 -14.375 C 14 -14.726562 14.554688 -15.113281 15.109375 -15.53125 C 15.804688 -16.09375 16.46875 -16.582031 17.09375 -17 C 17.726562 -17.425781 18.398438 -17.773438 19.109375 -18.046875 C 21.347656 -19.171875 23.617188 -20.222656 25.921875 -21.203125 C 28.234375 -22.179688 30.578125 -23.160156 32.953125 -24.140625 C 38.691406 -26.515625 44.082031 -28.054688 49.125 -28.765625 C 49.957031 -28.898438 50.726562 -28.96875 51.4375 -28.96875 C 55.070312 -28.96875 57.9375 -27.78125 60.03125 -25.40625 C 62.414062 -22.738281 63.046875 -19.445312 61.921875 -15.53125 C 61.367188 -13.15625 60.632812 -10.847656 59.71875 -8.609375 C 58.8125 -6.367188 57.9375 -4.128906 57.09375 -1.890625 C 56.539062 -0.628906 56.019531 0.628906 55.53125 1.890625 C 55.039062 3.148438 54.515625 4.410156 53.953125 5.671875 L 53.734375 6.5 C 53.316406 7.207031 53.035156 8.050781 52.890625 9.03125 C 52.753906 10.007812 53.109375 10.914062 53.953125 11.75 C 55.066406 12.875 56.328125 13.4375 57.734375 13.4375 C 58.285156 13.4375 58.84375 13.363281 59.40625 13.21875 C 59.96875 13.082031 60.53125 12.945312 61.09375 12.8125 C 67.664062 10.84375 73.398438 7.9375 78.296875 4.09375 C 83.191406 0.25 87.601562 -3.632812 91.53125 -7.5625 C 94.75 -10.78125 98.210938 -14.378906 101.921875 -18.359375 C 105.628906 -22.347656 108.742188 -26.863281 111.265625 -31.90625 L 111.671875 -32.328125 C 111.953125 -33.023438 112.335938 -33.757812 112.828125 -34.53125 C 113.316406 -35.300781 113.914062 -35.6875 114.625 -35.6875 C 114.894531 -35.6875 115.242188 -35.546875 115.671875 -35.265625 Z M 115.671875 -35.265625 "/></g></g></g><g fill="#ffffff" fill-opacity="1"><g transform="translate(756.148419, 248.95152)"><g/></g></g><g fill="#ffffff" fill-opacity="1"><g transform="translate(819.125755, 248.95152)"><g><path d="M 214.328125 -189.140625 C 211.804688 -188.859375 209.601562 -189.453125 207.71875 -190.921875 C 205.832031 -192.390625 204.535156 -194.316406 203.828125 -196.703125 C 202.847656 -199.773438 203.09375 -202.1875 204.5625 -203.9375 C 206.03125 -205.6875 207.957031 -206.628906 210.34375 -206.765625 C 212.71875 -207.046875 214.953125 -206.519531 217.046875 -205.1875 C 219.148438 -203.863281 220.625 -201.941406 221.46875 -199.421875 C 222.582031 -196.484375 222.332031 -194.066406 220.71875 -192.171875 C 219.113281 -190.285156 216.984375 -189.273438 214.328125 -189.140625 Z M 190.8125 -191.875 C 188.71875 -191.875 186.828125 -192.609375 185.140625 -194.078125 C 183.460938 -195.546875 182.414062 -197.328125 182 -199.421875 C 181.582031 -202.359375 182.210938 -204.5625 183.890625 -206.03125 C 185.566406 -207.507812 187.804688 -208.316406 190.609375 -208.453125 C 192.429688 -208.585938 193.96875 -208.023438 195.21875 -206.765625 C 196.476562 -205.515625 197.460938 -203.976562 198.171875 -202.15625 C 198.304688 -199.5 197.847656 -197.15625 196.796875 -195.125 C 195.753906 -193.09375 193.757812 -192.007812 190.8125 -191.875 Z M 276.890625 -34 C 277.453125 -33.300781 277.519531 -32.707031 277.09375 -32.21875 C 276.675781 -31.726562 276.257812 -31.34375 275.84375 -31.0625 L 275.421875 -30.4375 C 254.566406 -11.257812 230.703125 0.351562 203.828125 4.40625 C 201.035156 4.6875 198.9375 5.523438 197.53125 6.921875 C 196.132812 8.328125 194.945312 9.9375 193.96875 11.75 C 182.488281 31.34375 170.171875 47.367188 157.015625 59.828125 C 152.679688 63.890625 147.992188 67.457031 142.953125 70.53125 C 138.617188 73.050781 134.5625 74.3125 130.78125 74.3125 C 127.425781 74.3125 124 73.257812 120.5 71.15625 C 116.15625 68.644531 113.144531 65.394531 111.46875 61.40625 C 109.789062 57.414062 108.53125 53.460938 107.6875 49.546875 C 105.726562 40.441406 104.957031 31.617188 105.375 23.078125 C 105.800781 14.546875 106.644531 6.296875 107.90625 -1.671875 C 108.175781 -3.359375 108.453125 -5.039062 108.734375 -6.71875 C 109.015625 -8.394531 109.296875 -10.070312 109.578125 -11.75 C 110.703125 -17.769531 111.578125 -23.960938 112.203125 -30.328125 C 112.828125 -36.703125 112.234375 -43.738281 110.421875 -51.4375 C 107.617188 -63.601562 107.300781 -74.65625 109.46875 -84.59375 C 111.644531 -94.53125 115.25 -103.59375 120.28125 -111.78125 C 125.320312 -119.96875 130.851562 -127.488281 136.875 -134.34375 C 151.144531 -151 167.097656 -161.285156 184.734375 -165.203125 C 188.515625 -166.046875 192.222656 -166.46875 195.859375 -166.46875 C 207.191406 -166.46875 216.914062 -162.6875 225.03125 -155.125 C 233.851562 -146.726562 238.472656 -135.742188 238.890625 -122.171875 C 239.304688 -110.554688 238.429688 -99.570312 236.265625 -89.21875 C 234.097656 -78.863281 231.265625 -68.992188 227.765625 -59.609375 C 224.265625 -50.234375 220.695312 -41.207031 217.0625 -32.53125 C 215.519531 -29.175781 213.941406 -25.785156 212.328125 -22.359375 C 210.722656 -18.929688 209.007812 -15.46875 207.1875 -11.96875 C 206.351562 -10.289062 205.515625 -8.578125 204.671875 -6.828125 C 203.835938 -5.078125 203 -3.289062 202.15625 -1.46875 L 201.53125 0 L 203.203125 -0.203125 C 215.941406 -1.742188 227.519531 -5.207031 237.9375 -10.59375 C 248.363281 -15.988281 258.476562 -21.972656 268.28125 -28.546875 C 268.414062 -28.691406 268.835938 -29.039062 269.546875 -29.59375 C 270.378906 -30.300781 271.566406 -31.210938 273.109375 -32.328125 C 274.648438 -33.441406 275.910156 -34 276.890625 -34 Z M 189.5625 8.390625 L 190.40625 7.140625 L 188.71875 7.140625 C 176.40625 6.296875 165.066406 4.226562 154.703125 0.9375 C 144.347656 -2.34375 134.484375 -8.671875 125.109375 -18.046875 L 124.0625 -18.890625 L 123.859375 -17.84375 C 120.492188 -5.945312 118.113281 5.457031 116.71875 16.375 C 115.320312 27.289062 115.601562 38.554688 117.5625 50.171875 C 118.675781 57.304688 120.773438 62.132812 123.859375 64.65625 C 125.535156 66.195312 127.5625 66.96875 129.9375 66.96875 C 132.738281 66.96875 136.097656 65.847656 140.015625 63.609375 C 150.929688 57.304688 160.164062 49.363281 167.71875 39.78125 C 175.28125 30.195312 182.5625 19.734375 189.5625 8.390625 Z M 184.9375 2.09375 C 192.21875 2.09375 196.976562 -0.984375 199.21875 -7.140625 C 200.050781 -9.234375 200.992188 -11.296875 202.046875 -13.328125 C 203.097656 -15.359375 204.113281 -17.285156 205.09375 -19.109375 C 206.070312 -20.785156 207.015625 -22.460938 207.921875 -24.140625 C 208.835938 -25.816406 209.644531 -27.492188 210.34375 -29.171875 L 211.8125 -32.75 C 215.59375 -41.707031 219.265625 -50.800781 222.828125 -60.03125 C 226.398438 -69.269531 229.195312 -78.890625 231.21875 -88.890625 C 233.25 -98.898438 233.988281 -109.503906 233.4375 -120.703125 C 232.738281 -133.859375 228.75 -143.9375 221.46875 -150.9375 C 215.875 -156.113281 209.15625 -158.703125 201.3125 -158.703125 C 196.414062 -158.703125 191.304688 -157.648438 185.984375 -155.546875 C 148.066406 -140.710938 125.046875 -112.234375 116.921875 -70.109375 C 116.085938 -66.335938 115.84375 -62.382812 116.1875 -58.25 C 116.539062 -54.125 117 -50.03125 117.5625 -45.96875 L 117.765625 -44.5 L 118.8125 -45.140625 C 120.488281 -45.972656 121.640625 -47.019531 122.265625 -48.28125 C 122.898438 -49.539062 123.429688 -50.800781 123.859375 -52.0625 C 124.140625 -52.476562 124.347656 -52.894531 124.484375 -53.3125 C 124.617188 -53.738281 124.757812 -54.09375 124.90625 -54.375 C 130.082031 -64.582031 135.785156 -74.863281 142.015625 -85.21875 C 148.242188 -95.582031 155.554688 -105.171875 163.953125 -113.984375 C 164.367188 -114.410156 164.859375 -115.039062 165.421875 -115.875 C 166.253906 -116.851562 167.125 -117.796875 168.03125 -118.703125 C 168.945312 -119.617188 169.96875 -120.078125 171.09375 -120.078125 C 171.925781 -120.078125 172.90625 -119.65625 174.03125 -118.8125 C 174.726562 -118.113281 175.144531 -117.414062 175.28125 -116.71875 C 175.5625 -115.875 175.382812 -114.925781 174.75 -113.875 C 174.125 -112.832031 173.394531 -111.820312 172.5625 -110.84375 C 171.851562 -109.863281 171.363281 -109.160156 171.09375 -108.734375 L 168.140625 -104.125 C 161.148438 -93.0625 154.257812 -81.789062 147.46875 -70.3125 C 140.675781 -58.84375 134.625 -46.878906 129.3125 -34.421875 C 127.632812 -30.222656 127.5625 -26.617188 129.09375 -23.609375 C 130.632812 -20.609375 133.085938 -17.707031 136.453125 -14.90625 C 143.722656 -8.882812 151.132812 -4.789062 158.6875 -2.625 C 166.25 -0.457031 173.671875 0.972656 180.953125 1.671875 C 182.347656 1.953125 183.675781 2.09375 184.9375 2.09375 Z M 184.9375 2.09375 "/></g></g></g><g fill="#ffffff" fill-opacity="1"><g transform="translate(1091.188054, 248.95152)"><g><path d="M 99.71875 -39.46875 C 99.71875 -39.601562 99.785156 -39.601562 99.921875 -39.46875 C 100.054688 -39.46875 99.988281 -39.253906 99.71875 -38.828125 C 98.59375 -37.015625 97.257812 -35.375 95.71875 -33.90625 C 94.1875 -32.4375 92.507812 -31.070312 90.6875 -29.8125 L 88.375 -27.921875 C 83.894531 -24.421875 79.273438 -20.363281 74.515625 -15.75 C 70.878906 -12.382812 67.3125 -8.914062 63.8125 -5.34375 C 60.3125 -1.78125 56.882812 1.75 53.53125 5.25 L 48.28125 10.703125 C 46.882812 12.109375 45.90625 13.648438 45.34375 15.328125 C 44.78125 17.003906 44.289062 18.890625 43.875 20.984375 C 37.570312 59.753906 22.804688 91.945312 -0.421875 117.5625 C -3.078125 120.5 -5.945312 122.597656 -9.03125 123.859375 C -10.707031 124.554688 -12.242188 124.90625 -13.640625 124.90625 C -15.742188 124.90625 -17.425781 124.273438 -18.6875 123.015625 C -20.644531 121.191406 -21.765625 118.394531 -22.046875 114.625 C -22.179688 110.144531 -21.65625 105.976562 -20.46875 102.125 C -19.28125 98.28125 -17.632812 94.328125 -15.53125 90.265625 C -10.5 80.191406 -4.625 70.78125 2.09375 62.03125 C 8.8125 53.28125 15.671875 44.78125 22.671875 36.53125 C 24.492188 34.289062 26.347656 32.015625 28.234375 29.703125 C 30.117188 27.390625 31.972656 25.113281 33.796875 22.875 C 34.359375 22.320312 34.988281 21.554688 35.6875 20.578125 C 37.082031 19.035156 38.410156 17.316406 39.671875 15.421875 C 40.929688 13.535156 41.492188 11.191406 41.359375 8.390625 C 41.210938 4.335938 40.09375 1.257812 38 -0.84375 C 36.175781 -2.382812 33.9375 -3.15625 31.28125 -3.15625 C 30.300781 -3.15625 29.179688 -3.015625 27.921875 -2.734375 C 26.660156 -2.453125 25.4375 -2.097656 24.25 -1.671875 C 23.0625 -1.253906 21.835938 -0.765625 20.578125 -0.203125 C 19.867188 0.0664062 19.09375 0.34375 18.25 0.625 C 17.414062 0.90625 16.582031 1.1875 15.75 1.46875 C 15.46875 1.601562 15.113281 1.773438 14.6875 1.984375 C 14.269531 2.203125 13.921875 2.378906 13.640625 2.515625 C 13.085938 2.796875 12.53125 3.078125 11.96875 3.359375 C 11.40625 3.640625 10.84375 3.78125 10.28125 3.78125 C 9.863281 3.78125 9.335938 3.640625 8.703125 3.359375 C 8.078125 3.078125 7.414062 2.445312 6.71875 1.46875 C 5.59375 -0.207031 5.273438 -1.5 5.765625 -2.40625 C 6.253906 -3.320312 7.128906 -4.269531 8.390625 -5.25 C 9.097656 -5.8125 9.585938 -6.226562 9.859375 -6.5 C 10.984375 -7.625 12.175781 -8.707031 13.4375 -9.75 C 14.695312 -10.800781 15.882812 -11.890625 17 -13.015625 C 18.957031 -14.691406 20.847656 -16.367188 22.671875 -18.046875 C 24.492188 -19.734375 26.242188 -21.414062 27.921875 -23.09375 C 37.296875 -32.75 43.875 -42.332031 47.65625 -51.84375 C 48.207031 -53.101562 48.625 -54.609375 48.90625 -56.359375 C 49.1875 -58.109375 48.421875 -59.820312 46.609375 -61.5 C 45.347656 -62.625 43.945312 -63.1875 42.40625 -63.1875 C 41.5625 -63.1875 40.789062 -63.082031 40.09375 -62.875 C 39.394531 -62.664062 38.695312 -62.421875 38 -62.140625 L 36.953125 -61.71875 C 32.046875 -59.894531 27.773438 -57.375 24.140625 -54.15625 C 20.503906 -50.9375 17.003906 -47.578125 13.640625 -44.078125 L 10.921875 -41.359375 C 10.210938 -40.515625 9.507812 -39.742188 8.8125 -39.046875 C 8.113281 -38.347656 7.34375 -37.648438 6.5 -36.953125 L 5.875 -36.53125 C 5.039062 -35.832031 4.410156 -35.484375 3.984375 -35.484375 C 3.429688 -35.484375 2.875 -35.757812 2.3125 -36.3125 C 1.050781 -37.289062 0.835938 -38.625 1.671875 -40.3125 C 9.796875 -56.40625 22.320312 -65.289062 39.25 -66.96875 C 39.675781 -66.96875 40.097656 -66.96875 40.515625 -66.96875 C 43.453125 -66.96875 45.832031 -66.054688 47.65625 -64.234375 C 49.894531 -61.992188 50.875 -58.847656 50.59375 -54.796875 C 50.3125 -50.585938 49.398438 -46.734375 47.859375 -43.234375 C 46.316406 -39.742188 44.707031 -36.53125 43.03125 -33.59375 C 37.4375 -24.207031 30.441406 -15.175781 22.046875 -6.5 L 20.78125 -5.25 L 22.875 -5.453125 C 23.851562 -5.453125 24.765625 -5.453125 25.609375 -5.453125 C 30.785156 -5.453125 34.84375 -4.398438 37.78125 -2.296875 C 40.71875 -0.203125 42.816406 3.222656 44.078125 7.984375 L 45.34375 7.984375 C 45.476562 7.703125 46.101562 7.035156 47.21875 5.984375 C 48.34375 4.929688 49.257812 4.125 49.96875 3.5625 C 50.800781 2.863281 51.289062 2.445312 51.4375 2.3125 C 52.550781 1.1875 53.632812 0.0664062 54.6875 -1.046875 C 55.738281 -2.171875 56.820312 -3.363281 57.9375 -4.625 L 59.625 -6.296875 C 61.4375 -8.253906 63.253906 -10.210938 65.078125 -12.171875 C 66.898438 -14.128906 68.789062 -16.085938 70.75 -18.046875 C 77.320312 -24.765625 83.96875 -30.296875 90.6875 -34.640625 C 91.25 -35.054688 91.804688 -35.472656 92.359375 -35.890625 C 92.921875 -36.316406 93.484375 -36.738281 94.046875 -37.15625 L 95.09375 -38 C 95.375 -38.132812 96.035156 -38.410156 97.078125 -38.828125 C 98.128906 -39.253906 99.007812 -39.46875 99.71875 -39.46875 Z M -10.28125 116.09375 C 0.207031 104.894531 9.367188 92.050781 17.203125 77.5625 C 25.046875 63.082031 31.835938 46.1875 37.578125 26.875 L 36.3125 26.03125 C 27.351562 35.40625 18.535156 45.128906 9.859375 55.203125 C 1.179688 65.285156 -6.160156 76.550781 -12.171875 89 C -15.390625 95.582031 -17.703125 102.863281 -19.109375 110.84375 C -19.660156 113.5 -19.238281 115.523438 -17.84375 116.921875 C -17 117.898438 -15.945312 118.390625 -14.6875 118.390625 C -13.15625 118.390625 -11.6875 117.625 -10.28125 116.09375 Z M -10.28125 116.09375 "/></g></g></g><g fill="#ffffff" fill-opacity="1"><g transform="translate(1181.035795, 248.95152)"><g><path d="M 3.359375 -13.015625 C 1.816406 -7.421875 0.765625 -1.472656 0.203125 4.828125 C 0.203125 5.523438 0.269531 6.503906 0.40625 7.765625 C 0.550781 9.023438 1.113281 10.003906 2.09375 10.703125 C 2.65625 11.265625 3.359375 11.546875 4.203125 11.546875 C 4.753906 11.546875 5.3125 11.40625 5.875 11.125 C 8.53125 10.425781 10.941406 9.203125 13.109375 7.453125 C 15.285156 5.703125 17.285156 3.988281 19.109375 2.3125 C 23.722656 -2.03125 27.078125 -7.421875 29.171875 -13.859375 C 29.453125 -14.691406 29.660156 -15.5625 29.796875 -16.46875 C 29.941406 -17.382812 29.523438 -18.332031 28.546875 -19.3125 C 27.566406 -20.570312 26.445312 -21.203125 25.1875 -21.203125 C 24.769531 -21.203125 24.347656 -21.128906 23.921875 -20.984375 C 23.503906 -20.847656 23.085938 -20.710938 22.671875 -20.578125 C 22.109375 -20.296875 21.582031 -20.117188 21.09375 -20.046875 C 20.601562 -19.972656 20.078125 -19.9375 19.515625 -19.9375 C 18.816406 -19.800781 18.257812 -19.734375 17.84375 -19.734375 C 15.601562 -19.734375 14.132812 -20.570312 13.4375 -22.25 C 13.15625 -23.226562 13.15625 -24 13.4375 -24.5625 C 13.851562 -25.40625 15.039062 -25.894531 17 -26.03125 C 24.414062 -26.875 31.515625 -27.921875 38.296875 -29.171875 C 45.085938 -30.429688 51.144531 -31.625 56.46875 -32.75 C 58.425781 -33.3125 60.421875 -33.800781 62.453125 -34.21875 C 64.484375 -34.632812 66.476562 -35.125 68.4375 -35.6875 L 69.0625 -35.890625 C 70.039062 -36.171875 70.738281 -36.3125 71.15625 -36.3125 C 71.863281 -36.3125 72.492188 -35.820312 73.046875 -34.84375 C 73.328125 -34.28125 73.398438 -33.863281 73.265625 -33.59375 C 73.117188 -33.164062 72.800781 -32.878906 72.3125 -32.734375 C 71.820312 -32.597656 71.300781 -32.460938 70.75 -32.328125 L 59.828125 -30.015625 C 56.472656 -29.179688 53.046875 -28.378906 49.546875 -27.609375 C 46.046875 -26.835938 42.546875 -26.03125 39.046875 -25.1875 C 36.671875 -24.769531 34.882812 -23.960938 33.6875 -22.765625 C 32.5 -21.578125 31.90625 -19.375 31.90625 -16.15625 C 31.90625 -9.71875 30.050781 -4.398438 26.34375 -0.203125 C 22.632812 3.992188 18.613281 7.910156 14.28125 11.546875 L 12.8125 12.8125 C 11.40625 13.925781 9.96875 15.039062 8.5 16.15625 C 7.03125 17.28125 5.316406 17.84375 3.359375 17.84375 C 1.398438 17.84375 -0.628906 17.070312 -2.734375 15.53125 C -5.953125 13.289062 -7.5625 10.734375 -7.5625 7.859375 C -7.5625 4.992188 -7.28125 2.234375 -6.71875 -0.421875 L -6.5 -2.515625 C -0.488281 -36.242188 11.613281 -66.546875 29.8125 -93.421875 L 34.421875 -100.34375 C 38.347656 -106.21875 42.410156 -112.09375 46.609375 -117.96875 C 50.804688 -123.851562 55.351562 -129.453125 60.25 -134.765625 C 61.644531 -136.304688 63.253906 -137.8125 65.078125 -139.28125 C 66.898438 -140.75 69 -141.832031 71.375 -142.53125 C 72.914062 -142.957031 74.382812 -143.171875 75.78125 -143.171875 C 79.132812 -143.171875 81.929688 -142.050781 84.171875 -139.8125 C 86.972656 -137.144531 88.375 -133.578125 88.375 -129.109375 C 88.375 -120.847656 86.832031 -113.53125 83.75 -107.15625 C 80.675781 -100.789062 77.25 -95.09375 73.46875 -90.0625 C 58.351562 -69.769531 39.320312 -52.90625 16.375 -39.46875 C 16.09375 -39.1875 15.671875 -38.972656 15.109375 -38.828125 C 14.410156 -38.410156 13.710938 -37.957031 13.015625 -37.46875 C 12.316406 -36.976562 11.753906 -36.316406 11.328125 -35.484375 C 10.910156 -33.941406 10.421875 -32.46875 9.859375 -31.0625 C 9.304688 -29.664062 8.75 -28.195312 8.1875 -26.65625 C 7.34375 -24.414062 6.5 -22.140625 5.65625 -19.828125 C 4.820312 -17.523438 4.054688 -15.253906 3.359375 -13.015625 Z M 17.640625 -52.0625 C 17.210938 -51.082031 16.789062 -50.066406 16.375 -49.015625 C 15.957031 -47.960938 15.46875 -46.945312 14.90625 -45.96875 L 15.953125 -44.921875 C 34.566406 -54.859375 50.734375 -68.15625 64.453125 -84.8125 C 74.242188 -96.707031 80.398438 -108.671875 82.921875 -120.703125 L 82.921875 -121.546875 C 83.484375 -123.921875 83.796875 -126.472656 83.859375 -129.203125 C 83.929688 -131.929688 82.566406 -134.207031 79.765625 -136.03125 C 78.648438 -136.726562 77.53125 -137.078125 76.40625 -137.078125 C 74.726562 -137.078125 73.257812 -136.445312 72 -135.1875 C 70.738281 -133.925781 69.617188 -132.664062 68.640625 -131.40625 L 67.8125 -130.578125 C 52.832031 -112.097656 38.273438 -90.332031 24.140625 -65.28125 C 22.878906 -63.1875 21.722656 -61.019531 20.671875 -58.78125 C 19.628906 -56.539062 18.617188 -54.300781 17.640625 -52.0625 Z M 17.640625 -52.0625 "/></g></g></g><g fill="#ffffff" fill-opacity="1"><g transform="translate(1248.421623, 248.95152)"><g><path d="M 71.796875 -31.0625 C 72.773438 -31.625 73.894531 -31.90625 75.15625 -31.90625 C 75.289062 -31.207031 75.007812 -30.539062 74.3125 -29.90625 C 73.613281 -29.28125 72.984375 -28.6875 72.421875 -28.125 L 71.15625 -27.078125 C 66.125 -23.296875 61.019531 -19.617188 55.84375 -16.046875 C 50.664062 -12.484375 45.101562 -9.546875 39.15625 -7.234375 C 33.207031 -4.929688 26.59375 -3.78125 19.3125 -3.78125 L 18.46875 -3.78125 C 11.332031 -3.78125 5.804688 -5.945312 1.890625 -10.28125 C -1.609375 -14.34375 -2.796875 -19.242188 -1.671875 -24.984375 C 2.242188 -44.148438 14.695312 -56.535156 35.6875 -62.140625 C 36.800781 -62.421875 37.921875 -62.5625 39.046875 -62.5625 C 42.398438 -62.5625 45.128906 -61.085938 47.234375 -58.140625 C 48.910156 -55.910156 49.429688 -53.988281 48.796875 -52.375 C 48.171875 -50.769531 47.226562 -49.125 45.96875 -47.4375 C 40.375 -40.582031 31.140625 -36.175781 18.265625 -34.21875 C 13.640625 -33.519531 10.628906 -31.695312 9.234375 -28.75 C 7.835938 -25.8125 6.789062 -22.664062 6.09375 -19.3125 L 5.875 -17.84375 C 5.457031 -15.882812 5.804688 -14.066406 6.921875 -12.390625 C 8.460938 -10.285156 10.914062 -8.742188 14.28125 -7.765625 C 16.789062 -7.066406 19.445312 -6.71875 22.25 -6.71875 C 24.488281 -6.71875 26.65625 -6.925781 28.75 -7.34375 C 30.851562 -7.769531 33.097656 -8.332031 35.484375 -9.03125 C 42.898438 -11.125 50.316406 -14.691406 57.734375 -19.734375 C 60.953125 -21.828125 64.171875 -24.347656 67.390625 -27.296875 C 67.671875 -27.429688 67.945312 -27.640625 68.21875 -27.921875 C 68.5 -28.203125 68.78125 -28.484375 69.0625 -28.765625 C 69.476562 -29.179688 69.894531 -29.5625 70.3125 -29.90625 C 70.738281 -30.257812 71.234375 -30.644531 71.796875 -31.0625 Z M 20.78125 -41.78125 L 19.3125 -40.09375 L 21.625 -40.71875 C 26.519531 -41.84375 30.679688 -43.3125 34.109375 -45.125 C 37.535156 -46.945312 40.507812 -49.890625 43.03125 -53.953125 L 43.875 -55.625 L 41.984375 -55 C 37.921875 -53.738281 34.140625 -52.160156 30.640625 -50.265625 C 27.148438 -48.378906 23.863281 -45.550781 20.78125 -41.78125 Z M 20.78125 -41.78125 "/></g></g></g><g fill="#ffffff" fill-opacity="1"><g transform="translate(1320.005877, 248.95152)"><g><path d="M 111.265625 -35.265625 C 111.535156 -34.984375 111.425781 -34.457031 110.9375 -33.6875 C 110.445312 -32.914062 109.992188 -32.320312 109.578125 -31.90625 C 108.179688 -30.789062 106.609375 -29.773438 104.859375 -28.859375 C 103.109375 -27.953125 101.320312 -27.078125 99.5 -26.234375 C 98.664062 -25.816406 97.828125 -25.363281 96.984375 -24.875 C 96.140625 -24.382812 95.367188 -23.929688 94.671875 -23.515625 C 91.867188 -21.972656 89.101562 -20.429688 86.375 -18.890625 C 83.65625 -17.347656 80.960938 -15.738281 78.296875 -14.0625 C 66.679688 -6.925781 56.535156 0.207031 47.859375 7.34375 C 44.785156 10 42.40625 13.078125 40.71875 16.578125 L 35.6875 27.296875 C 31.207031 36.523438 26.65625 45.894531 22.03125 55.40625 C 17.414062 64.925781 12.378906 74.164062 6.921875 83.125 C 4.679688 86.625 1.988281 90.507812 -1.15625 94.78125 C -4.300781 99.050781 -8.113281 103.003906 -12.59375 106.640625 C -13.570312 107.335938 -14.65625 108.070312 -15.84375 108.84375 C -17.039062 109.613281 -18.40625 110.140625 -19.9375 110.421875 C -21.195312 110.835938 -22.25 111.046875 -23.09375 111.046875 C -25.1875 111.046875 -27.003906 110.273438 -28.546875 108.734375 C -29.804688 107.617188 -30.503906 106.460938 -30.640625 105.265625 C -30.785156 104.078125 -30.789062 102.71875 -30.65625 101.1875 C -30.226562 97.96875 -29.421875 94.992188 -28.234375 92.265625 C -27.046875 89.535156 -25.820312 86.910156 -24.5625 84.390625 C -13.78125 63.953125 1.894531 44.148438 22.46875 24.984375 C 29.039062 18.828125 34.144531 11.828125 37.78125 3.984375 C 40.164062 -0.910156 42.613281 -5.804688 45.125 -10.703125 C 47.644531 -15.597656 50.164062 -20.5 52.6875 -25.40625 L 59.625 -39.25 L 57.734375 -38.625 C 53.109375 -36.800781 48.941406 -34.523438 45.234375 -31.796875 C 41.523438 -29.066406 37.992188 -26.234375 34.640625 -23.296875 C 33.234375 -22.035156 31.796875 -20.8125 30.328125 -19.625 C 28.859375 -18.4375 27.359375 -17.28125 25.828125 -16.15625 L 22.46875 -13.640625 C 19.664062 -11.398438 16.722656 -9.265625 13.640625 -7.234375 C 10.566406 -5.210938 7.207031 -3.570312 3.5625 -2.3125 C 2.03125 -1.882812 0.632812 -1.671875 -0.625 -1.671875 C -2.726562 -1.671875 -4.757812 -2.441406 -6.71875 -3.984375 C -9.9375 -6.367188 -11.335938 -9.660156 -10.921875 -13.859375 C -10.078125 -20.296875 -7.90625 -25.753906 -4.40625 -30.234375 C -0.90625 -34.710938 2.941406 -38.769531 7.140625 -42.40625 C 7.835938 -43.101562 8.675781 -43.453125 9.65625 -43.453125 C 10.632812 -43.453125 11.613281 -43.03125 12.59375 -42.1875 C 13.570312 -41.207031 14.023438 -40.332031 13.953125 -39.5625 C 13.890625 -38.800781 13.507812 -37.929688 12.8125 -36.953125 C 12.101562 -35.972656 11.429688 -34.988281 10.796875 -34 C 10.171875 -33.019531 9.507812 -32.039062 8.8125 -31.0625 C 7.832031 -29.664062 6.851562 -28.300781 5.875 -26.96875 C 4.894531 -25.644531 3.988281 -24.28125 3.15625 -22.875 C 2.875 -22.457031 2.554688 -22.003906 2.203125 -21.515625 C 1.847656 -21.023438 1.460938 -20.570312 1.046875 -20.15625 C 0.210938 -19.03125 -0.625 -17.835938 -1.46875 -16.578125 C -2.3125 -15.316406 -2.875 -13.921875 -3.15625 -12.390625 C -3.570312 -10.566406 -3.359375 -9.164062 -2.515625 -8.1875 C -1.535156 -7.207031 -0.0664062 -6.71875 1.890625 -6.71875 C 2.867188 -6.71875 3.914062 -6.820312 5.03125 -7.03125 C 6.15625 -7.238281 7.066406 -7.484375 7.765625 -7.765625 C 9.441406 -8.460938 10.976562 -9.265625 12.375 -10.171875 C 13.78125 -11.085938 15.179688 -12.035156 16.578125 -13.015625 C 19.796875 -15.390625 23.015625 -17.800781 26.234375 -20.25 C 29.453125 -22.707031 32.601562 -25.125 35.6875 -27.5 C 38.207031 -29.457031 40.757812 -31.453125 43.34375 -33.484375 C 45.9375 -35.515625 48.492188 -37.4375 51.015625 -39.25 C 51.429688 -39.53125 51.921875 -39.953125 52.484375 -40.515625 C 53.316406 -41.210938 54.1875 -41.875 55.09375 -42.5 C 56.007812 -43.132812 57.023438 -43.453125 58.140625 -43.453125 C 59.265625 -43.453125 60.523438 -42.894531 61.921875 -41.78125 C 63.460938 -40.375 64.09375 -38.898438 63.8125 -37.359375 C 63.53125 -35.828125 63.039062 -34.289062 62.34375 -32.75 C 61.925781 -31.90625 61.644531 -31.273438 61.5 -30.859375 C 60.945312 -29.179688 60.390625 -27.535156 59.828125 -25.921875 C 59.265625 -24.316406 58.632812 -22.742188 57.9375 -21.203125 C 56.957031 -18.546875 55.976562 -15.851562 55 -13.125 C 54.019531 -10.394531 53.109375 -7.5625 52.265625 -4.625 L 53.53125 -3.984375 C 53.664062 -4.546875 54.257812 -5.101562 55.3125 -5.65625 C 56.363281 -6.21875 57.304688 -6.640625 58.140625 -6.921875 C 59.128906 -7.484375 59.757812 -7.835938 60.03125 -7.984375 L 67.171875 -12.390625 C 74.171875 -16.867188 81.3125 -20.992188 88.59375 -24.765625 C 92.363281 -26.722656 96.070312 -28.546875 99.71875 -30.234375 C 100.132812 -30.515625 100.617188 -30.789062 101.171875 -31.0625 C 101.734375 -31.34375 102.226562 -31.625 102.65625 -31.90625 C 104.050781 -32.46875 105.378906 -33.0625 106.640625 -33.6875 C 107.898438 -34.320312 109.226562 -34.847656 110.625 -35.265625 C 110.90625 -35.265625 111.117188 -35.265625 111.265625 -35.265625 Z M -17.640625 102.234375 C -8.398438 92.710938 -0.769531 82.003906 5.25 70.109375 C 11.269531 58.210938 16.9375 46.25 22.25 34.21875 L 21.203125 32.953125 C 7.765625 44.296875 -3.921875 56.894531 -13.859375 70.75 C -16.378906 74.382812 -18.828125 78.195312 -21.203125 82.1875 C -23.578125 86.175781 -25.394531 90.617188 -26.65625 95.515625 C -26.800781 95.929688 -26.941406 96.488281 -27.078125 97.1875 C -27.492188 98.445312 -27.769531 99.773438 -27.90625 101.171875 C -28.050781 102.578125 -27.359375 103.910156 -25.828125 105.171875 C -24.835938 105.867188 -23.851562 106.21875 -22.875 106.21875 C -21.894531 106.21875 -21.054688 105.898438 -20.359375 105.265625 C -19.660156 104.640625 -19.03125 103.976562 -18.46875 103.28125 C -18.050781 102.71875 -17.773438 102.367188 -17.640625 102.234375 Z M -17.640625 102.234375 "/></g></g></g></svg>