<svg xmlns="http://www.w3.org/2000/svg" xmlns:xlink="http://www.w3.org/1999/xlink" width="1920" zoomAndPan="magnify" viewBox="0 0 1440 449.999984" height="600" preserveAspectRatio="xMidYMid meet" version="1.0"><defs><g/></defs><g fill="#ffffff" fill-opacity="1"><g transform="translate(0.00002608, 295.49997)"><g><path d="M 3.109375 0 L 3.109375 -13.46875 L 26 -13.46875 L 26 -128.3125 L 3.109375 -128.3125 L 3.109375 -141.78125 L 69.8125 -141.78125 L 69.8125 -128.3125 L 48.234375 -128.3125 L 48.234375 -80.265625 L 107.671875 -80.265625 L 107.671875 -128.3125 L 85.828125 -128.3125 L 85.828125 -141.78125 L 152.8125 -141.78125 L 152.8125 -128.3125 L 129.8125 -128.3125 L 129.8125 -13.46875 L 152.8125 -13.46875 L 152.8125 0 L 85.828125 0 L 85.828125 -13.46875 L 107.671875 -13.46875 L 107.671875 -68.296875 L 48.234375 -68.296875 L 48.234375 -13.46875 L 69.8125 -13.46875 L 69.8125 0 Z M 3.109375 0 "/></g></g><g transform="translate(155.813592, 295.49997)"><g><path d="M 37.78125 -113.4375 C 35.457031 -113.4375 33.304688 -114.015625 31.328125 -115.171875 C 29.347656 -116.335938 27.773438 -117.910156 26.609375 -119.890625 C 25.453125 -121.867188 24.875 -124.019531 24.875 -126.34375 C 24.875 -128.664062 25.453125 -130.832031 26.609375 -132.84375 C 27.773438 -134.851562 29.347656 -136.453125 31.328125 -137.640625 C 33.304688 -138.835938 35.457031 -139.4375 37.78125 -139.4375 C 40.101562 -139.4375 42.253906 -138.835938 44.234375 -137.640625 C 46.210938 -136.453125 47.78125 -134.851562 48.9375 -132.84375 C 50.101562 -130.832031 50.6875 -128.664062 50.6875 -126.34375 C 50.6875 -124.082031 50.085938 -121.960938 48.890625 -119.984375 C 47.703125 -118.003906 46.117188 -116.414062 44.140625 -115.21875 C 42.160156 -114.03125 40.039062 -113.4375 37.78125 -113.4375 Z M 82.53125 -113.4375 C 80.207031 -113.4375 78.054688 -114.015625 76.078125 -115.171875 C 74.097656 -116.335938 72.523438 -117.910156 71.359375 -119.890625 C 70.203125 -121.867188 69.625 -124.019531 69.625 -126.34375 C 69.625 -128.664062 70.203125 -130.832031 71.359375 -132.84375 C 72.523438 -134.851562 74.097656 -136.453125 76.078125 -137.640625 C 78.054688 -138.835938 80.207031 -139.4375 82.53125 -139.4375 C 84.851562 -139.4375 87.019531 -138.835938 89.03125 -137.640625 C 91.039062 -136.453125 92.65625 -134.851562 93.875 -132.84375 C 95.101562 -130.832031 95.71875 -128.664062 95.71875 -126.34375 C 95.71875 -124.082031 95.101562 -121.960938 93.875 -119.984375 C 92.65625 -118.003906 91.039062 -116.414062 89.03125 -115.21875 C 87.019531 -114.03125 84.851562 -113.4375 82.53125 -113.4375 Z M 83 -18.5625 C 75.082031 -4.488281 63.742188 2.546875 48.984375 2.546875 C 46.722656 2.546875 44.585938 2.382812 42.578125 2.0625 C 40.566406 1.75 38.304688 1.1875 35.796875 0.375 C 31.148438 -1.070312 26.910156 -4.523438 23.078125 -9.984375 C 21.253906 -12.554688 19.835938 -15.898438 18.828125 -20.015625 C 17.828125 -24.128906 17.328125 -28.765625 17.328125 -33.921875 L 17.328125 -90.53125 L -0.375 -90.53125 L -0.375 -101.078125 L 37.59375 -101.078125 L 37.59375 -34.109375 C 37.59375 -25.816406 38.910156 -19.816406 41.546875 -16.109375 C 44.179688 -12.398438 48.328125 -10.546875 53.984375 -10.546875 C 58.003906 -10.546875 62.226562 -11.738281 66.65625 -14.125 C 71.082031 -16.519531 74.800781 -19.660156 77.8125 -23.546875 C 80.832031 -27.441406 82.34375 -31.367188 82.34375 -35.328125 L 82.34375 -90.53125 L 65.1875 -90.53125 L 65.1875 -101.078125 L 102.6875 -101.078125 L 102.6875 -10.640625 L 120.96875 -8.671875 L 120.96875 0 L 83 2.734375 Z M 83 -18.5625 "/></g></g><g transform="translate(276.960053, 295.49997)"><g><path d="M 48.421875 2.546875 C 38.304688 2.546875 29.203125 0.628906 21.109375 -3.203125 C 16.898438 -5.148438 13.566406 -7.832031 11.109375 -11.25 C 8.660156 -14.675781 7.4375 -18.554688 7.4375 -22.890625 C 7.4375 -25.523438 8.03125 -27.925781 9.21875 -30.09375 C 10.414062 -32.257812 12.003906 -33.9375 13.984375 -35.125 C 15.960938 -36.320312 18.082031 -36.921875 20.34375 -36.921875 C 24.050781 -36.921875 27.097656 -35.914062 29.484375 -33.90625 C 31.867188 -31.90625 33.0625 -29.113281 33.0625 -25.53125 C 33.0625 -23.457031 32.632812 -21.570312 31.78125 -19.875 C 30.9375 -18.175781 29.789062 -16.835938 28.34375 -15.859375 C 26.90625 -14.890625 25.398438 -14.40625 23.828125 -14.40625 C 26.285156 -12.65625 29.566406 -11.195312 33.671875 -10.03125 C 37.785156 -8.875 41.882812 -8.296875 45.96875 -8.296875 C 51.1875 -8.296875 55.628906 -8.796875 59.296875 -9.796875 C 62.972656 -10.804688 66.097656 -12.535156 68.671875 -14.984375 C 71.378906 -17.492188 72.734375 -20.789062 72.734375 -24.875 C 72.734375 -27.820312 71.820312 -30.488281 70 -32.875 C 68.175781 -35.257812 65.722656 -37.144531 62.640625 -38.53125 C 55.796875 -41.601562 48.421875 -44.175781 40.515625 -46.25 C 36.429688 -47.320312 32.457031 -48.671875 28.59375 -50.296875 C 24.726562 -51.929688 21.320312 -53.753906 18.375 -55.765625 C 15.226562 -57.835938 12.757812 -60.535156 10.96875 -63.859375 C 9.1875 -67.191406 8.296875 -70.929688 8.296875 -75.078125 C 8.296875 -79.222656 9.1875 -83.003906 10.96875 -86.421875 C 12.757812 -89.847656 15.132812 -92.664062 18.09375 -94.875 C 20.851562 -96.875 24.035156 -98.597656 27.640625 -100.046875 C 31.253906 -101.492188 34.789062 -102.5 38.25 -103.0625 C 41.769531 -103.5625 44.972656 -103.8125 47.859375 -103.8125 C 52.378906 -103.8125 56.945312 -103.304688 61.5625 -102.296875 C 66.175781 -101.296875 70.492188 -99.882812 74.515625 -98.0625 C 78.597656 -96.125 81.863281 -93.628906 84.3125 -90.578125 C 86.757812 -87.535156 87.984375 -84.253906 87.984375 -80.734375 C 87.984375 -78.035156 87.429688 -75.601562 86.328125 -73.4375 C 85.234375 -71.269531 83.742188 -69.585938 81.859375 -68.390625 C 79.984375 -67.203125 77.976562 -66.609375 75.84375 -66.609375 C 72.132812 -66.609375 69.054688 -67.707031 66.609375 -69.90625 C 64.160156 -72.101562 62.9375 -75.050781 62.9375 -78.75 C 62.9375 -80.382812 63.34375 -81.972656 64.15625 -83.515625 C 64.96875 -85.054688 65.847656 -86.203125 66.796875 -86.953125 L 70.09375 -89.21875 C 63.875 -92.226562 56.835938 -93.734375 48.984375 -93.734375 C 44.648438 -93.734375 40.722656 -93.085938 37.203125 -91.796875 C 33.691406 -90.515625 30.929688 -88.648438 28.921875 -86.203125 C 26.910156 -83.753906 25.90625 -80.863281 25.90625 -77.53125 C 25.90625 -75.144531 26.816406 -72.976562 28.640625 -71.03125 C 30.460938 -69.082031 32.941406 -67.546875 36.078125 -66.421875 C 43.367188 -63.585938 50.78125 -61.164062 58.3125 -59.15625 C 62.332031 -58.03125 66.289062 -56.554688 70.1875 -54.734375 C 74.082031 -52.910156 77.566406 -50.867188 80.640625 -48.609375 C 83.785156 -46.347656 86.25 -43.410156 88.03125 -39.796875 C 89.820312 -36.191406 90.71875 -32.191406 90.71875 -27.796875 C 90.71875 -23.335938 89.898438 -19.316406 88.265625 -15.734375 C 86.640625 -12.148438 84.441406 -9.195312 81.671875 -6.875 C 79.097656 -4.675781 75.957031 -2.835938 72.25 -1.359375 C 68.550781 0.109375 64.691406 1.128906 60.671875 1.703125 C 56.835938 2.265625 52.753906 2.546875 48.421875 2.546875 Z M 48.421875 2.546875 "/></g></g><g transform="translate(374.932307, 295.49997)"><g><path d="M 56.140625 2.546875 C 48.609375 2.546875 41.671875 1.117188 35.328125 -1.734375 C 28.984375 -4.597656 23.738281 -8.539062 19.59375 -13.5625 C 15.507812 -18.46875 12.382812 -23.992188 10.21875 -30.140625 C 8.050781 -36.296875 6.96875 -42.671875 6.96875 -49.265625 C 6.96875 -54.984375 7.640625 -60.507812 8.984375 -65.84375 C 10.335938 -71.1875 12.335938 -76.117188 14.984375 -80.640625 C 20.753906 -90.503906 28.476562 -97.253906 38.15625 -100.890625 C 43.238281 -102.835938 48.859375 -103.8125 55.015625 -103.8125 C 61.421875 -103.8125 67.382812 -102.679688 72.90625 -100.421875 C 78.4375 -98.160156 83.273438 -94.894531 87.421875 -90.625 C 91.628906 -86.226562 94.941406 -80.703125 97.359375 -74.046875 C 99.773438 -67.390625 101.046875 -60.007812 101.171875 -51.90625 L 28.546875 -51.90625 L 28.546875 -51.15625 C 28.546875 -40.226562 30.867188 -31.023438 35.515625 -23.546875 C 37.835938 -19.785156 40.945312 -16.851562 44.84375 -14.75 C 48.738281 -12.644531 53.164062 -11.59375 58.125 -11.59375 C 62.519531 -11.59375 66.773438 -12.515625 70.890625 -14.359375 C 75.003906 -16.210938 78.582031 -18.914062 81.625 -22.46875 C 84.675781 -26.019531 86.859375 -30.179688 88.171875 -34.953125 L 99.203125 -31.46875 C 97.566406 -24.5625 94.769531 -18.546875 90.8125 -13.421875 C 86.851562 -8.304688 81.921875 -4.363281 76.015625 -1.59375 C 70.117188 1.164062 63.492188 2.546875 56.140625 2.546875 Z M 80.453125 -62.078125 C 80.328125 -68.046875 79.148438 -73.335938 76.921875 -77.953125 C 74.691406 -82.566406 71.707031 -86.160156 67.96875 -88.734375 C 64.226562 -91.316406 60.097656 -92.609375 55.578125 -92.609375 C 50.992188 -92.609375 46.785156 -91.316406 42.953125 -88.734375 C 39.128906 -86.160156 36.003906 -82.566406 33.578125 -77.953125 C 31.160156 -73.335938 29.703125 -68.046875 29.203125 -62.078125 Z M 80.453125 -62.078125 "/></g></g><g transform="translate(483.267012, 295.49997)"><g><path d="M 33.921875 44 C 28.203125 44 23.128906 43.101562 18.703125 41.3125 C 14.273438 39.519531 10.816406 37.035156 8.328125 33.859375 C 5.847656 30.691406 4.609375 27.066406 4.609375 22.984375 C 4.609375 18.523438 6.066406 14.894531 8.984375 12.09375 C 11.910156 9.300781 15.851562 7.90625 20.8125 7.90625 C 24.582031 7.90625 27.488281 9.175781 29.53125 11.71875 C 31.570312 14.269531 32.59375 17.554688 32.59375 21.578125 C 32.59375 23.773438 31.867188 25.78125 30.421875 27.59375 C 28.984375 29.414062 27.070312 30.894531 24.6875 32.03125 C 27.257812 33.414062 29.332031 34.109375 30.90625 34.109375 C 36.550781 34.109375 41.257812 31.578125 45.03125 26.515625 C 48.800781 21.460938 51.660156 13.347656 53.609375 2.171875 L 16.203125 -90.53125 L -2.546875 -90.53125 L -2.546875 -101.078125 L 55.578125 -101.078125 L 55.578125 -90.53125 L 38.4375 -90.53125 L 65.75 -16.578125 L 89.125 -90.53125 L 73.484375 -90.53125 L 73.484375 -101.078125 L 121.90625 -101.078125 L 121.90625 -90.53125 L 105.703125 -90.53125 L 73.296875 0.375 C 69.585938 11.113281 65.785156 19.65625 61.890625 26 C 57.992188 32.34375 53.785156 36.925781 49.265625 39.75 C 44.742188 42.582031 39.628906 44 33.921875 44 Z M 33.921875 44 "/></g></g><g transform="translate(603.848248, 295.49997)"><g><path d="M 31.65625 -118.890625 C 29.144531 -118.890625 26.820312 -119.515625 24.6875 -120.765625 C 22.550781 -122.023438 20.851562 -123.722656 19.59375 -125.859375 C 18.34375 -127.992188 17.71875 -130.285156 17.71875 -132.734375 C 17.71875 -135.304688 18.34375 -137.675781 19.59375 -139.84375 C 20.851562 -142.019531 22.550781 -143.734375 24.6875 -144.984375 C 26.820312 -146.242188 29.144531 -146.875 31.65625 -146.875 C 34.101562 -146.875 36.410156 -146.226562 38.578125 -144.9375 C 40.742188 -143.644531 42.46875 -141.914062 43.75 -139.75 C 45.039062 -137.582031 45.6875 -135.242188 45.6875 -132.734375 C 45.6875 -130.285156 45.039062 -127.992188 43.75 -125.859375 C 42.46875 -123.722656 40.742188 -122.023438 38.578125 -120.765625 C 36.410156 -119.515625 34.101562 -118.890625 31.65625 -118.890625 Z M 5.1875 0 L 5.1875 -10.546875 L 23.359375 -10.546875 L 23.359375 -90.53125 L 5 -90.53125 L 5 -101.078125 L 43.625 -101.078125 L 43.625 -10.546875 L 62.078125 -10.546875 L 62.078125 0 Z M 5.1875 0 "/></g></g><g transform="translate(666.493968, 295.49997)"><g><path d="M 4.609375 -10.546875 L 22.984375 -10.546875 L 22.984375 -90.53125 L 4.609375 -90.53125 L 4.609375 -101.078125 L 40.328125 -102.6875 L 42.671875 -82.15625 C 44.617188 -86.675781 47.382812 -90.566406 50.96875 -93.828125 C 54.550781 -97.097656 58.539062 -99.578125 62.9375 -101.265625 C 67.332031 -102.960938 71.757812 -103.8125 76.21875 -103.8125 C 78.351562 -103.8125 80.25 -103.71875 81.90625 -103.53125 C 83.570312 -103.34375 85.410156 -102.9375 87.421875 -102.3125 C 89.679688 -101.613281 91.675781 -100.726562 93.40625 -99.65625 C 95.132812 -98.59375 96.910156 -97.15625 98.734375 -95.34375 C 100.617188 -93.394531 102.15625 -91.175781 103.34375 -88.6875 C 104.539062 -86.207031 105.546875 -83.148438 106.359375 -79.515625 C 107.109375 -75.867188 107.484375 -71.753906 107.484375 -67.171875 L 107.484375 -10.546875 L 126.796875 -10.546875 L 126.796875 0 L 70 0 L 70 -10.546875 L 87.234375 -10.546875 L 87.234375 -66.984375 C 87.234375 -74.960938 85.660156 -80.941406 82.515625 -84.921875 C 79.378906 -88.910156 74.957031 -90.90625 69.25 -90.90625 C 65.726562 -90.90625 62.472656 -90.242188 59.484375 -88.921875 C 56.503906 -87.609375 54.007812 -85.789062 52 -83.46875 C 50.050781 -81.207031 48.398438 -78.519531 47.046875 -75.40625 C 45.703125 -72.300781 44.75 -69.050781 44.1875 -65.65625 C 43.550781 -62.519531 43.234375 -59.035156 43.234375 -55.203125 L 43.234375 -10.546875 L 60.390625 -10.546875 L 60.390625 0 L 4.609375 0 Z M 4.609375 -10.546875 "/></g></g><g transform="translate(794.517327, 295.49997)"><g/></g><g transform="translate(839.735291, 295.49997)"><g><path d="M 52.28125 -154.3125 C 49.957031 -154.3125 47.804688 -154.890625 45.828125 -156.046875 C 43.847656 -157.210938 42.273438 -158.785156 41.109375 -160.765625 C 39.953125 -162.742188 39.375 -164.894531 39.375 -167.21875 C 39.375 -169.539062 39.953125 -171.707031 41.109375 -173.71875 C 42.273438 -175.726562 43.847656 -177.328125 45.828125 -178.515625 C 47.804688 -179.710938 49.957031 -180.3125 52.28125 -180.3125 C 54.601562 -180.3125 56.753906 -179.710938 58.734375 -178.515625 C 60.710938 -177.328125 62.28125 -175.726562 63.4375 -173.71875 C 64.601562 -171.707031 65.1875 -169.539062 65.1875 -167.21875 C 65.1875 -164.957031 64.585938 -162.835938 63.390625 -160.859375 C 62.203125 -158.878906 60.617188 -157.289062 58.640625 -156.09375 C 56.660156 -154.90625 54.539062 -154.3125 52.28125 -154.3125 Z M 97.03125 -154.3125 C 94.707031 -154.3125 92.554688 -154.890625 90.578125 -156.046875 C 88.597656 -157.210938 87.023438 -158.785156 85.859375 -160.765625 C 84.703125 -162.742188 84.125 -164.894531 84.125 -167.21875 C 84.125 -169.539062 84.703125 -171.707031 85.859375 -173.71875 C 87.023438 -175.726562 88.597656 -177.328125 90.578125 -178.515625 C 92.554688 -179.710938 94.707031 -180.3125 97.03125 -180.3125 C 99.351562 -180.3125 101.519531 -179.710938 103.53125 -178.515625 C 105.539062 -177.328125 107.15625 -175.726562 108.375 -173.71875 C 109.601562 -171.707031 110.21875 -169.539062 110.21875 -167.21875 C 110.21875 -164.957031 109.601562 -162.835938 108.375 -160.859375 C 107.15625 -158.878906 105.539062 -157.289062 103.53125 -156.09375 C 101.519531 -154.90625 99.351562 -154.3125 97.03125 -154.3125 Z M 74.890625 2.546875 C 66.347656 2.546875 58.367188 1.179688 50.953125 -1.546875 C 43.546875 -4.285156 37.175781 -8.070312 31.84375 -12.90625 C 26.695312 -17.613281 22.285156 -23.125 18.609375 -29.4375 C 14.929688 -35.75 12.242188 -42.421875 10.546875 -49.453125 C 8.785156 -56.429688 7.90625 -63.625 7.90625 -71.03125 C 7.90625 -86.351562 11.457031 -100.203125 18.5625 -112.578125 C 22.332031 -119.109375 26.835938 -124.710938 32.078125 -129.390625 C 37.316406 -134.066406 43.519531 -137.789062 50.6875 -140.5625 C 58.21875 -143.320312 66.285156 -144.703125 74.890625 -144.703125 C 83.429688 -144.703125 91.421875 -143.316406 98.859375 -140.546875 C 106.304688 -137.785156 112.671875 -133.988281 117.953125 -129.15625 C 123.097656 -124.445312 127.488281 -118.9375 131.125 -112.625 C 134.769531 -106.3125 137.472656 -99.640625 139.234375 -92.609375 C 140.929688 -85.578125 141.78125 -78.382812 141.78125 -71.03125 C 141.78125 -55.707031 138.234375 -41.859375 131.140625 -29.484375 C 127.367188 -22.953125 122.875 -17.363281 117.65625 -12.71875 C 112.445312 -8.070312 106.265625 -4.398438 99.109375 -1.703125 C 91.691406 1.128906 83.617188 2.546875 74.890625 2.546875 Z M 74.890625 -10.640625 C 81.484375 -10.640625 87.5625 -12.316406 93.125 -15.671875 C 98.6875 -19.035156 103.253906 -23.640625 106.828125 -29.484375 C 110.347656 -35.140625 113.035156 -41.53125 114.890625 -48.65625 C 116.742188 -55.78125 117.671875 -63.175781 117.671875 -70.84375 C 117.671875 -77 117.085938 -82.992188 115.921875 -88.828125 C 114.765625 -94.671875 112.988281 -100.109375 110.59375 -105.140625 C 105.382812 -116.191406 98.507812 -123.851562 89.96875 -128.125 C 85.382812 -130.382812 80.359375 -131.515625 74.890625 -131.515625 C 68.296875 -131.515625 62.234375 -129.832031 56.703125 -126.46875 C 51.179688 -123.113281 46.597656 -118.515625 42.953125 -112.671875 C 39.441406 -106.953125 36.742188 -100.53125 34.859375 -93.40625 C 32.972656 -86.28125 32.03125 -78.882812 32.03125 -71.21875 C 32.03125 -58.21875 34.414062 -46.722656 39.1875 -36.734375 C 41.695312 -31.335938 44.628906 -26.738281 47.984375 -22.9375 C 51.347656 -19.132812 55.296875 -16.164062 59.828125 -14.03125 C 64.472656 -11.769531 69.492188 -10.640625 74.890625 -10.640625 Z M 74.890625 -10.640625 "/></g></g><g transform="translate(989.425591, 295.49997)"><g><path d="M 11.96875 0 L 10.265625 -14.890625 L 10.453125 -14.890625 L 70.46875 -90.53125 L 26.65625 -90.53125 L 26.65625 -64.625 L 11.203125 -64.625 L 11.203125 -101.078125 L 88.5625 -101.078125 L 91.28125 -87.046875 L 30.515625 -10.546875 L 79.703125 -10.546875 L 79.703125 -39.375 L 95.15625 -39.375 L 95.15625 0 Z M 11.96875 0 "/></g></g><g transform="translate(1092.390663, 295.49997)"><g><path d="M 61.890625 2.546875 C 54.671875 2.546875 48.078125 0.738281 42.109375 -2.875 C 36.140625 -6.488281 31.679688 -11.78125 28.734375 -18.75 L 21.390625 0 L 12.71875 0 L 12.71875 -130.1875 L -6.78125 -130.1875 L -6.78125 -141.78125 L 32.96875 -141.78125 L 32.96875 -88.75 C 36.175781 -93.457031 40.242188 -97.144531 45.171875 -99.8125 C 50.097656 -102.476562 55.359375 -103.8125 60.953125 -103.8125 C 69.554688 -103.8125 77.15625 -101.566406 83.75 -97.078125 C 90.34375 -92.585938 95.425781 -86.304688 99 -78.234375 C 102.582031 -70.171875 104.375 -60.957031 104.375 -50.59375 C 104.375 -40.601562 102.597656 -31.585938 99.046875 -23.546875 C 95.503906 -15.515625 90.5 -9.171875 84.03125 -4.515625 C 77.5625 0.191406 70.179688 2.546875 61.890625 2.546875 Z M 58.03125 -8.859375 C 62.988281 -8.859375 67.429688 -10.800781 71.359375 -14.6875 C 75.285156 -18.582031 78.191406 -23.671875 80.078125 -29.953125 C 81.898438 -36.109375 82.8125 -42.578125 82.8125 -49.359375 C 82.8125 -60.484375 80.988281 -70.347656 77.34375 -78.953125 C 75.394531 -83.347656 72.753906 -86.816406 69.421875 -89.359375 C 66.097656 -91.898438 62.300781 -93.171875 58.03125 -93.171875 C 54.007812 -93.171875 50.300781 -91.960938 46.90625 -89.546875 C 43.519531 -87.128906 40.851562 -83.910156 38.90625 -79.890625 C 36.957031 -75.992188 35.476562 -71.910156 34.46875 -67.640625 C 33.46875 -63.367188 32.96875 -59.160156 32.96875 -55.015625 C 32.96875 -46.410156 33.972656 -38.640625 35.984375 -31.703125 C 37.992188 -24.765625 40.882812 -19.253906 44.65625 -15.171875 C 48.488281 -10.960938 52.945312 -8.859375 58.03125 -8.859375 Z M 58.03125 -8.859375 "/></g></g><g transform="translate(1204.02251, 295.49997)"><g><path d="M 56.140625 2.546875 C 48.609375 2.546875 41.671875 1.117188 35.328125 -1.734375 C 28.984375 -4.597656 23.738281 -8.539062 19.59375 -13.5625 C 15.507812 -18.46875 12.382812 -23.992188 10.21875 -30.140625 C 8.050781 -36.296875 6.96875 -42.671875 6.96875 -49.265625 C 6.96875 -54.984375 7.640625 -60.507812 8.984375 -65.84375 C 10.335938 -71.1875 12.335938 -76.117188 14.984375 -80.640625 C 20.753906 -90.503906 28.476562 -97.253906 38.15625 -100.890625 C 43.238281 -102.835938 48.859375 -103.8125 55.015625 -103.8125 C 61.421875 -103.8125 67.382812 -102.679688 72.90625 -100.421875 C 78.4375 -98.160156 83.273438 -94.894531 87.421875 -90.625 C 91.628906 -86.226562 94.941406 -80.703125 97.359375 -74.046875 C 99.773438 -67.390625 101.046875 -60.007812 101.171875 -51.90625 L 28.546875 -51.90625 L 28.546875 -51.15625 C 28.546875 -40.226562 30.867188 -31.023438 35.515625 -23.546875 C 37.835938 -19.785156 40.945312 -16.851562 44.84375 -14.75 C 48.738281 -12.644531 53.164062 -11.59375 58.125 -11.59375 C 62.519531 -11.59375 66.773438 -12.515625 70.890625 -14.359375 C 75.003906 -16.210938 78.582031 -18.914062 81.625 -22.46875 C 84.675781 -26.019531 86.859375 -30.179688 88.171875 -34.953125 L 99.203125 -31.46875 C 97.566406 -24.5625 94.769531 -18.546875 90.8125 -13.421875 C 86.851562 -8.304688 81.921875 -4.363281 76.015625 -1.59375 C 70.117188 1.164062 63.492188 2.546875 56.140625 2.546875 Z M 80.453125 -62.078125 C 80.328125 -68.046875 79.148438 -73.335938 76.921875 -77.953125 C 74.691406 -82.566406 71.707031 -86.160156 67.96875 -88.734375 C 64.226562 -91.316406 60.097656 -92.609375 55.578125 -92.609375 C 50.992188 -92.609375 46.785156 -91.316406 42.953125 -88.734375 C 39.128906 -86.160156 36.003906 -82.566406 33.578125 -77.953125 C 31.160156 -73.335938 29.703125 -68.046875 29.203125 -62.078125 Z M 80.453125 -62.078125 "/></g></g><g transform="translate(1312.357215, 295.49997)"><g><path d="M 33.921875 44 C 28.203125 44 23.128906 43.101562 18.703125 41.3125 C 14.273438 39.519531 10.816406 37.035156 8.328125 33.859375 C 5.847656 30.691406 4.609375 27.066406 4.609375 22.984375 C 4.609375 18.523438 6.066406 14.894531 8.984375 12.09375 C 11.910156 9.300781 15.851562 7.90625 20.8125 7.90625 C 24.582031 7.90625 27.488281 9.175781 29.53125 11.71875 C 31.570312 14.269531 32.59375 17.554688 32.59375 21.578125 C 32.59375 23.773438 31.867188 25.78125 30.421875 27.59375 C 28.984375 29.414062 27.070312 30.894531 24.6875 32.03125 C 27.257812 33.414062 29.332031 34.109375 30.90625 34.109375 C 36.550781 34.109375 41.257812 31.578125 45.03125 26.515625 C 48.800781 21.460938 51.660156 13.347656 53.609375 2.171875 L 16.203125 -90.53125 L -2.546875 -90.53125 L -2.546875 -101.078125 L 55.578125 -101.078125 L 55.578125 -90.53125 L 38.4375 -90.53125 L 65.75 -16.578125 L 89.125 -90.53125 L 73.484375 -90.53125 L 73.484375 -101.078125 L 121.90625 -101.078125 L 121.90625 -90.53125 L 105.703125 -90.53125 L 73.296875 0.375 C 69.585938 11.113281 65.785156 19.65625 61.890625 26 C 57.992188 32.34375 53.785156 36.925781 49.265625 39.75 C 44.742188 42.582031 39.628906 44 33.921875 44 Z M 33.921875 44 "/></g></g></g></svg>