<svg xmlns="http://www.w3.org/2000/svg" xmlns:xlink="http://www.w3.org/1999/xlink" width="1000" zoomAndPan="magnify" viewBox="0 0 750 149.999998" height="200" preserveAspectRatio="xMidYMid meet" version="1.0"><defs><g/></defs><g fill="#ffffff" fill-opacity="1"><g transform="translate(53.516857, 93.377357)"><g><path d="M 70.765625 -85.828125 C 72.003906 -87.304688 72.742188 -87.460938 72.984375 -86.296875 C 73.171875 -85.554688 73.15625 -84.492188 72.9375 -83.109375 C 72.726562 -81.722656 72.53125 -80.722656 72.34375 -80.109375 C 71.601562 -77.890625 70.492188 -74.992188 69.015625 -71.421875 C 67.535156 -67.847656 65.835938 -63.890625 63.921875 -59.546875 C 62.015625 -55.203125 60.015625 -50.71875 57.921875 -46.09375 C 55.828125 -41.476562 53.78125 -37.015625 51.78125 -32.703125 C 49.78125 -28.390625 47.945312 -24.492188 46.28125 -21.015625 C 44.625 -17.535156 43.269531 -14.75 42.21875 -12.65625 L 41.9375 -12.203125 C 41.695312 -11.765625 41.484375 -11.34375 41.296875 -10.9375 C 41.109375 -10.539062 40.863281 -10.066406 40.5625 -9.515625 L 39.171875 -6.75 L 40.09375 -7.109375 C 44.34375 -8.398438 48.65625 -9.660156 53.03125 -10.890625 C 57.40625 -12.128906 61.867188 -13.085938 66.421875 -13.765625 C 67.285156 -13.890625 67.882812 -14.210938 68.21875 -14.734375 C 68.5625 -15.253906 68.859375 -15.828125 69.109375 -16.453125 C 69.171875 -16.566406 69.21875 -16.703125 69.25 -16.859375 C 69.28125 -17.015625 69.328125 -17.15625 69.390625 -17.28125 C 72.835938 -24.789062 76.300781 -31.515625 79.78125 -37.453125 C 83.257812 -43.398438 86.9375 -48.835938 90.8125 -53.765625 C 91 -53.953125 91.25 -54.320312 91.5625 -54.875 C 91.988281 -55.4375 92.445312 -56.007812 92.9375 -56.59375 C 93.4375 -57.175781 93.929688 -57.46875 94.421875 -57.46875 C 94.734375 -57.46875 95.007812 -57.375 95.25 -57.1875 C 95.6875 -56.820312 95.9375 -56.484375 96 -56.171875 C 96.113281 -55.679688 96 -55.1875 95.65625 -54.6875 C 95.320312 -54.195312 94.941406 -53.738281 94.515625 -53.3125 C 94.328125 -53.0625 94.140625 -52.828125 93.953125 -52.609375 C 93.773438 -52.398438 93.625 -52.203125 93.5 -52.015625 L 91.75 -49.15625 C 88.851562 -44.34375 85.972656 -39.457031 83.109375 -34.5 C 80.242188 -29.550781 77.609375 -24.488281 75.203125 -19.3125 C 75.078125 -19.125 74.925781 -18.878906 74.75 -18.578125 C 74.5 -18.140625 74.28125 -17.675781 74.09375 -17.1875 C 73.90625 -16.695312 73.9375 -16.050781 74.1875 -15.25 L 74.84375 -15.25 C 74.957031 -15.3125 75.445312 -15.351562 76.3125 -15.375 C 77.175781 -15.40625 78.144531 -15.453125 79.21875 -15.515625 C 80.300781 -15.578125 81.316406 -15.625 82.265625 -15.65625 C 83.222656 -15.6875 83.890625 -15.703125 84.265625 -15.703125 C 84.566406 -15.703125 84.882812 -15.71875 85.21875 -15.75 C 85.5625 -15.78125 85.890625 -15.796875 86.203125 -15.796875 C 86.628906 -15.796875 87.054688 -15.796875 87.484375 -15.796875 C 87.921875 -15.796875 88.351562 -15.796875 88.78125 -15.796875 C 89.519531 -15.796875 90.171875 -15.796875 90.734375 -15.796875 L 91.28125 -15.703125 C 91.707031 -15.703125 92.148438 -15.6875 92.609375 -15.65625 C 93.078125 -15.625 93.46875 -15.519531 93.78125 -15.34375 C 94.082031 -15.21875 94.234375 -15.09375 94.234375 -14.96875 C 94.234375 -14.71875 94.015625 -14.46875 93.578125 -14.21875 C 93.148438 -13.976562 92.785156 -13.828125 92.484375 -13.765625 C 91.742188 -13.640625 90.988281 -13.546875 90.21875 -13.484375 C 89.445312 -13.421875 88.691406 -13.390625 87.953125 -13.390625 L 85.828125 -13.390625 C 85.273438 -13.390625 84.753906 -13.390625 84.265625 -13.390625 C 82.847656 -13.328125 81.382812 -13.25 79.875 -13.15625 C 78.363281 -13.070312 76.867188 -12.9375 75.390625 -12.75 C 73.046875 -12.382812 71.414062 -11.210938 70.5 -9.234375 C 68.644531 -5.046875 66.929688 -0.78125 65.359375 3.5625 C 63.796875 7.90625 62.273438 12.203125 60.796875 16.453125 C 59.804688 19.285156 58.785156 22.144531 57.734375 25.03125 C 56.691406 27.925781 55.617188 30.789062 54.515625 33.625 C 54.265625 34.238281 53.984375 34.835938 53.671875 35.421875 C 53.367188 36.015625 52.910156 36.460938 52.296875 36.765625 C 52.109375 36.828125 51.953125 36.859375 51.828125 36.859375 C 51.703125 36.734375 51.609375 36.363281 51.546875 35.75 C 51.492188 35.132812 51.679688 33.875 52.109375 31.96875 L 52.203125 31.59375 C 52.628906 29.625 53.101562 27.671875 53.625 25.734375 C 54.15625 23.796875 54.695312 21.867188 55.25 19.953125 L 56.359375 16.265625 C 57.160156 13.734375 58.035156 11.1875 58.984375 8.625 C 59.941406 6.070312 60.914062 3.535156 61.90625 1.015625 L 63.75 -3.78125 C 63.9375 -4.34375 64.148438 -4.929688 64.390625 -5.546875 C 64.640625 -6.160156 64.859375 -6.773438 65.046875 -7.390625 C 65.109375 -7.515625 65.195312 -7.757812 65.3125 -8.125 C 65.375 -8.5 65.5 -8.992188 65.6875 -9.609375 C 65.875 -10.222656 66.03125 -10.5625 66.15625 -10.625 L 65.78125 -11.359375 C 60.726562 -10.503906 56.015625 -9.441406 51.640625 -8.171875 C 47.273438 -6.910156 43.273438 -5.632812 39.640625 -4.34375 C 37.972656 -3.789062 36.675781 -2.742188 35.75 -1.203125 C 35.007812 0.0859375 34.269531 1.363281 33.53125 2.625 C 32.789062 3.894531 32.054688 5.175781 31.328125 6.46875 C 29.660156 9.175781 28.007812 11.945312 26.375 14.78125 C 24.738281 17.613281 23.15625 20.445312 21.625 23.28125 C 21.007812 24.394531 20.515625 25.550781 20.140625 26.75 C 19.773438 27.945312 19.4375 29.128906 19.125 30.296875 C 18.9375 30.984375 18.75 31.632812 18.5625 32.25 C 18.382812 32.863281 18.171875 33.507812 17.921875 34.1875 C 17.492188 35.476562 16.941406 36.554688 16.265625 37.421875 L 15.984375 37.875 C 15.671875 38.3125 15.316406 38.742188 14.921875 39.171875 C 14.523438 39.609375 14.078125 39.828125 13.578125 39.828125 C 13.085938 39.828125 12.597656 39.640625 12.109375 39.265625 C 11.179688 38.710938 10.734375 38.113281 10.765625 37.46875 C 10.796875 36.820312 10.992188 36.066406 11.359375 35.203125 L 11.546875 34.734375 C 13.023438 30.734375 14.597656 27.007812 16.265625 23.5625 C 17.554688 20.96875 17.644531 18.71875 16.53125 16.8125 C 15.488281 14.90625 13.304688 13.457031 9.984375 12.46875 C 9.734375 12.34375 9.453125 12.265625 9.140625 12.234375 C 8.835938 12.210938 8.5625 12.203125 8.3125 12.203125 C 7.507812 12.140625 6.847656 12.015625 6.328125 11.828125 C 5.804688 11.640625 5.421875 11.144531 5.171875 10.34375 C 4.867188 9.425781 4.945312 8.78125 5.40625 8.40625 C 5.863281 8.039062 6.429688 7.703125 7.109375 7.390625 C 7.296875 7.328125 7.484375 7.25 7.671875 7.15625 C 7.859375 7.0625 8.039062 6.984375 8.21875 6.921875 C 11.601562 4.890625 15.035156 3.101562 18.515625 1.5625 C 22.003906 0.03125 25.316406 -1.351562 28.453125 -2.59375 C 29.316406 -2.957031 30.148438 -3.367188 30.953125 -3.828125 C 31.753906 -4.296875 32.398438 -4.960938 32.890625 -5.828125 L 34.828125 -9.328125 C 35.628906 -10.804688 36.738281 -13.007812 38.15625 -15.9375 C 39.570312 -18.863281 41.140625 -22.203125 42.859375 -25.953125 C 44.585938 -29.710938 46.375 -33.625 48.21875 -37.6875 C 50.070312 -41.757812 51.84375 -45.671875 53.53125 -49.421875 C 55.226562 -53.179688 56.769531 -56.539062 58.15625 -59.5 C 59.539062 -62.457031 60.601562 -64.707031 61.34375 -66.25 C 62.457031 -68.457031 63.519531 -70.6875 64.53125 -72.9375 C 65.550781 -75.1875 66.582031 -77.453125 67.625 -79.734375 C 68.125 -80.722656 68.601562 -81.769531 69.0625 -82.875 C 69.519531 -83.976562 70.085938 -84.960938 70.765625 -85.828125 Z M 28.828125 1.203125 L 27.90625 1.390625 C 24.570312 2.128906 21.425781 3.175781 18.46875 4.53125 C 15.519531 5.882812 12.289062 7.578125 8.78125 9.609375 L 8.03125 9.984375 L 8.96875 10.25 C 11.175781 10.8125 13.066406 11.628906 14.640625 12.703125 C 16.210938 13.785156 17.675781 15.34375 19.03125 17.375 L 19.40625 17.921875 Z M 28.828125 1.203125 "/></g></g></g><g fill="#ffffff" fill-opacity="1"><g transform="translate(150.519618, 93.377357)"><g><path d="M 24.203125 -30.578125 C 23.460938 -30.515625 22.816406 -30.695312 22.265625 -31.125 C 21.710938 -31.5625 21.34375 -32.148438 21.15625 -32.890625 C 20.851562 -33.753906 20.914062 -34.429688 21.34375 -34.921875 C 21.769531 -35.410156 22.320312 -35.6875 23 -35.75 C 23.675781 -35.875 24.335938 -35.734375 24.984375 -35.328125 C 25.640625 -34.929688 26.085938 -34.363281 26.328125 -33.625 C 26.640625 -32.769531 26.5625 -32.0625 26.09375 -31.5 C 25.632812 -30.945312 25.003906 -30.640625 24.203125 -30.578125 Z M 17.375 -31.40625 C 16.757812 -31.40625 16.203125 -31.617188 15.703125 -32.046875 C 15.210938 -32.484375 14.90625 -33.007812 14.78125 -33.625 C 14.65625 -34.488281 14.835938 -35.132812 15.328125 -35.5625 C 15.828125 -36 16.476562 -36.25 17.28125 -36.3125 C 17.832031 -36.3125 18.289062 -36.125 18.65625 -35.75 C 19.03125 -35.382812 19.3125 -34.957031 19.5 -34.46875 C 19.5 -33.664062 19.359375 -32.96875 19.078125 -32.375 C 18.796875 -31.789062 18.226562 -31.46875 17.375 -31.40625 Z M 52.109375 -14.59375 C 52.359375 -14.414062 52.484375 -14.234375 52.484375 -14.046875 C 52.535156 -13.859375 52.347656 -13.550781 51.921875 -13.125 C 49.085938 -10.351562 45.960938 -7.703125 42.546875 -5.171875 C 39.128906 -2.648438 35.140625 -0.769531 30.578125 0.46875 C 29.535156 0.769531 28.519531 0.921875 27.53125 0.921875 C 25.75 0.921875 24.238281 0.367188 23 -0.734375 C 21.21875 -2.273438 20.109375 -4.925781 19.671875 -8.6875 L 19.59375 -9.328125 L 16.90625 -7.109375 C 16.039062 -6.367188 15.175781 -5.628906 14.3125 -4.890625 C 13.457031 -4.148438 12.597656 -3.441406 11.734375 -2.765625 C 9.515625 -0.984375 7.113281 0.304688 4.53125 1.109375 C 3.726562 1.359375 3.050781 1.484375 2.5 1.484375 C 1.382812 1.484375 0.394531 1.113281 -0.46875 0.375 C -2 -0.925781 -2.675781 -2.5 -2.5 -4.34375 C -1.632812 -11.914062 1.722656 -19.429688 7.578125 -26.890625 C 8.003906 -27.503906 8.46875 -27.8125 8.96875 -27.8125 C 9.332031 -27.8125 9.703125 -27.65625 10.078125 -27.34375 C 10.503906 -26.976562 10.6875 -26.609375 10.625 -26.234375 C 10.5625 -25.867188 10.40625 -25.441406 10.15625 -24.953125 C 9.726562 -24.023438 9.253906 -23.082031 8.734375 -22.125 C 8.210938 -21.175781 7.671875 -20.207031 7.109375 -19.21875 C 5.753906 -16.75 4.460938 -14.238281 3.234375 -11.6875 C 2.003906 -9.132812 1.265625 -6.378906 1.015625 -3.421875 C 1.015625 -3.171875 1.03125 -2.890625 1.0625 -2.578125 C 1.09375 -2.273438 1.234375 -2 1.484375 -1.75 C 1.785156 -1.445312 2.125 -1.265625 2.5 -1.203125 C 2.675781 -1.203125 2.859375 -1.203125 3.046875 -1.203125 C 3.722656 -1.203125 4.382812 -1.335938 5.03125 -1.609375 C 5.675781 -1.890625 6.28125 -2.1875 6.84375 -2.5 C 14.476562 -6.4375 19.773438 -11.609375 22.734375 -18.015625 C 22.796875 -18.140625 22.851562 -18.289062 22.90625 -18.46875 C 22.96875 -18.65625 23.03125 -18.84375 23.09375 -19.03125 C 23.28125 -19.582031 23.492188 -20.101562 23.734375 -20.59375 C 23.984375 -21.09375 24.359375 -21.34375 24.859375 -21.34375 C 25.222656 -21.34375 25.617188 -21.1875 26.046875 -20.875 C 26.609375 -20.570312 26.976562 -20.234375 27.15625 -19.859375 C 27.34375 -19.429688 27.359375 -19 27.203125 -18.5625 C 27.054688 -18.132812 26.859375 -17.707031 26.609375 -17.28125 C 26.546875 -17.03125 26.46875 -16.8125 26.375 -16.625 C 26.28125 -16.445312 26.203125 -16.265625 26.140625 -16.078125 C 25.960938 -15.585938 25.78125 -15.078125 25.59375 -14.546875 C 25.40625 -14.023438 25.21875 -13.519531 25.03125 -13.03125 C 24.664062 -11.976562 24.3125 -10.894531 23.96875 -9.78125 C 23.632812 -8.675781 23.40625 -7.539062 23.28125 -6.375 C 23.09375 -4.59375 23.398438 -3.269531 24.203125 -2.40625 C 25.003906 -1.601562 26.390625 -1.171875 28.359375 -1.109375 C 30.453125 -1.109375 32.300781 -1.460938 33.90625 -2.171875 C 35.507812 -2.878906 37.019531 -3.664062 38.4375 -4.53125 C 43.664062 -7.601562 47.757812 -10.773438 50.71875 -14.046875 C 50.78125 -14.109375 50.875 -14.226562 51 -14.40625 C 51.25 -14.71875 51.429688 -14.875 51.546875 -14.875 C 51.671875 -14.875 51.859375 -14.78125 52.109375 -14.59375 Z M 52.109375 -14.59375 "/></g></g></g><g fill="#ffffff" fill-opacity="1"><g transform="translate(200.314367, 93.377357)"><g><path d="M 31.40625 -16.359375 L 31.59375 -15.984375 C 31.59375 -15.734375 31.300781 -15.546875 30.71875 -15.421875 C 30.132812 -15.304688 29.65625 -15.21875 29.28125 -15.15625 C 28.914062 -15.09375 28.703125 -15.0625 28.640625 -15.0625 C 27.773438 -14.8125 26.910156 -14.578125 26.046875 -14.359375 C 25.191406 -14.148438 24.332031 -13.890625 23.46875 -13.578125 C 20.207031 -12.597656 17.40625 -11.519531 15.0625 -10.34375 C 13.269531 -9.425781 11.601562 -8.347656 10.0625 -7.109375 C 8.53125 -5.878906 7.546875 -4.003906 7.109375 -1.484375 C 6.253906 3.140625 3.515625 7.453125 -1.109375 11.453125 C -2.890625 12.992188 -4.707031 13.765625 -6.5625 13.765625 C -7.851562 13.765625 -8.960938 13.363281 -9.890625 12.5625 C -11.117188 11.519531 -11.734375 10.132812 -11.734375 8.40625 C -11.734375 6.6875 -11.085938 5.054688 -9.796875 3.515625 C -8.191406 1.484375 -6.296875 -0.269531 -4.109375 -1.75 C -1.921875 -3.226562 0.3125 -4.554688 2.59375 -5.734375 C 4.007812 -6.472656 4.773438 -7.363281 4.890625 -8.40625 C 5.015625 -9.457031 4.523438 -10.8125 3.421875 -12.46875 C 2.984375 -13.019531 2.578125 -13.585938 2.203125 -14.171875 C 1.835938 -14.765625 1.472656 -15.367188 1.109375 -15.984375 L 0.46875 -17.09375 C -0.945312 -19.375 -0.945312 -21.222656 0.46875 -22.640625 C 5.207031 -27.441406 11.148438 -30.054688 18.296875 -30.484375 L 18.75 -30.484375 C 20.351562 -30.484375 21.585938 -29.992188 22.453125 -29.015625 C 23.378906 -27.960938 23.65625 -26.546875 23.28125 -24.765625 C 22.851562 -22.910156 21.710938 -21.304688 19.859375 -19.953125 C 19.734375 -19.828125 19.5625 -19.703125 19.34375 -19.578125 C 19.132812 -19.460938 18.90625 -19.40625 18.65625 -19.40625 C 18.414062 -19.40625 18.140625 -19.523438 17.828125 -19.765625 C 17.460938 -20.015625 17.3125 -20.289062 17.375 -20.59375 C 17.4375 -20.90625 17.554688 -21.28125 17.734375 -21.71875 C 18.109375 -22.394531 18.460938 -23.054688 18.796875 -23.703125 C 19.140625 -24.347656 19.492188 -24.976562 19.859375 -25.59375 C 20.046875 -25.957031 20.1875 -26.320312 20.28125 -26.6875 C 20.375 -27.0625 20.265625 -27.5 19.953125 -28 C 19.585938 -28.550781 19.066406 -28.828125 18.390625 -28.828125 C 18.265625 -28.828125 18.046875 -28.796875 17.734375 -28.734375 L 17.46875 -28.734375 C 11.550781 -28.117188 6.804688 -25.867188 3.234375 -21.984375 C 2.066406 -20.691406 2.222656 -19.1875 3.703125 -17.46875 C 4.492188 -16.539062 5.226562 -15.519531 5.90625 -14.40625 C 6.582031 -13.238281 7.226562 -12.269531 7.84375 -11.5 C 8.46875 -10.726562 9.269531 -10.34375 10.25 -10.34375 C 10.8125 -10.34375 11.488281 -10.53125 12.28125 -10.90625 C 14.625 -11.945312 17.007812 -12.867188 19.4375 -13.671875 C 21.875 -14.472656 24.171875 -15.179688 26.328125 -15.796875 C 26.703125 -15.921875 27.273438 -16.070312 28.046875 -16.25 C 28.816406 -16.4375 29.539062 -16.53125 30.21875 -16.53125 C 30.582031 -16.53125 30.859375 -16.5 31.046875 -16.4375 C 31.234375 -16.382812 31.351562 -16.359375 31.40625 -16.359375 Z M -4.0625 11.265625 C 0.863281 8.679688 3.878906 3.878906 4.984375 -3.140625 L 4.4375 -3.421875 C 4.375 -3.171875 4.035156 -2.875 3.421875 -2.53125 C 2.804688 -2.195312 2.25 -1.90625 1.75 -1.65625 C 1.132812 -1.351562 0.765625 -1.140625 0.640625 -1.015625 C -0.835938 0.0234375 -2.160156 1.039062 -3.328125 2.03125 L -3.96875 2.59375 C -4.957031 3.445312 -5.988281 4.441406 -7.0625 5.578125 C -8.144531 6.722656 -8.75 7.941406 -8.875 9.234375 C -8.9375 10.035156 -8.75 10.679688 -8.3125 11.171875 C -7.882812 11.609375 -7.238281 11.828125 -6.375 11.828125 C -5.882812 11.828125 -5.4375 11.765625 -5.03125 11.640625 C -4.632812 11.515625 -4.3125 11.390625 -4.0625 11.265625 Z M -4.0625 11.265625 "/></g></g></g><g fill="#ffffff" fill-opacity="1"><g transform="translate(229.230429, 93.377357)"><g><path d="M 31.59375 -13.671875 C 32.03125 -13.921875 32.523438 -14.046875 33.078125 -14.046875 C 33.140625 -13.734375 33.015625 -13.4375 32.703125 -13.15625 C 32.398438 -12.882812 32.125 -12.625 31.875 -12.375 L 31.328125 -11.921875 C 29.109375 -10.253906 26.859375 -8.632812 24.578125 -7.0625 C 22.296875 -5.5 19.84375 -4.207031 17.21875 -3.1875 C 14.601562 -2.164062 11.695312 -1.65625 8.5 -1.65625 L 8.125 -1.65625 C 4.988281 -1.65625 2.554688 -2.613281 0.828125 -4.53125 C -0.710938 -6.3125 -1.234375 -8.46875 -0.734375 -11 C 0.984375 -19.4375 6.460938 -24.882812 15.703125 -27.34375 C 16.203125 -27.46875 16.695312 -27.53125 17.1875 -27.53125 C 18.664062 -27.53125 19.863281 -26.882812 20.78125 -25.59375 C 21.519531 -24.601562 21.75 -23.753906 21.46875 -23.046875 C 21.195312 -22.335938 20.785156 -21.613281 20.234375 -20.875 C 17.765625 -17.863281 13.695312 -15.925781 8.03125 -15.0625 C 6 -14.75 4.675781 -13.945312 4.0625 -12.65625 C 3.445312 -11.363281 2.984375 -9.976562 2.671875 -8.5 L 2.59375 -7.859375 C 2.40625 -6.992188 2.554688 -6.191406 3.046875 -5.453125 C 3.722656 -4.523438 4.800781 -3.847656 6.28125 -3.421875 C 7.394531 -3.109375 8.566406 -2.953125 9.796875 -2.953125 C 10.773438 -2.953125 11.726562 -3.046875 12.65625 -3.234375 C 13.582031 -3.421875 14.566406 -3.664062 15.609375 -3.96875 C 18.878906 -4.894531 22.144531 -6.46875 25.40625 -8.6875 C 26.820312 -9.613281 28.238281 -10.722656 29.65625 -12.015625 C 29.78125 -12.078125 29.90625 -12.164062 30.03125 -12.28125 C 30.15625 -12.40625 30.273438 -12.53125 30.390625 -12.65625 C 30.578125 -12.84375 30.765625 -13.007812 30.953125 -13.15625 C 31.140625 -13.3125 31.351562 -13.484375 31.59375 -13.671875 Z M 9.140625 -18.390625 L 8.5 -17.640625 L 9.515625 -17.921875 C 11.671875 -18.410156 13.503906 -19.054688 15.015625 -19.859375 C 16.523438 -20.660156 17.832031 -21.957031 18.9375 -23.75 L 19.3125 -24.484375 L 18.484375 -24.203125 C 16.691406 -23.648438 15.023438 -22.957031 13.484375 -22.125 C 11.941406 -21.289062 10.492188 -20.046875 9.140625 -18.390625 Z M 9.140625 -18.390625 "/></g></g></g><g fill="#ffffff" fill-opacity="1"><g transform="translate(260.733215, 93.377357)"><g><path d="M 48.96875 -15.515625 C 49.09375 -15.398438 49.046875 -15.171875 48.828125 -14.828125 C 48.609375 -14.492188 48.410156 -14.234375 48.234375 -14.046875 C 47.609375 -13.546875 46.910156 -13.097656 46.140625 -12.703125 C 45.378906 -12.304688 44.597656 -11.921875 43.796875 -11.546875 C 43.421875 -11.359375 43.046875 -11.15625 42.671875 -10.9375 C 42.304688 -10.726562 41.972656 -10.53125 41.671875 -10.34375 C 40.441406 -9.664062 39.222656 -8.988281 38.015625 -8.3125 C 36.816406 -7.632812 35.632812 -6.925781 34.46875 -6.1875 C 29.351562 -3.050781 24.882812 0.0859375 21.0625 3.234375 C 19.707031 4.398438 18.660156 5.753906 17.921875 7.296875 L 15.703125 12.015625 C 13.734375 16.078125 11.734375 20.203125 9.703125 24.390625 C 7.671875 28.578125 5.453125 32.644531 3.046875 36.59375 C 2.066406 38.125 0.882812 39.828125 -0.5 41.703125 C -1.894531 43.585938 -3.578125 45.332031 -5.546875 46.9375 C -5.972656 47.238281 -6.445312 47.554688 -6.96875 47.890625 C -7.5 48.234375 -8.101562 48.46875 -8.78125 48.59375 C -9.332031 48.78125 -9.789062 48.875 -10.15625 48.875 C -11.082031 48.875 -11.882812 48.535156 -12.5625 47.859375 C -13.113281 47.367188 -13.421875 46.859375 -13.484375 46.328125 C -13.546875 45.804688 -13.546875 45.207031 -13.484375 44.53125 C -13.304688 43.113281 -12.953125 41.800781 -12.421875 40.59375 C -11.898438 39.394531 -11.363281 38.242188 -10.8125 37.140625 C -6.070312 28.148438 0.828125 19.4375 9.890625 11 C 12.785156 8.28125 15.03125 5.195312 16.625 1.75 C 17.675781 -0.40625 18.753906 -2.5625 19.859375 -4.71875 C 20.972656 -6.875 22.082031 -9.023438 23.1875 -11.171875 L 26.234375 -17.28125 L 25.40625 -17 C 23.375 -16.195312 21.539062 -15.195312 19.90625 -14 C 18.28125 -12.800781 16.726562 -11.550781 15.25 -10.25 C 14.632812 -9.695312 14 -9.160156 13.34375 -8.640625 C 12.695312 -8.117188 12.035156 -7.609375 11.359375 -7.109375 L 9.890625 -6 C 8.648438 -5.019531 7.351562 -4.082031 6 -3.1875 C 4.644531 -2.289062 3.171875 -1.566406 1.578125 -1.015625 C 0.890625 -0.828125 0.269531 -0.734375 -0.28125 -0.734375 C -1.195312 -0.734375 -2.085938 -1.070312 -2.953125 -1.75 C -4.367188 -2.800781 -4.984375 -4.25 -4.796875 -6.09375 C -4.429688 -8.925781 -3.476562 -11.328125 -1.9375 -13.296875 C -0.394531 -15.273438 1.296875 -17.0625 3.140625 -18.65625 C 3.453125 -18.96875 3.820312 -19.125 4.25 -19.125 C 4.675781 -19.125 5.109375 -18.941406 5.546875 -18.578125 C 5.972656 -18.140625 6.171875 -17.75 6.140625 -17.40625 C 6.109375 -17.070312 5.941406 -16.691406 5.640625 -16.265625 C 5.328125 -15.828125 5.03125 -15.394531 4.75 -14.96875 C 4.476562 -14.539062 4.1875 -14.109375 3.875 -13.671875 C 3.445312 -13.054688 3.015625 -12.457031 2.578125 -11.875 C 2.148438 -11.289062 1.753906 -10.691406 1.390625 -10.078125 C 1.265625 -9.890625 1.125 -9.6875 0.96875 -9.46875 C 0.8125 -9.25 0.644531 -9.050781 0.46875 -8.875 C 0.09375 -8.375 -0.273438 -7.847656 -0.640625 -7.296875 C -1.015625 -6.742188 -1.265625 -6.128906 -1.390625 -5.453125 C -1.566406 -4.648438 -1.472656 -4.035156 -1.109375 -3.609375 C -0.679688 -3.171875 -0.0351562 -2.953125 0.828125 -2.953125 C 1.265625 -2.953125 1.726562 -3 2.21875 -3.09375 C 2.707031 -3.1875 3.109375 -3.296875 3.421875 -3.421875 C 4.160156 -3.722656 4.835938 -4.070312 5.453125 -4.46875 C 6.066406 -4.875 6.679688 -5.296875 7.296875 -5.734375 C 8.710938 -6.773438 10.128906 -7.832031 11.546875 -8.90625 C 12.960938 -9.988281 14.347656 -11.054688 15.703125 -12.109375 C 16.816406 -12.960938 17.941406 -13.835938 19.078125 -14.734375 C 20.210938 -15.628906 21.335938 -16.476562 22.453125 -17.28125 C 22.640625 -17.40625 22.851562 -17.585938 23.09375 -17.828125 C 23.46875 -18.140625 23.851562 -18.429688 24.25 -18.703125 C 24.65625 -18.984375 25.101562 -19.125 25.59375 -19.125 C 26.082031 -19.125 26.632812 -18.878906 27.25 -18.390625 C 27.925781 -17.773438 28.203125 -17.125 28.078125 -16.4375 C 27.960938 -15.757812 27.75 -15.082031 27.4375 -14.40625 C 27.25 -14.039062 27.128906 -13.765625 27.078125 -13.578125 C 26.828125 -12.835938 26.578125 -12.113281 26.328125 -11.40625 C 26.085938 -10.695312 25.8125 -10.003906 25.5 -9.328125 C 25.070312 -8.160156 24.640625 -6.972656 24.203125 -5.765625 C 23.773438 -4.566406 23.375 -3.320312 23 -2.03125 L 23.5625 -1.75 C 23.625 -2 23.882812 -2.242188 24.34375 -2.484375 C 24.800781 -2.734375 25.21875 -2.921875 25.59375 -3.046875 C 26.019531 -3.296875 26.296875 -3.453125 26.421875 -3.515625 L 29.5625 -5.453125 C 32.644531 -7.421875 35.785156 -9.238281 38.984375 -10.90625 C 40.648438 -11.769531 42.285156 -12.566406 43.890625 -13.296875 C 44.066406 -13.421875 44.28125 -13.546875 44.53125 -13.671875 C 44.78125 -13.796875 44.992188 -13.921875 45.171875 -14.046875 C 45.796875 -14.285156 46.382812 -14.546875 46.9375 -14.828125 C 47.488281 -15.109375 48.070312 -15.335938 48.6875 -15.515625 C 48.8125 -15.515625 48.90625 -15.515625 48.96875 -15.515625 Z M -7.765625 45 C -3.691406 40.8125 -0.332031 36.097656 2.3125 30.859375 C 4.957031 25.617188 7.453125 20.351562 9.796875 15.0625 L 9.328125 14.5 C 3.421875 19.488281 -1.71875 25.035156 -6.09375 31.140625 C -7.207031 32.734375 -8.285156 34.40625 -9.328125 36.15625 C -10.378906 37.914062 -11.179688 39.875 -11.734375 42.03125 C -11.796875 42.21875 -11.859375 42.46875 -11.921875 42.78125 C -12.109375 43.332031 -12.226562 43.914062 -12.28125 44.53125 C -12.34375 45.144531 -12.035156 45.726562 -11.359375 46.28125 C -10.929688 46.59375 -10.503906 46.75 -10.078125 46.75 C -9.640625 46.75 -9.265625 46.609375 -8.953125 46.328125 C -8.648438 46.054688 -8.375 45.765625 -8.125 45.453125 C -7.945312 45.210938 -7.828125 45.0625 -7.765625 45 Z M -7.765625 45 "/></g></g></g><g fill="#ffffff" fill-opacity="1"><g transform="translate(306.925005, 93.377357)"><g><path d="M 32.15625 -14.6875 C 32.332031 -14.5625 32.421875 -14.285156 32.421875 -13.859375 C 32.421875 -13.429688 32.160156 -13.03125 31.640625 -12.65625 C 31.117188 -12.289062 30.703125 -11.984375 30.390625 -11.734375 C 29.347656 -10.804688 28.269531 -9.910156 27.15625 -9.046875 C 26.050781 -8.191406 24.945312 -7.363281 23.84375 -6.5625 C 21.5 -4.894531 19.015625 -3.414062 16.390625 -2.125 C 13.773438 -0.832031 10.988281 0.210938 8.03125 1.015625 C 6.800781 1.328125 5.507812 1.484375 4.15625 1.484375 C 2.800781 1.484375 1.445312 0.863281 0.09375 -0.375 C -1.257812 -1.539062 -2.015625 -2.785156 -2.171875 -4.109375 C -2.328125 -5.429688 -2.21875 -6.710938 -1.84375 -7.953125 C -0.738281 -12.140625 0.828125 -16.046875 2.859375 -19.671875 C 4.890625 -23.304688 7.320312 -26.664062 10.15625 -29.75 C 10.46875 -30.175781 10.851562 -30.570312 11.3125 -30.9375 C 11.78125 -31.3125 12.414062 -31.191406 13.21875 -30.578125 C 14.070312 -29.898438 14.34375 -29.300781 14.03125 -28.78125 C 13.726562 -28.257812 13.457031 -27.78125 13.21875 -27.34375 C 11.238281 -24.207031 9.328125 -21.066406 7.484375 -17.921875 C 5.640625 -14.785156 4.007812 -11.488281 2.59375 -8.03125 C 2.34375 -7.414062 2.03125 -6.769531 1.65625 -6.09375 C 1.289062 -5.414062 1.109375 -4.722656 1.109375 -4.015625 C 1.109375 -3.304688 1.445312 -2.613281 2.125 -1.9375 C 3.226562 -0.769531 4.457031 -0.273438 5.8125 -0.453125 C 7.175781 -0.640625 8.410156 -0.859375 9.515625 -1.109375 C 11.921875 -1.660156 14.140625 -2.488281 16.171875 -3.59375 C 18.203125 -4.707031 20.140625 -5.941406 21.984375 -7.296875 C 22.234375 -7.484375 22.847656 -8.003906 23.828125 -8.859375 C 24.816406 -9.722656 25.894531 -10.648438 27.0625 -11.640625 C 28.238281 -12.628906 29.316406 -13.429688 30.296875 -14.046875 C 31.285156 -14.660156 31.90625 -14.875 32.15625 -14.6875 Z M 17.28125 -34.921875 C 15.863281 -34.796875 14.96875 -35.441406 14.59375 -36.859375 C 14.289062 -38.097656 14.414062 -38.976562 14.96875 -39.5 C 15.519531 -40.019531 16.320312 -40.3125 17.375 -40.375 C 18.113281 -40.4375 18.757812 -40.28125 19.3125 -39.90625 C 19.863281 -39.539062 20.265625 -38.894531 20.515625 -37.96875 C 20.578125 -36.925781 20.296875 -36.1875 19.671875 -35.75 C 19.054688 -35.320312 18.257812 -35.046875 17.28125 -34.921875 Z M 17.28125 -34.921875 "/></g></g></g><g fill="#ffffff" fill-opacity="1"><g transform="translate(337.411593, 93.377357)"><g><path d="M 50.90625 -15.515625 C 51.28125 -15.273438 51.492188 -15.03125 51.546875 -14.78125 C 51.609375 -14.53125 51.5625 -14.296875 51.40625 -14.078125 C 51.257812 -13.867188 51.09375 -13.671875 50.90625 -13.484375 C 50.65625 -13.242188 50.5 -13.0625 50.4375 -12.9375 C 45.332031 -5.050781 38.097656 1.539062 28.734375 6.84375 C 27.742188 7.394531 26.484375 7.671875 24.953125 7.671875 L 24.765625 7.671875 C 23.222656 7.671875 22.050781 7.269531 21.25 6.46875 C 20.382812 5.664062 19.953125 4.460938 19.953125 2.859375 C 19.953125 1.441406 20.226562 0.164062 20.78125 -0.96875 C 21.34375 -2.101562 21.929688 -3.195312 22.546875 -4.25 L 23.46875 -5.734375 C 23.65625 -6.097656 23.851562 -6.460938 24.0625 -6.828125 C 24.28125 -7.203125 24.484375 -7.578125 24.671875 -7.953125 L 24.765625 -8.21875 C 24.890625 -8.46875 24.992188 -8.773438 25.078125 -9.140625 C 25.171875 -9.515625 25.003906 -9.914062 24.578125 -10.34375 C 24.085938 -10.84375 23.503906 -11.09375 22.828125 -11.09375 C 22.578125 -11.09375 22.296875 -11.03125 21.984375 -10.90625 C 20.753906 -10.65625 19.535156 -10.359375 18.328125 -10.015625 C 17.128906 -9.679688 15.914062 -9.332031 14.6875 -8.96875 C 13.144531 -8.40625 11.648438 -7.753906 10.203125 -7.015625 C 8.753906 -6.273438 7.351562 -5.507812 6 -4.71875 C 5.382812 -4.40625 4.785156 -4.078125 4.203125 -3.734375 C 3.617188 -3.398438 3.019531 -3.078125 2.40625 -2.765625 L 2.03125 -2.59375 C 1.78125 -2.40625 1.5 -2.25 1.1875 -2.125 C 0.882812 -2 0.582031 -1.9375 0.28125 -1.9375 C -0.269531 -1.9375 -0.859375 -2.179688 -1.484375 -2.671875 C -2.160156 -3.296875 -2.5 -3.867188 -2.5 -4.390625 C -2.5 -4.910156 -2.4375 -5.445312 -2.3125 -6 L -2.21875 -6.375 C -1.101562 -11.425781 0.773438 -15.921875 3.421875 -19.859375 L 3.609375 -20.140625 C 3.722656 -20.390625 3.875 -20.617188 4.0625 -20.828125 C 4.25 -21.046875 4.46875 -21.15625 4.71875 -21.15625 C 4.894531 -21.15625 5.078125 -21.09375 5.265625 -20.96875 C 5.691406 -20.789062 5.96875 -20.546875 6.09375 -20.234375 C 6.40625 -19.617188 6.421875 -18.894531 6.140625 -18.0625 C 5.867188 -17.226562 5.578125 -16.535156 5.265625 -15.984375 C 5.078125 -15.609375 4.984375 -15.363281 4.984375 -15.25 L 1.75 -6.84375 C 1.6875 -6.71875 1.625 -6.515625 1.5625 -6.234375 C 1.507812 -5.960938 1.601562 -5.734375 1.84375 -5.546875 C 2.09375 -5.359375 2.398438 -5.265625 2.765625 -5.265625 C 3.140625 -5.265625 3.570312 -5.34375 4.0625 -5.5 C 4.550781 -5.65625 4.890625 -5.789062 5.078125 -5.90625 C 5.390625 -6.03125 5.664062 -6.171875 5.90625 -6.328125 C 6.15625 -6.484375 6.40625 -6.65625 6.65625 -6.84375 C 6.957031 -7.082031 7.25 -7.296875 7.53125 -7.484375 C 7.8125 -7.671875 8.101562 -7.828125 8.40625 -7.953125 C 9.394531 -8.441406 10.394531 -8.898438 11.40625 -9.328125 C 12.425781 -9.765625 13.457031 -10.195312 14.5 -10.625 C 17.03125 -11.675781 19.40625 -12.351562 21.625 -12.65625 C 21.988281 -12.71875 22.328125 -12.75 22.640625 -12.75 C 24.234375 -12.75 25.492188 -12.222656 26.421875 -11.171875 C 27.472656 -10.003906 27.75 -8.5625 27.25 -6.84375 C 27.007812 -5.789062 26.6875 -4.769531 26.28125 -3.78125 C 25.882812 -2.800781 25.5 -1.816406 25.125 -0.828125 C 24.882812 -0.273438 24.65625 0.273438 24.4375 0.828125 C 24.21875 1.378906 23.988281 1.9375 23.75 2.5 L 23.65625 2.859375 C 23.46875 3.171875 23.34375 3.539062 23.28125 3.96875 C 23.21875 4.40625 23.375 4.804688 23.75 5.171875 C 24.238281 5.660156 24.789062 5.90625 25.40625 5.90625 C 25.65625 5.90625 25.898438 5.875 26.140625 5.8125 C 26.390625 5.757812 26.640625 5.703125 26.890625 5.640625 C 29.785156 4.773438 32.3125 3.492188 34.46875 1.796875 C 36.625 0.109375 38.5625 -1.597656 40.28125 -3.328125 C 41.695312 -4.742188 43.21875 -6.328125 44.84375 -8.078125 C 46.476562 -9.835938 47.851562 -11.828125 48.96875 -14.046875 L 49.15625 -14.234375 C 49.28125 -14.535156 49.445312 -14.851562 49.65625 -15.1875 C 49.875 -15.53125 50.132812 -15.703125 50.4375 -15.703125 C 50.5625 -15.703125 50.71875 -15.640625 50.90625 -15.515625 Z M 50.90625 -15.515625 "/></g></g></g><g fill="#ffffff" fill-opacity="1"><g transform="translate(386.282512, 93.377357)"><g/></g></g><g fill="#ffffff" fill-opacity="1"><g transform="translate(413.997601, 93.377357)"><g><path d="M 94.328125 -83.25 C 93.222656 -83.125 92.253906 -83.382812 91.421875 -84.03125 C 90.585938 -84.675781 90.019531 -85.519531 89.71875 -86.5625 C 89.28125 -87.925781 89.382812 -88.988281 90.03125 -89.75 C 90.675781 -90.519531 91.523438 -90.9375 92.578125 -91 C 93.617188 -91.125 94.601562 -90.894531 95.53125 -90.3125 C 96.457031 -89.726562 97.101562 -88.878906 97.46875 -87.765625 C 97.96875 -86.472656 97.863281 -85.410156 97.15625 -84.578125 C 96.445312 -83.753906 95.503906 -83.3125 94.328125 -83.25 Z M 83.984375 -84.4375 C 83.054688 -84.4375 82.222656 -84.757812 81.484375 -85.40625 C 80.742188 -86.0625 80.285156 -86.847656 80.109375 -87.765625 C 79.921875 -89.066406 80.195312 -90.039062 80.9375 -90.6875 C 81.675781 -91.332031 82.660156 -91.6875 83.890625 -91.75 C 84.691406 -91.8125 85.367188 -91.5625 85.921875 -91 C 86.472656 -90.445312 86.90625 -89.769531 87.21875 -88.96875 C 87.28125 -87.800781 87.078125 -86.769531 86.609375 -85.875 C 86.148438 -84.976562 85.273438 -84.5 83.984375 -84.4375 Z M 121.859375 -14.96875 C 122.109375 -14.65625 122.140625 -14.390625 121.953125 -14.171875 C 121.765625 -13.960938 121.582031 -13.796875 121.40625 -13.671875 L 121.21875 -13.390625 C 112.039062 -4.953125 101.539062 0.15625 89.71875 1.9375 C 88.476562 2.0625 87.550781 2.429688 86.9375 3.046875 C 86.320312 3.660156 85.800781 4.367188 85.375 5.171875 C 80.320312 13.796875 74.898438 20.847656 69.109375 26.328125 C 67.203125 28.117188 65.140625 29.691406 62.921875 31.046875 C 61.003906 32.148438 59.21875 32.703125 57.5625 32.703125 C 56.082031 32.703125 54.570312 32.242188 53.03125 31.328125 C 51.125 30.210938 49.800781 28.773438 49.0625 27.015625 C 48.320312 25.265625 47.765625 23.523438 47.390625 21.796875 C 46.535156 17.796875 46.195312 13.914062 46.375 10.15625 C 46.5625 6.40625 46.929688 2.773438 47.484375 -0.734375 C 47.609375 -1.472656 47.734375 -2.210938 47.859375 -2.953125 C 47.984375 -3.691406 48.109375 -4.429688 48.234375 -5.171875 C 48.722656 -7.816406 49.101562 -10.539062 49.375 -13.34375 C 49.65625 -16.144531 49.394531 -19.242188 48.59375 -22.640625 C 47.363281 -27.992188 47.222656 -32.859375 48.171875 -37.234375 C 49.128906 -41.609375 50.71875 -45.597656 52.9375 -49.203125 C 55.15625 -52.804688 57.585938 -56.113281 60.234375 -59.125 C 66.515625 -66.457031 73.535156 -70.988281 81.296875 -72.71875 C 82.960938 -73.082031 84.597656 -73.265625 86.203125 -73.265625 C 91.191406 -73.265625 95.472656 -71.601562 99.046875 -68.28125 C 102.921875 -64.582031 104.953125 -59.742188 105.140625 -53.765625 C 105.328125 -48.660156 104.941406 -43.828125 103.984375 -39.265625 C 103.023438 -34.703125 101.773438 -30.359375 100.234375 -26.234375 C 98.703125 -22.109375 97.132812 -18.140625 95.53125 -14.328125 C 94.851562 -12.847656 94.160156 -11.351562 93.453125 -9.84375 C 92.742188 -8.332031 91.988281 -6.804688 91.1875 -5.265625 C 90.820312 -4.523438 90.453125 -3.769531 90.078125 -3 C 89.710938 -2.226562 89.34375 -1.441406 88.96875 -0.640625 L 88.6875 0 L 89.4375 -0.09375 C 95.039062 -0.769531 100.132812 -2.289062 104.71875 -4.65625 C 109.3125 -7.03125 113.765625 -9.664062 118.078125 -12.5625 C 118.140625 -12.625 118.320312 -12.78125 118.625 -13.03125 C 119 -13.332031 119.523438 -13.726562 120.203125 -14.21875 C 120.878906 -14.71875 121.429688 -14.96875 121.859375 -14.96875 Z M 83.421875 3.703125 L 83.796875 3.140625 L 83.0625 3.140625 C 77.632812 2.773438 72.640625 1.867188 68.078125 0.421875 C 63.523438 -1.023438 59.1875 -3.816406 55.0625 -7.953125 L 54.609375 -8.3125 L 54.515625 -7.859375 C 53.035156 -2.617188 51.984375 2.398438 51.359375 7.203125 C 50.742188 12.003906 50.867188 16.960938 51.734375 22.078125 C 52.234375 25.222656 53.160156 27.347656 54.515625 28.453125 C 55.253906 29.128906 56.144531 29.46875 57.1875 29.46875 C 58.414062 29.46875 59.894531 28.976562 61.625 28 C 66.425781 25.226562 70.488281 21.726562 73.8125 17.5 C 77.144531 13.28125 80.347656 8.679688 83.421875 3.703125 Z M 81.390625 0.921875 C 84.597656 0.921875 86.691406 -0.429688 87.671875 -3.140625 C 88.046875 -4.066406 88.460938 -4.972656 88.921875 -5.859375 C 89.390625 -6.753906 89.835938 -7.601562 90.265625 -8.40625 C 90.691406 -9.144531 91.101562 -9.882812 91.5 -10.625 C 91.90625 -11.363281 92.265625 -12.101562 92.578125 -12.84375 L 93.21875 -14.40625 C 94.882812 -18.351562 96.5 -22.359375 98.0625 -26.421875 C 99.632812 -30.484375 100.867188 -34.71875 101.765625 -39.125 C 102.660156 -43.53125 102.984375 -48.195312 102.734375 -53.125 C 102.429688 -58.914062 100.675781 -63.347656 97.46875 -66.421875 C 95.007812 -68.703125 92.054688 -69.84375 88.609375 -69.84375 C 86.453125 -69.84375 84.203125 -69.382812 81.859375 -68.46875 C 65.160156 -61.9375 55.03125 -49.398438 51.46875 -30.859375 C 51.09375 -29.191406 50.984375 -27.445312 51.140625 -25.625 C 51.296875 -23.8125 51.492188 -22.015625 51.734375 -20.234375 L 51.828125 -19.59375 L 52.296875 -19.859375 C 53.035156 -20.234375 53.539062 -20.695312 53.8125 -21.25 C 54.09375 -21.800781 54.328125 -22.351562 54.515625 -22.90625 C 54.628906 -23.09375 54.71875 -23.28125 54.78125 -23.46875 C 54.84375 -23.65625 54.90625 -23.804688 54.96875 -23.921875 C 57.25 -28.421875 59.757812 -32.945312 62.5 -37.5 C 65.238281 -42.0625 68.457031 -46.285156 72.15625 -50.171875 C 72.34375 -50.347656 72.554688 -50.625 72.796875 -51 C 73.171875 -51.425781 73.554688 -51.835938 73.953125 -52.234375 C 74.359375 -52.640625 74.804688 -52.84375 75.296875 -52.84375 C 75.671875 -52.84375 76.101562 -52.660156 76.59375 -52.296875 C 76.894531 -51.984375 77.078125 -51.675781 77.140625 -51.375 C 77.265625 -51 77.1875 -50.578125 76.90625 -50.109375 C 76.632812 -49.648438 76.3125 -49.207031 75.9375 -48.78125 C 75.632812 -48.351562 75.421875 -48.046875 75.296875 -47.859375 L 74 -45.828125 C 70.925781 -40.960938 67.894531 -36.003906 64.90625 -30.953125 C 61.914062 -25.898438 59.25 -20.632812 56.90625 -15.15625 C 56.164062 -13.300781 56.132812 -11.710938 56.8125 -10.390625 C 57.5 -9.066406 58.578125 -7.789062 60.046875 -6.5625 C 63.253906 -3.914062 66.519531 -2.113281 69.84375 -1.15625 C 73.175781 -0.195312 76.441406 0.429688 79.640625 0.734375 C 80.253906 0.859375 80.835938 0.921875 81.390625 0.921875 Z M 81.390625 0.921875 "/></g></g></g><g fill="#ffffff" fill-opacity="1"><g transform="translate(533.726743, 93.377357)"><g><path d="M 43.890625 -17.375 C 43.890625 -17.4375 43.921875 -17.4375 43.984375 -17.375 C 44.035156 -17.375 44.003906 -17.28125 43.890625 -17.09375 C 43.390625 -16.289062 42.800781 -15.566406 42.125 -14.921875 C 41.445312 -14.273438 40.707031 -13.675781 39.90625 -13.125 L 38.890625 -12.28125 C 36.921875 -10.75 34.890625 -8.960938 32.796875 -6.921875 C 31.191406 -5.453125 29.617188 -3.929688 28.078125 -2.359375 C 26.546875 -0.785156 25.039062 0.769531 23.5625 2.3125 L 21.25 4.71875 C 20.632812 5.332031 20.203125 6.007812 19.953125 6.75 C 19.710938 7.488281 19.5 8.316406 19.3125 9.234375 C 16.539062 26.296875 10.039062 40.460938 -0.1875 51.734375 C -1.351562 53.023438 -2.613281 53.953125 -3.96875 54.515625 C -4.707031 54.816406 -5.382812 54.96875 -6 54.96875 C -6.925781 54.96875 -7.664062 54.691406 -8.21875 54.140625 C -9.082031 53.335938 -9.578125 52.101562 -9.703125 50.4375 C -9.765625 48.46875 -9.53125 46.632812 -9 44.9375 C -8.476562 43.25 -7.757812 41.515625 -6.84375 39.734375 C -4.625 35.296875 -2.035156 31.148438 0.921875 27.296875 C 3.878906 23.453125 6.898438 19.710938 9.984375 16.078125 C 10.773438 15.085938 11.585938 14.082031 12.421875 13.0625 C 13.253906 12.050781 14.070312 11.054688 14.875 10.078125 C 15.125 9.828125 15.398438 9.484375 15.703125 9.046875 C 16.316406 8.367188 16.898438 7.613281 17.453125 6.78125 C 18.015625 5.957031 18.265625 4.929688 18.203125 3.703125 C 18.140625 1.910156 17.644531 0.550781 16.71875 -0.375 C 15.914062 -1.050781 14.929688 -1.390625 13.765625 -1.390625 C 13.335938 -1.390625 12.84375 -1.328125 12.28125 -1.203125 C 11.726562 -1.078125 11.191406 -0.921875 10.671875 -0.734375 C 10.148438 -0.554688 9.609375 -0.34375 9.046875 -0.09375 C 8.742188 0.03125 8.40625 0.15625 8.03125 0.28125 C 7.664062 0.40625 7.296875 0.523438 6.921875 0.640625 C 6.804688 0.703125 6.65625 0.78125 6.46875 0.875 C 6.28125 0.96875 6.125 1.046875 6 1.109375 C 5.757812 1.234375 5.515625 1.351562 5.265625 1.46875 C 5.015625 1.59375 4.769531 1.65625 4.53125 1.65625 C 4.34375 1.65625 4.109375 1.59375 3.828125 1.46875 C 3.554688 1.351562 3.265625 1.078125 2.953125 0.640625 C 2.460938 -0.0976562 2.320312 -0.664062 2.53125 -1.0625 C 2.75 -1.457031 3.140625 -1.875 3.703125 -2.3125 C 4.003906 -2.550781 4.21875 -2.734375 4.34375 -2.859375 C 4.832031 -3.359375 5.351562 -3.835938 5.90625 -4.296875 C 6.46875 -4.753906 6.992188 -5.234375 7.484375 -5.734375 C 8.347656 -6.472656 9.175781 -7.207031 9.96875 -7.9375 C 10.769531 -8.675781 11.539062 -9.414062 12.28125 -10.15625 C 16.414062 -14.40625 19.3125 -18.628906 20.96875 -22.828125 C 21.21875 -23.378906 21.40625 -24.039062 21.53125 -24.8125 C 21.65625 -25.582031 21.316406 -26.335938 20.515625 -27.078125 C 19.953125 -27.566406 19.332031 -27.8125 18.65625 -27.8125 C 18.289062 -27.8125 17.953125 -27.765625 17.640625 -27.671875 C 17.335938 -27.578125 17.03125 -27.46875 16.71875 -27.34375 L 16.265625 -27.15625 C 14.109375 -26.363281 12.226562 -25.257812 10.625 -23.84375 C 9.019531 -22.425781 7.476562 -20.945312 6 -19.40625 L 4.796875 -18.203125 C 4.492188 -17.828125 4.1875 -17.484375 3.875 -17.171875 C 3.570312 -16.867188 3.234375 -16.566406 2.859375 -16.265625 L 2.59375 -16.078125 C 2.21875 -15.765625 1.9375 -15.609375 1.75 -15.609375 C 1.507812 -15.609375 1.265625 -15.734375 1.015625 -15.984375 C 0.460938 -16.410156 0.367188 -16.992188 0.734375 -17.734375 C 4.304688 -24.816406 9.820312 -28.726562 17.28125 -29.46875 C 17.457031 -29.46875 17.640625 -29.46875 17.828125 -29.46875 C 19.117188 -29.46875 20.164062 -29.066406 20.96875 -28.265625 C 21.957031 -27.285156 22.390625 -25.898438 22.265625 -24.109375 C 22.140625 -22.265625 21.738281 -20.570312 21.0625 -19.03125 C 20.382812 -17.488281 19.675781 -16.070312 18.9375 -14.78125 C 16.476562 -10.65625 13.398438 -6.679688 9.703125 -2.859375 L 9.140625 -2.3125 L 10.078125 -2.40625 C 10.503906 -2.40625 10.898438 -2.40625 11.265625 -2.40625 C 13.546875 -2.40625 15.332031 -1.941406 16.625 -1.015625 C 17.925781 -0.0859375 18.851562 1.421875 19.40625 3.515625 L 19.953125 3.515625 C 20.015625 3.390625 20.289062 3.09375 20.78125 2.625 C 21.28125 2.164062 21.679688 1.816406 21.984375 1.578125 C 22.359375 1.265625 22.578125 1.078125 22.640625 1.015625 C 23.128906 0.523438 23.601562 0.0351562 24.0625 -0.453125 C 24.53125 -0.953125 25.007812 -1.476562 25.5 -2.03125 L 26.234375 -2.765625 C 27.035156 -3.628906 27.835938 -4.492188 28.640625 -5.359375 C 29.441406 -6.222656 30.273438 -7.085938 31.140625 -7.953125 C 34.035156 -10.898438 36.957031 -13.332031 39.90625 -15.25 C 40.15625 -15.425781 40.398438 -15.609375 40.640625 -15.796875 C 40.890625 -15.984375 41.140625 -16.171875 41.390625 -16.359375 L 41.859375 -16.71875 C 41.972656 -16.78125 42.257812 -16.90625 42.71875 -17.09375 C 43.1875 -17.28125 43.578125 -17.375 43.890625 -17.375 Z M -4.53125 51.09375 C 0.09375 46.164062 4.128906 40.515625 7.578125 34.140625 C 11.023438 27.765625 14.007812 20.328125 16.53125 11.828125 L 15.984375 11.453125 C 12.046875 15.578125 8.164062 19.859375 4.34375 24.296875 C 0.519531 28.734375 -2.710938 33.691406 -5.359375 39.171875 C -6.773438 42.066406 -7.789062 45.269531 -8.40625 48.78125 C -8.65625 49.945312 -8.472656 50.84375 -7.859375 51.46875 C -7.484375 51.894531 -7.019531 52.109375 -6.46875 52.109375 C -5.789062 52.109375 -5.144531 51.769531 -4.53125 51.09375 Z M -4.53125 51.09375 "/></g></g></g><g fill="#ffffff" fill-opacity="1"><g transform="translate(573.266929, 93.377357)"><g><path d="M 1.484375 -5.734375 C 0.804688 -3.265625 0.34375 -0.644531 0.09375 2.125 C 0.09375 2.4375 0.125 2.867188 0.1875 3.421875 C 0.25 3.972656 0.492188 4.40625 0.921875 4.71875 C 1.171875 4.957031 1.476562 5.078125 1.84375 5.078125 C 2.09375 5.078125 2.34375 5.015625 2.59375 4.890625 C 3.757812 4.585938 4.816406 4.050781 5.765625 3.28125 C 6.722656 2.507812 7.601562 1.753906 8.40625 1.015625 C 10.4375 -0.890625 11.914062 -3.257812 12.84375 -6.09375 C 12.96875 -6.46875 13.0625 -6.851562 13.125 -7.25 C 13.1875 -7.65625 13 -8.070312 12.5625 -8.5 C 12.132812 -9.050781 11.644531 -9.328125 11.09375 -9.328125 C 10.90625 -9.328125 10.71875 -9.296875 10.53125 -9.234375 C 10.34375 -9.171875 10.160156 -9.109375 9.984375 -9.046875 C 9.734375 -8.929688 9.5 -8.859375 9.28125 -8.828125 C 9.070312 -8.796875 8.84375 -8.78125 8.59375 -8.78125 C 8.28125 -8.71875 8.035156 -8.6875 7.859375 -8.6875 C 6.867188 -8.6875 6.21875 -9.054688 5.90625 -9.796875 C 5.789062 -10.222656 5.789062 -10.5625 5.90625 -10.8125 C 6.09375 -11.175781 6.617188 -11.390625 7.484375 -11.453125 C 10.742188 -11.828125 13.867188 -12.289062 16.859375 -12.84375 C 19.847656 -13.394531 22.515625 -13.914062 24.859375 -14.40625 C 25.710938 -14.65625 26.585938 -14.875 27.484375 -15.0625 C 28.378906 -15.25 29.257812 -15.460938 30.125 -15.703125 L 30.390625 -15.796875 C 30.828125 -15.921875 31.140625 -15.984375 31.328125 -15.984375 C 31.628906 -15.984375 31.90625 -15.769531 32.15625 -15.34375 C 32.28125 -15.09375 32.3125 -14.90625 32.25 -14.78125 C 32.1875 -14.59375 32.046875 -14.46875 31.828125 -14.40625 C 31.609375 -14.351562 31.378906 -14.296875 31.140625 -14.234375 L 26.328125 -13.21875 C 24.847656 -12.84375 23.335938 -12.484375 21.796875 -12.140625 C 20.265625 -11.804688 18.726562 -11.457031 17.1875 -11.09375 C 16.132812 -10.90625 15.347656 -10.546875 14.828125 -10.015625 C 14.304688 -9.492188 14.046875 -8.523438 14.046875 -7.109375 C 14.046875 -4.273438 13.226562 -1.9375 11.59375 -0.09375 C 9.957031 1.75 8.1875 3.472656 6.28125 5.078125 L 5.640625 5.640625 C 5.023438 6.128906 4.390625 6.617188 3.734375 7.109375 C 3.085938 7.609375 2.335938 7.859375 1.484375 7.859375 C 0.617188 7.859375 -0.273438 7.519531 -1.203125 6.84375 C -2.617188 5.851562 -3.328125 4.726562 -3.328125 3.46875 C -3.328125 2.207031 -3.203125 0.988281 -2.953125 -0.1875 L -2.859375 -1.109375 C -0.210938 -15.953125 5.113281 -29.285156 13.125 -41.109375 L 15.15625 -44.15625 C 16.875 -46.75 18.65625 -49.335938 20.5 -51.921875 C 22.351562 -54.503906 24.359375 -56.96875 26.515625 -59.3125 C 27.128906 -59.988281 27.835938 -60.648438 28.640625 -61.296875 C 29.441406 -61.941406 30.363281 -62.421875 31.40625 -62.734375 C 32.082031 -62.921875 32.734375 -63.015625 33.359375 -63.015625 C 34.835938 -63.015625 36.066406 -62.519531 37.046875 -61.53125 C 38.273438 -60.363281 38.890625 -58.789062 38.890625 -56.8125 C 38.890625 -53.1875 38.210938 -49.972656 36.859375 -47.171875 C 35.503906 -44.367188 34 -41.859375 32.34375 -39.640625 C 25.6875 -30.703125 17.304688 -23.28125 7.203125 -17.375 C 7.078125 -17.25 6.894531 -17.15625 6.65625 -17.09375 C 6.34375 -16.90625 6.03125 -16.703125 5.71875 -16.484375 C 5.414062 -16.273438 5.171875 -15.984375 4.984375 -15.609375 C 4.804688 -14.929688 4.59375 -14.285156 4.34375 -13.671875 C 4.09375 -13.054688 3.847656 -12.410156 3.609375 -11.734375 C 3.234375 -10.742188 2.859375 -9.738281 2.484375 -8.71875 C 2.117188 -7.707031 1.785156 -6.710938 1.484375 -5.734375 Z M 7.765625 -22.90625 C 7.578125 -22.476562 7.390625 -22.03125 7.203125 -21.5625 C 7.015625 -21.101562 6.800781 -20.660156 6.5625 -20.234375 L 7.015625 -19.765625 C 15.210938 -24.140625 22.328125 -29.992188 28.359375 -37.328125 C 32.671875 -42.554688 35.382812 -47.820312 36.5 -53.125 L 36.5 -53.5 C 36.738281 -54.539062 36.875 -55.660156 36.90625 -56.859375 C 36.9375 -58.066406 36.335938 -59.070312 35.109375 -59.875 C 34.617188 -60.175781 34.125 -60.328125 33.625 -60.328125 C 32.882812 -60.328125 32.238281 -60.050781 31.6875 -59.5 C 31.132812 -58.945312 30.644531 -58.394531 30.21875 -57.84375 L 29.84375 -57.46875 C 23.25 -49.332031 16.84375 -39.753906 10.625 -28.734375 C 10.070312 -27.804688 9.5625 -26.847656 9.09375 -25.859375 C 8.632812 -24.878906 8.191406 -23.894531 7.765625 -22.90625 Z M 7.765625 -22.90625 "/></g></g></g><g fill="#ffffff" fill-opacity="1"><g transform="translate(602.92207, 93.377357)"><g><path d="M 31.59375 -13.671875 C 32.03125 -13.921875 32.523438 -14.046875 33.078125 -14.046875 C 33.140625 -13.734375 33.015625 -13.4375 32.703125 -13.15625 C 32.398438 -12.882812 32.125 -12.625 31.875 -12.375 L 31.328125 -11.921875 C 29.109375 -10.253906 26.859375 -8.632812 24.578125 -7.0625 C 22.296875 -5.5 19.84375 -4.207031 17.21875 -3.1875 C 14.601562 -2.164062 11.695312 -1.65625 8.5 -1.65625 L 8.125 -1.65625 C 4.988281 -1.65625 2.554688 -2.613281 0.828125 -4.53125 C -0.710938 -6.3125 -1.234375 -8.46875 -0.734375 -11 C 0.984375 -19.4375 6.460938 -24.882812 15.703125 -27.34375 C 16.203125 -27.46875 16.695312 -27.53125 17.1875 -27.53125 C 18.664062 -27.53125 19.863281 -26.882812 20.78125 -25.59375 C 21.519531 -24.601562 21.75 -23.753906 21.46875 -23.046875 C 21.195312 -22.335938 20.785156 -21.613281 20.234375 -20.875 C 17.765625 -17.863281 13.695312 -15.925781 8.03125 -15.0625 C 6 -14.75 4.675781 -13.945312 4.0625 -12.65625 C 3.445312 -11.363281 2.984375 -9.976562 2.671875 -8.5 L 2.59375 -7.859375 C 2.40625 -6.992188 2.554688 -6.191406 3.046875 -5.453125 C 3.722656 -4.523438 4.800781 -3.847656 6.28125 -3.421875 C 7.394531 -3.109375 8.566406 -2.953125 9.796875 -2.953125 C 10.773438 -2.953125 11.726562 -3.046875 12.65625 -3.234375 C 13.582031 -3.421875 14.566406 -3.664062 15.609375 -3.96875 C 18.878906 -4.894531 22.144531 -6.46875 25.40625 -8.6875 C 26.820312 -9.613281 28.238281 -10.722656 29.65625 -12.015625 C 29.78125 -12.078125 29.90625 -12.164062 30.03125 -12.28125 C 30.15625 -12.40625 30.273438 -12.53125 30.390625 -12.65625 C 30.578125 -12.84375 30.765625 -13.007812 30.953125 -13.15625 C 31.140625 -13.3125 31.351562 -13.484375 31.59375 -13.671875 Z M 9.140625 -18.390625 L 8.5 -17.640625 L 9.515625 -17.921875 C 11.671875 -18.410156 13.503906 -19.054688 15.015625 -19.859375 C 16.523438 -20.660156 17.832031 -21.957031 18.9375 -23.75 L 19.3125 -24.484375 L 18.484375 -24.203125 C 16.691406 -23.648438 15.023438 -22.957031 13.484375 -22.125 C 11.941406 -21.289062 10.492188 -20.046875 9.140625 -18.390625 Z M 9.140625 -18.390625 "/></g></g></g><g fill="#ffffff" fill-opacity="1"><g transform="translate(634.424844, 93.377357)"><g><path d="M 48.96875 -15.515625 C 49.09375 -15.398438 49.046875 -15.171875 48.828125 -14.828125 C 48.609375 -14.492188 48.410156 -14.234375 48.234375 -14.046875 C 47.609375 -13.546875 46.910156 -13.097656 46.140625 -12.703125 C 45.378906 -12.304688 44.597656 -11.921875 43.796875 -11.546875 C 43.421875 -11.359375 43.046875 -11.15625 42.671875 -10.9375 C 42.304688 -10.726562 41.972656 -10.53125 41.671875 -10.34375 C 40.441406 -9.664062 39.222656 -8.988281 38.015625 -8.3125 C 36.816406 -7.632812 35.632812 -6.925781 34.46875 -6.1875 C 29.351562 -3.050781 24.882812 0.0859375 21.0625 3.234375 C 19.707031 4.398438 18.660156 5.753906 17.921875 7.296875 L 15.703125 12.015625 C 13.734375 16.078125 11.734375 20.203125 9.703125 24.390625 C 7.671875 28.578125 5.453125 32.644531 3.046875 36.59375 C 2.066406 38.125 0.882812 39.828125 -0.5 41.703125 C -1.894531 43.585938 -3.578125 45.332031 -5.546875 46.9375 C -5.972656 47.238281 -6.445312 47.554688 -6.96875 47.890625 C -7.5 48.234375 -8.101562 48.46875 -8.78125 48.59375 C -9.332031 48.78125 -9.789062 48.875 -10.15625 48.875 C -11.082031 48.875 -11.882812 48.535156 -12.5625 47.859375 C -13.113281 47.367188 -13.421875 46.859375 -13.484375 46.328125 C -13.546875 45.804688 -13.546875 45.207031 -13.484375 44.53125 C -13.304688 43.113281 -12.953125 41.800781 -12.421875 40.59375 C -11.898438 39.394531 -11.363281 38.242188 -10.8125 37.140625 C -6.070312 28.148438 0.828125 19.4375 9.890625 11 C 12.785156 8.28125 15.03125 5.195312 16.625 1.75 C 17.675781 -0.40625 18.753906 -2.5625 19.859375 -4.71875 C 20.972656 -6.875 22.082031 -9.023438 23.1875 -11.171875 L 26.234375 -17.28125 L 25.40625 -17 C 23.375 -16.195312 21.539062 -15.195312 19.90625 -14 C 18.28125 -12.800781 16.726562 -11.550781 15.25 -10.25 C 14.632812 -9.695312 14 -9.160156 13.34375 -8.640625 C 12.695312 -8.117188 12.035156 -7.609375 11.359375 -7.109375 L 9.890625 -6 C 8.648438 -5.019531 7.351562 -4.082031 6 -3.1875 C 4.644531 -2.289062 3.171875 -1.566406 1.578125 -1.015625 C 0.890625 -0.828125 0.269531 -0.734375 -0.28125 -0.734375 C -1.195312 -0.734375 -2.085938 -1.070312 -2.953125 -1.75 C -4.367188 -2.800781 -4.984375 -4.25 -4.796875 -6.09375 C -4.429688 -8.925781 -3.476562 -11.328125 -1.9375 -13.296875 C -0.394531 -15.273438 1.296875 -17.0625 3.140625 -18.65625 C 3.453125 -18.96875 3.820312 -19.125 4.25 -19.125 C 4.675781 -19.125 5.109375 -18.941406 5.546875 -18.578125 C 5.972656 -18.140625 6.171875 -17.75 6.140625 -17.40625 C 6.109375 -17.070312 5.941406 -16.691406 5.640625 -16.265625 C 5.328125 -15.828125 5.03125 -15.394531 4.75 -14.96875 C 4.476562 -14.539062 4.1875 -14.109375 3.875 -13.671875 C 3.445312 -13.054688 3.015625 -12.457031 2.578125 -11.875 C 2.148438 -11.289062 1.753906 -10.691406 1.390625 -10.078125 C 1.265625 -9.890625 1.125 -9.6875 0.96875 -9.46875 C 0.8125 -9.25 0.644531 -9.050781 0.46875 -8.875 C 0.09375 -8.375 -0.273438 -7.847656 -0.640625 -7.296875 C -1.015625 -6.742188 -1.265625 -6.128906 -1.390625 -5.453125 C -1.566406 -4.648438 -1.472656 -4.035156 -1.109375 -3.609375 C -0.679688 -3.171875 -0.0351562 -2.953125 0.828125 -2.953125 C 1.265625 -2.953125 1.726562 -3 2.21875 -3.09375 C 2.707031 -3.1875 3.109375 -3.296875 3.421875 -3.421875 C 4.160156 -3.722656 4.835938 -4.070312 5.453125 -4.46875 C 6.066406 -4.875 6.679688 -5.296875 7.296875 -5.734375 C 8.710938 -6.773438 10.128906 -7.832031 11.546875 -8.90625 C 12.960938 -9.988281 14.347656 -11.054688 15.703125 -12.109375 C 16.816406 -12.960938 17.941406 -13.835938 19.078125 -14.734375 C 20.210938 -15.628906 21.335938 -16.476562 22.453125 -17.28125 C 22.640625 -17.40625 22.851562 -17.585938 23.09375 -17.828125 C 23.46875 -18.140625 23.851562 -18.429688 24.25 -18.703125 C 24.65625 -18.984375 25.101562 -19.125 25.59375 -19.125 C 26.082031 -19.125 26.632812 -18.878906 27.25 -18.390625 C 27.925781 -17.773438 28.203125 -17.125 28.078125 -16.4375 C 27.960938 -15.757812 27.75 -15.082031 27.4375 -14.40625 C 27.25 -14.039062 27.128906 -13.765625 27.078125 -13.578125 C 26.828125 -12.835938 26.578125 -12.113281 26.328125 -11.40625 C 26.085938 -10.695312 25.8125 -10.003906 25.5 -9.328125 C 25.070312 -8.160156 24.640625 -6.972656 24.203125 -5.765625 C 23.773438 -4.566406 23.375 -3.320312 23 -2.03125 L 23.5625 -1.75 C 23.625 -2 23.882812 -2.242188 24.34375 -2.484375 C 24.800781 -2.734375 25.21875 -2.921875 25.59375 -3.046875 C 26.019531 -3.296875 26.296875 -3.453125 26.421875 -3.515625 L 29.5625 -5.453125 C 32.644531 -7.421875 35.785156 -9.238281 38.984375 -10.90625 C 40.648438 -11.769531 42.285156 -12.566406 43.890625 -13.296875 C 44.066406 -13.421875 44.28125 -13.546875 44.53125 -13.671875 C 44.78125 -13.796875 44.992188 -13.921875 45.171875 -14.046875 C 45.796875 -14.285156 46.382812 -14.546875 46.9375 -14.828125 C 47.488281 -15.109375 48.070312 -15.335938 48.6875 -15.515625 C 48.8125 -15.515625 48.90625 -15.515625 48.96875 -15.515625 Z M -7.765625 45 C -3.691406 40.8125 -0.332031 36.097656 2.3125 30.859375 C 4.957031 25.617188 7.453125 20.351562 9.796875 15.0625 L 9.328125 14.5 C 3.421875 19.488281 -1.71875 25.035156 -6.09375 31.140625 C -7.207031 32.734375 -8.285156 34.40625 -9.328125 36.15625 C -10.378906 37.914062 -11.179688 39.875 -11.734375 42.03125 C -11.796875 42.21875 -11.859375 42.46875 -11.921875 42.78125 C -12.109375 43.332031 -12.226562 43.914062 -12.28125 44.53125 C -12.34375 45.144531 -12.035156 45.726562 -11.359375 46.28125 C -10.929688 46.59375 -10.503906 46.75 -10.078125 46.75 C -9.640625 46.75 -9.265625 46.609375 -8.953125 46.328125 C -8.648438 46.054688 -8.375 45.765625 -8.125 45.453125 C -7.945312 45.210938 -7.828125 45.0625 -7.765625 45 Z M -7.765625 45 "/></g></g></g></svg>