<svg xmlns="http://www.w3.org/2000/svg" xmlns:xlink="http://www.w3.org/1999/xlink" width="300" zoomAndPan="magnify" viewBox="0 0 224.87999 30.000001" height="40" preserveAspectRatio="xMidYMid meet" version="1.0"><defs><g/></defs><g fill="#ffffff" fill-opacity="1"><g transform="translate(3.569024, 18.289168)"><g><path d="M 13.734375 -16.65625 C 13.972656 -16.945312 14.117188 -16.976562 14.171875 -16.75 C 14.203125 -16.601562 14.195312 -16.394531 14.15625 -16.125 C 14.113281 -15.863281 14.078125 -15.671875 14.046875 -15.546875 C 13.898438 -15.117188 13.679688 -14.554688 13.390625 -13.859375 C 13.109375 -13.171875 12.78125 -12.40625 12.40625 -11.5625 C 12.039062 -10.71875 11.65625 -9.847656 11.25 -8.953125 C 10.84375 -8.054688 10.441406 -7.1875 10.046875 -6.34375 C 9.660156 -5.507812 9.304688 -4.753906 8.984375 -4.078125 C 8.660156 -3.398438 8.398438 -2.859375 8.203125 -2.453125 L 8.140625 -2.375 C 8.097656 -2.28125 8.054688 -2.195312 8.015625 -2.125 C 7.984375 -2.050781 7.9375 -1.957031 7.875 -1.84375 L 7.609375 -1.3125 L 7.78125 -1.375 C 8.601562 -1.632812 9.4375 -1.878906 10.28125 -2.109375 C 11.132812 -2.347656 12.003906 -2.535156 12.890625 -2.671875 C 13.054688 -2.691406 13.171875 -2.753906 13.234375 -2.859375 C 13.304688 -2.960938 13.367188 -3.070312 13.421875 -3.1875 C 13.429688 -3.21875 13.4375 -3.242188 13.4375 -3.265625 C 13.445312 -3.296875 13.457031 -3.328125 13.46875 -3.359375 C 14.132812 -4.816406 14.804688 -6.117188 15.484375 -7.265625 C 16.160156 -8.421875 16.875 -9.476562 17.625 -10.4375 C 17.664062 -10.476562 17.71875 -10.550781 17.78125 -10.65625 C 17.863281 -10.757812 17.953125 -10.867188 18.046875 -10.984375 C 18.140625 -11.097656 18.234375 -11.15625 18.328125 -11.15625 C 18.390625 -11.15625 18.445312 -11.140625 18.5 -11.109375 C 18.582031 -11.035156 18.628906 -10.96875 18.640625 -10.90625 C 18.660156 -10.8125 18.632812 -10.710938 18.5625 -10.609375 C 18.5 -10.515625 18.425781 -10.425781 18.34375 -10.34375 C 18.3125 -10.300781 18.273438 -10.257812 18.234375 -10.21875 C 18.203125 -10.175781 18.175781 -10.132812 18.15625 -10.09375 L 17.8125 -9.546875 C 17.25 -8.609375 16.6875 -7.65625 16.125 -6.6875 C 15.570312 -5.726562 15.0625 -4.75 14.59375 -3.75 C 14.570312 -3.707031 14.546875 -3.660156 14.515625 -3.609375 C 14.460938 -3.523438 14.414062 -3.429688 14.375 -3.328125 C 14.34375 -3.234375 14.351562 -3.109375 14.40625 -2.953125 L 14.53125 -2.953125 C 14.550781 -2.972656 14.644531 -2.984375 14.8125 -2.984375 C 14.976562 -2.992188 15.164062 -3.003906 15.375 -3.015625 C 15.582031 -3.023438 15.78125 -3.03125 15.96875 -3.03125 C 16.15625 -3.039062 16.285156 -3.046875 16.359375 -3.046875 C 16.421875 -3.046875 16.484375 -3.046875 16.546875 -3.046875 C 16.609375 -3.054688 16.671875 -3.0625 16.734375 -3.0625 C 16.816406 -3.0625 16.898438 -3.0625 16.984375 -3.0625 C 17.066406 -3.0625 17.148438 -3.0625 17.234375 -3.0625 C 17.378906 -3.0625 17.503906 -3.0625 17.609375 -3.0625 L 17.71875 -3.046875 C 17.800781 -3.046875 17.882812 -3.039062 17.96875 -3.03125 C 18.0625 -3.03125 18.140625 -3.015625 18.203125 -2.984375 C 18.265625 -2.953125 18.296875 -2.925781 18.296875 -2.90625 C 18.296875 -2.851562 18.253906 -2.800781 18.171875 -2.75 C 18.085938 -2.707031 18.015625 -2.679688 17.953125 -2.671875 C 17.804688 -2.648438 17.660156 -2.628906 17.515625 -2.609375 C 17.367188 -2.597656 17.222656 -2.59375 17.078125 -2.59375 L 16.65625 -2.59375 C 16.550781 -2.59375 16.453125 -2.59375 16.359375 -2.59375 C 16.085938 -2.582031 15.800781 -2.566406 15.5 -2.546875 C 15.207031 -2.535156 14.921875 -2.507812 14.640625 -2.46875 C 14.179688 -2.40625 13.863281 -2.179688 13.6875 -1.796875 C 13.320312 -0.984375 12.988281 -0.15625 12.6875 0.6875 C 12.382812 1.53125 12.085938 2.363281 11.796875 3.1875 C 11.609375 3.738281 11.410156 4.296875 11.203125 4.859375 C 11.003906 5.421875 10.796875 5.976562 10.578125 6.53125 C 10.535156 6.644531 10.484375 6.757812 10.421875 6.875 C 10.359375 6.988281 10.269531 7.078125 10.15625 7.140625 C 10.113281 7.148438 10.082031 7.15625 10.0625 7.15625 C 10.039062 7.132812 10.019531 7.0625 10 6.9375 C 9.988281 6.820312 10.023438 6.578125 10.109375 6.203125 L 10.140625 6.140625 C 10.222656 5.753906 10.3125 5.375 10.40625 5 C 10.507812 4.625 10.617188 4.25 10.734375 3.875 L 10.9375 3.15625 C 11.09375 2.664062 11.265625 2.171875 11.453125 1.671875 C 11.640625 1.179688 11.828125 0.691406 12.015625 0.203125 L 12.375 -0.734375 C 12.414062 -0.835938 12.457031 -0.945312 12.5 -1.0625 C 12.550781 -1.1875 12.59375 -1.3125 12.625 -1.4375 C 12.632812 -1.457031 12.65625 -1.503906 12.6875 -1.578125 C 12.695312 -1.648438 12.71875 -1.742188 12.75 -1.859375 C 12.789062 -1.984375 12.820312 -2.050781 12.84375 -2.0625 L 12.765625 -2.203125 C 11.785156 -2.035156 10.867188 -1.828125 10.015625 -1.578125 C 9.171875 -1.335938 8.394531 -1.09375 7.6875 -0.84375 C 7.363281 -0.738281 7.113281 -0.535156 6.9375 -0.234375 C 6.789062 0.015625 6.644531 0.257812 6.5 0.5 C 6.363281 0.75 6.222656 1 6.078125 1.25 C 5.753906 1.78125 5.429688 2.316406 5.109375 2.859375 C 4.796875 3.410156 4.492188 3.960938 4.203125 4.515625 C 4.078125 4.734375 3.976562 4.957031 3.90625 5.1875 C 3.832031 5.425781 3.769531 5.660156 3.71875 5.890625 C 3.675781 6.015625 3.632812 6.132812 3.59375 6.25 C 3.5625 6.375 3.523438 6.503906 3.484375 6.640625 C 3.398438 6.890625 3.289062 7.097656 3.15625 7.265625 L 3.109375 7.359375 C 3.046875 7.441406 2.972656 7.523438 2.890625 7.609375 C 2.816406 7.691406 2.734375 7.734375 2.640625 7.734375 C 2.546875 7.734375 2.445312 7.695312 2.34375 7.625 C 2.164062 7.519531 2.078125 7.398438 2.078125 7.265625 C 2.085938 7.140625 2.128906 6.992188 2.203125 6.828125 L 2.234375 6.75 C 2.523438 5.96875 2.832031 5.242188 3.15625 4.578125 C 3.40625 4.078125 3.421875 3.640625 3.203125 3.265625 C 3.003906 2.890625 2.582031 2.609375 1.9375 2.421875 C 1.882812 2.398438 1.828125 2.382812 1.765625 2.375 C 1.710938 2.375 1.660156 2.375 1.609375 2.375 C 1.453125 2.351562 1.320312 2.320312 1.21875 2.28125 C 1.125 2.25 1.050781 2.160156 1 2.015625 C 0.945312 1.828125 0.960938 1.695312 1.046875 1.625 C 1.140625 1.5625 1.25 1.5 1.375 1.4375 C 1.414062 1.425781 1.453125 1.410156 1.484375 1.390625 C 1.523438 1.367188 1.5625 1.351562 1.59375 1.34375 C 2.25 0.945312 2.914062 0.597656 3.59375 0.296875 C 4.269531 0.00390625 4.914062 -0.257812 5.53125 -0.5 C 5.695312 -0.570312 5.859375 -0.648438 6.015625 -0.734375 C 6.171875 -0.828125 6.296875 -0.957031 6.390625 -1.125 L 6.765625 -1.8125 C 6.921875 -2.09375 7.132812 -2.519531 7.40625 -3.09375 C 7.6875 -3.664062 7.992188 -4.316406 8.328125 -5.046875 C 8.660156 -5.773438 9.003906 -6.53125 9.359375 -7.3125 C 9.722656 -8.101562 10.066406 -8.863281 10.390625 -9.59375 C 10.722656 -10.320312 11.019531 -10.972656 11.28125 -11.546875 C 11.550781 -12.117188 11.757812 -12.554688 11.90625 -12.859375 C 12.125 -13.285156 12.332031 -13.71875 12.53125 -14.15625 C 12.726562 -14.59375 12.925781 -15.035156 13.125 -15.484375 C 13.226562 -15.671875 13.320312 -15.867188 13.40625 -16.078125 C 13.5 -16.296875 13.609375 -16.488281 13.734375 -16.65625 Z M 5.59375 0.234375 L 5.421875 0.265625 C 4.773438 0.410156 4.160156 0.613281 3.578125 0.875 C 3.003906 1.144531 2.378906 1.472656 1.703125 1.859375 L 1.5625 1.9375 L 1.734375 1.984375 C 2.171875 2.097656 2.539062 2.257812 2.84375 2.46875 C 3.144531 2.675781 3.425781 2.976562 3.6875 3.375 L 3.765625 3.484375 Z M 5.59375 0.234375 "/></g></g></g><g fill="#ffffff" fill-opacity="1"><g transform="translate(22.39525, 18.289168)"><g><path d="M 4.703125 -5.9375 C 4.554688 -5.925781 4.425781 -5.960938 4.3125 -6.046875 C 4.207031 -6.128906 4.140625 -6.242188 4.109375 -6.390625 C 4.046875 -6.554688 4.054688 -6.6875 4.140625 -6.78125 C 4.222656 -6.875 4.332031 -6.925781 4.46875 -6.9375 C 4.59375 -6.96875 4.71875 -6.941406 4.84375 -6.859375 C 4.976562 -6.785156 5.066406 -6.675781 5.109375 -6.53125 C 5.171875 -6.363281 5.15625 -6.222656 5.0625 -6.109375 C 4.976562 -6.003906 4.859375 -5.945312 4.703125 -5.9375 Z M 3.375 -6.09375 C 3.25 -6.09375 3.140625 -6.132812 3.046875 -6.21875 C 2.953125 -6.300781 2.894531 -6.40625 2.875 -6.53125 C 2.84375 -6.695312 2.875 -6.820312 2.96875 -6.90625 C 3.070312 -6.988281 3.203125 -7.035156 3.359375 -7.046875 C 3.460938 -7.046875 3.550781 -7.007812 3.625 -6.9375 C 3.695312 -6.863281 3.75 -6.78125 3.78125 -6.6875 C 3.78125 -6.53125 3.753906 -6.394531 3.703125 -6.28125 C 3.648438 -6.164062 3.539062 -6.101562 3.375 -6.09375 Z M 10.109375 -2.828125 C 10.160156 -2.796875 10.1875 -2.757812 10.1875 -2.71875 C 10.195312 -2.6875 10.160156 -2.628906 10.078125 -2.546875 C 9.523438 -2.003906 8.914062 -1.488281 8.25 -1 C 7.59375 -0.507812 6.820312 -0.144531 5.9375 0.09375 C 5.726562 0.144531 5.53125 0.171875 5.34375 0.171875 C 5 0.171875 4.707031 0.0664062 4.46875 -0.140625 C 4.125 -0.441406 3.910156 -0.957031 3.828125 -1.6875 L 3.796875 -1.8125 L 3.28125 -1.375 C 3.113281 -1.238281 2.945312 -1.097656 2.78125 -0.953125 C 2.613281 -0.804688 2.445312 -0.664062 2.28125 -0.53125 C 1.84375 -0.1875 1.375 0.0625 0.875 0.21875 C 0.71875 0.257812 0.585938 0.28125 0.484375 0.28125 C 0.265625 0.28125 0.0703125 0.210938 -0.09375 0.078125 C -0.382812 -0.179688 -0.515625 -0.488281 -0.484375 -0.84375 C -0.316406 -2.3125 0.332031 -3.769531 1.46875 -5.21875 C 1.550781 -5.34375 1.640625 -5.40625 1.734375 -5.40625 C 1.804688 -5.40625 1.878906 -5.375 1.953125 -5.3125 C 2.035156 -5.238281 2.070312 -5.164062 2.0625 -5.09375 C 2.050781 -5.019531 2.019531 -4.9375 1.96875 -4.84375 C 1.882812 -4.664062 1.789062 -4.484375 1.6875 -4.296875 C 1.59375 -4.109375 1.488281 -3.921875 1.375 -3.734375 C 1.113281 -3.253906 0.863281 -2.765625 0.625 -2.265625 C 0.382812 -1.773438 0.242188 -1.238281 0.203125 -0.65625 C 0.203125 -0.613281 0.203125 -0.5625 0.203125 -0.5 C 0.210938 -0.4375 0.238281 -0.382812 0.28125 -0.34375 C 0.34375 -0.28125 0.410156 -0.242188 0.484375 -0.234375 C 0.515625 -0.234375 0.550781 -0.234375 0.59375 -0.234375 C 0.726562 -0.234375 0.859375 -0.257812 0.984375 -0.3125 C 1.109375 -0.363281 1.222656 -0.421875 1.328125 -0.484375 C 2.804688 -1.242188 3.832031 -2.25 4.40625 -3.5 C 4.425781 -3.519531 4.441406 -3.546875 4.453125 -3.578125 C 4.460938 -3.617188 4.472656 -3.65625 4.484375 -3.6875 C 4.515625 -3.800781 4.554688 -3.90625 4.609375 -4 C 4.660156 -4.09375 4.734375 -4.140625 4.828125 -4.140625 C 4.898438 -4.140625 4.976562 -4.109375 5.0625 -4.046875 C 5.164062 -3.992188 5.238281 -3.929688 5.28125 -3.859375 C 5.3125 -3.773438 5.3125 -3.691406 5.28125 -3.609375 C 5.25 -3.523438 5.210938 -3.441406 5.171875 -3.359375 C 5.148438 -3.304688 5.128906 -3.257812 5.109375 -3.21875 C 5.097656 -3.1875 5.085938 -3.15625 5.078125 -3.125 C 5.035156 -3.03125 5 -2.929688 4.96875 -2.828125 C 4.9375 -2.722656 4.898438 -2.625 4.859375 -2.53125 C 4.785156 -2.320312 4.71875 -2.109375 4.65625 -1.890625 C 4.59375 -1.679688 4.546875 -1.460938 4.515625 -1.234375 C 4.484375 -0.890625 4.546875 -0.632812 4.703125 -0.46875 C 4.859375 -0.3125 5.125 -0.226562 5.5 -0.21875 C 5.90625 -0.21875 6.265625 -0.285156 6.578125 -0.421875 C 6.890625 -0.554688 7.1875 -0.707031 7.46875 -0.875 C 8.476562 -1.476562 9.269531 -2.09375 9.84375 -2.71875 C 9.851562 -2.738281 9.875 -2.765625 9.90625 -2.796875 C 9.945312 -2.859375 9.984375 -2.890625 10.015625 -2.890625 C 10.035156 -2.890625 10.066406 -2.867188 10.109375 -2.828125 Z M 10.109375 -2.828125 "/></g></g></g><g fill="#ffffff" fill-opacity="1"><g transform="translate(32.059385, 18.289168)"><g><path d="M 6.09375 -3.171875 L 6.140625 -3.109375 C 6.140625 -3.054688 6.082031 -3.015625 5.96875 -2.984375 C 5.851562 -2.960938 5.757812 -2.945312 5.6875 -2.9375 C 5.613281 -2.925781 5.570312 -2.921875 5.5625 -2.921875 C 5.394531 -2.878906 5.226562 -2.832031 5.0625 -2.78125 C 4.894531 -2.738281 4.726562 -2.691406 4.5625 -2.640625 C 3.925781 -2.441406 3.378906 -2.234375 2.921875 -2.015625 C 2.578125 -1.828125 2.253906 -1.613281 1.953125 -1.375 C 1.648438 -1.132812 1.457031 -0.769531 1.375 -0.28125 C 1.207031 0.613281 0.675781 1.445312 -0.21875 2.21875 C -0.5625 2.519531 -0.914062 2.671875 -1.28125 2.671875 C -1.53125 2.671875 -1.742188 2.59375 -1.921875 2.4375 C -2.160156 2.238281 -2.28125 1.96875 -2.28125 1.625 C -2.28125 1.289062 -2.15625 0.976562 -1.90625 0.6875 C -1.59375 0.289062 -1.222656 -0.046875 -0.796875 -0.328125 C -0.367188 -0.617188 0.0625 -0.878906 0.5 -1.109375 C 0.78125 -1.253906 0.929688 -1.425781 0.953125 -1.625 C 0.972656 -1.832031 0.875 -2.097656 0.65625 -2.421875 C 0.570312 -2.523438 0.492188 -2.632812 0.421875 -2.75 C 0.359375 -2.863281 0.289062 -2.984375 0.21875 -3.109375 L 0.09375 -3.3125 C -0.1875 -3.757812 -0.1875 -4.117188 0.09375 -4.390625 C 1.007812 -5.328125 2.160156 -5.835938 3.546875 -5.921875 L 3.640625 -5.921875 C 3.953125 -5.921875 4.191406 -5.820312 4.359375 -5.625 C 4.535156 -5.425781 4.585938 -5.15625 4.515625 -4.8125 C 4.429688 -4.445312 4.210938 -4.132812 3.859375 -3.875 C 3.835938 -3.851562 3.800781 -3.828125 3.75 -3.796875 C 3.707031 -3.773438 3.664062 -3.765625 3.625 -3.765625 C 3.570312 -3.765625 3.519531 -3.789062 3.46875 -3.84375 C 3.394531 -3.882812 3.363281 -3.9375 3.375 -4 C 3.382812 -4.0625 3.40625 -4.132812 3.4375 -4.21875 C 3.507812 -4.34375 3.578125 -4.46875 3.640625 -4.59375 C 3.710938 -4.726562 3.785156 -4.851562 3.859375 -4.96875 C 3.890625 -5.039062 3.914062 -5.113281 3.9375 -5.1875 C 3.957031 -5.257812 3.9375 -5.34375 3.875 -5.4375 C 3.800781 -5.539062 3.695312 -5.59375 3.5625 -5.59375 C 3.539062 -5.59375 3.5 -5.585938 3.4375 -5.578125 L 3.390625 -5.578125 C 2.242188 -5.460938 1.320312 -5.023438 0.625 -4.265625 C 0.394531 -4.015625 0.425781 -3.722656 0.71875 -3.390625 C 0.875 -3.210938 1.015625 -3.015625 1.140625 -2.796875 C 1.273438 -2.566406 1.398438 -2.378906 1.515625 -2.234375 C 1.640625 -2.085938 1.796875 -2.015625 1.984375 -2.015625 C 2.097656 -2.015625 2.234375 -2.046875 2.390625 -2.109375 C 2.835938 -2.316406 3.296875 -2.5 3.765625 -2.65625 C 4.242188 -2.8125 4.691406 -2.945312 5.109375 -3.0625 C 5.179688 -3.09375 5.289062 -3.125 5.4375 -3.15625 C 5.59375 -3.1875 5.734375 -3.203125 5.859375 -3.203125 C 5.929688 -3.203125 5.984375 -3.195312 6.015625 -3.1875 C 6.054688 -3.175781 6.082031 -3.171875 6.09375 -3.171875 Z M -0.796875 2.1875 C 0.160156 1.6875 0.75 0.753906 0.96875 -0.609375 L 0.859375 -0.65625 C 0.847656 -0.613281 0.78125 -0.554688 0.65625 -0.484375 C 0.539062 -0.421875 0.4375 -0.367188 0.34375 -0.328125 C 0.21875 -0.265625 0.144531 -0.222656 0.125 -0.203125 C -0.164062 0.00390625 -0.421875 0.203125 -0.640625 0.390625 L -0.765625 0.5 C -0.960938 0.664062 -1.164062 0.859375 -1.375 1.078125 C -1.582031 1.304688 -1.695312 1.546875 -1.71875 1.796875 C -1.726562 1.953125 -1.691406 2.078125 -1.609375 2.171875 C -1.523438 2.253906 -1.398438 2.296875 -1.234375 2.296875 C -1.140625 2.296875 -1.050781 2.28125 -0.96875 2.25 C -0.894531 2.226562 -0.835938 2.207031 -0.796875 2.1875 Z M -0.796875 2.1875 "/></g></g></g><g fill="#ffffff" fill-opacity="1"><g transform="translate(37.671397, 18.289168)"><g><path d="M 6.140625 -2.65625 C 6.222656 -2.695312 6.316406 -2.71875 6.421875 -2.71875 C 6.429688 -2.664062 6.40625 -2.609375 6.34375 -2.546875 C 6.289062 -2.492188 6.238281 -2.445312 6.1875 -2.40625 L 6.078125 -2.3125 C 5.648438 -1.988281 5.210938 -1.675781 4.765625 -1.375 C 4.328125 -1.070312 3.851562 -0.820312 3.34375 -0.625 C 2.832031 -0.425781 2.269531 -0.328125 1.65625 -0.328125 L 1.578125 -0.328125 C 0.960938 -0.328125 0.488281 -0.507812 0.15625 -0.875 C -0.132812 -1.226562 -0.234375 -1.648438 -0.140625 -2.140625 C 0.191406 -3.773438 1.253906 -4.832031 3.046875 -5.3125 C 3.140625 -5.332031 3.238281 -5.34375 3.34375 -5.34375 C 3.625 -5.34375 3.851562 -5.21875 4.03125 -4.96875 C 4.175781 -4.78125 4.222656 -4.613281 4.171875 -4.46875 C 4.117188 -4.332031 4.035156 -4.191406 3.921875 -4.046875 C 3.441406 -3.460938 2.65625 -3.085938 1.5625 -2.921875 C 1.164062 -2.859375 0.90625 -2.703125 0.78125 -2.453125 C 0.664062 -2.203125 0.578125 -1.9375 0.515625 -1.65625 L 0.5 -1.53125 C 0.46875 -1.363281 0.5 -1.207031 0.59375 -1.0625 C 0.726562 -0.882812 0.9375 -0.75 1.21875 -0.65625 C 1.4375 -0.601562 1.664062 -0.578125 1.90625 -0.578125 C 2.09375 -0.578125 2.273438 -0.59375 2.453125 -0.625 C 2.628906 -0.664062 2.820312 -0.710938 3.03125 -0.765625 C 3.664062 -0.953125 4.300781 -1.257812 4.9375 -1.6875 C 5.207031 -1.863281 5.484375 -2.078125 5.765625 -2.328125 C 5.785156 -2.335938 5.804688 -2.351562 5.828125 -2.375 C 5.847656 -2.40625 5.875 -2.429688 5.90625 -2.453125 C 5.9375 -2.492188 5.96875 -2.523438 6 -2.546875 C 6.039062 -2.578125 6.085938 -2.613281 6.140625 -2.65625 Z M 1.78125 -3.5625 L 1.65625 -3.421875 L 1.84375 -3.484375 C 2.257812 -3.578125 2.613281 -3.703125 2.90625 -3.859375 C 3.207031 -4.015625 3.460938 -4.265625 3.671875 -4.609375 L 3.75 -4.75 L 3.59375 -4.703125 C 3.238281 -4.585938 2.910156 -4.445312 2.609375 -4.28125 C 2.316406 -4.125 2.039062 -3.882812 1.78125 -3.5625 Z M 1.78125 -3.5625 "/></g></g></g><g fill="#ffffff" fill-opacity="1"><g transform="translate(43.785441, 18.289168)"><g><path d="M 9.5 -3.015625 C 9.53125 -2.992188 9.523438 -2.945312 9.484375 -2.875 C 9.441406 -2.8125 9.398438 -2.757812 9.359375 -2.71875 C 9.242188 -2.625 9.109375 -2.535156 8.953125 -2.453125 C 8.804688 -2.378906 8.65625 -2.304688 8.5 -2.234375 C 8.425781 -2.203125 8.351562 -2.164062 8.28125 -2.125 C 8.207031 -2.082031 8.144531 -2.046875 8.09375 -2.015625 C 7.851562 -1.878906 7.613281 -1.742188 7.375 -1.609375 C 7.144531 -1.484375 6.914062 -1.347656 6.6875 -1.203125 C 5.695312 -0.585938 4.832031 0.0195312 4.09375 0.625 C 3.820312 0.851562 3.617188 1.117188 3.484375 1.421875 L 3.046875 2.328125 C 2.660156 3.117188 2.269531 3.921875 1.875 4.734375 C 1.488281 5.546875 1.0625 6.335938 0.59375 7.109375 C 0.40625 7.398438 0.175781 7.726562 -0.09375 8.09375 C -0.363281 8.457031 -0.691406 8.796875 -1.078125 9.109375 C -1.160156 9.171875 -1.25 9.234375 -1.34375 9.296875 C -1.445312 9.367188 -1.566406 9.414062 -1.703125 9.4375 C -1.804688 9.46875 -1.894531 9.484375 -1.96875 9.484375 C -2.144531 9.484375 -2.300781 9.421875 -2.4375 9.296875 C -2.539062 9.191406 -2.597656 9.085938 -2.609375 8.984375 C -2.628906 8.890625 -2.632812 8.773438 -2.625 8.640625 C -2.582031 8.367188 -2.507812 8.113281 -2.40625 7.875 C -2.3125 7.644531 -2.207031 7.421875 -2.09375 7.203125 C -1.175781 5.460938 0.160156 3.773438 1.921875 2.140625 C 2.484375 1.609375 2.921875 1.007812 3.234375 0.34375 C 3.429688 -0.0703125 3.632812 -0.488281 3.84375 -0.90625 C 4.0625 -1.332031 4.28125 -1.753906 4.5 -2.171875 L 5.09375 -3.359375 L 4.9375 -3.296875 C 4.539062 -3.140625 4.179688 -2.945312 3.859375 -2.71875 C 3.546875 -2.488281 3.242188 -2.242188 2.953125 -1.984375 C 2.835938 -1.878906 2.71875 -1.773438 2.59375 -1.671875 C 2.46875 -1.578125 2.335938 -1.476562 2.203125 -1.375 L 1.921875 -1.171875 C 1.679688 -0.972656 1.425781 -0.785156 1.15625 -0.609375 C 0.894531 -0.441406 0.613281 -0.304688 0.3125 -0.203125 C 0.175781 -0.160156 0.0546875 -0.140625 -0.046875 -0.140625 C -0.234375 -0.140625 -0.410156 -0.207031 -0.578125 -0.34375 C -0.847656 -0.539062 -0.96875 -0.820312 -0.9375 -1.1875 C -0.863281 -1.738281 -0.675781 -2.203125 -0.375 -2.578125 C -0.0703125 -2.960938 0.253906 -3.3125 0.609375 -3.625 C 0.671875 -3.6875 0.742188 -3.71875 0.828125 -3.71875 C 0.910156 -3.71875 0.992188 -3.679688 1.078125 -3.609375 C 1.160156 -3.523438 1.195312 -3.445312 1.1875 -3.375 C 1.1875 -3.3125 1.15625 -3.238281 1.09375 -3.15625 C 1.03125 -3.070312 0.972656 -2.988281 0.921875 -2.90625 C 0.867188 -2.820312 0.8125 -2.738281 0.75 -2.65625 C 0.664062 -2.53125 0.582031 -2.410156 0.5 -2.296875 C 0.414062 -2.191406 0.335938 -2.078125 0.265625 -1.953125 C 0.242188 -1.921875 0.21875 -1.882812 0.1875 -1.84375 C 0.15625 -1.800781 0.125 -1.757812 0.09375 -1.71875 C 0.0195312 -1.625 -0.0507812 -1.519531 -0.125 -1.40625 C -0.195312 -1.300781 -0.242188 -1.1875 -0.265625 -1.0625 C -0.304688 -0.90625 -0.289062 -0.785156 -0.21875 -0.703125 C -0.132812 -0.617188 -0.0078125 -0.578125 0.15625 -0.578125 C 0.238281 -0.578125 0.328125 -0.582031 0.421875 -0.59375 C 0.523438 -0.613281 0.601562 -0.632812 0.65625 -0.65625 C 0.800781 -0.71875 0.929688 -0.785156 1.046875 -0.859375 C 1.171875 -0.941406 1.296875 -1.023438 1.421875 -1.109375 C 1.691406 -1.316406 1.960938 -1.523438 2.234375 -1.734375 C 2.515625 -1.941406 2.785156 -2.144531 3.046875 -2.34375 C 3.265625 -2.507812 3.484375 -2.679688 3.703125 -2.859375 C 3.921875 -3.035156 4.140625 -3.203125 4.359375 -3.359375 C 4.390625 -3.378906 4.429688 -3.414062 4.484375 -3.46875 C 4.554688 -3.519531 4.628906 -3.570312 4.703125 -3.625 C 4.785156 -3.6875 4.875 -3.71875 4.96875 -3.71875 C 5.0625 -3.71875 5.171875 -3.664062 5.296875 -3.5625 C 5.421875 -3.445312 5.472656 -3.320312 5.453125 -3.1875 C 5.429688 -3.0625 5.390625 -2.929688 5.328125 -2.796875 C 5.296875 -2.722656 5.269531 -2.671875 5.25 -2.640625 C 5.207031 -2.492188 5.160156 -2.351562 5.109375 -2.21875 C 5.066406 -2.082031 5.015625 -1.945312 4.953125 -1.8125 C 4.867188 -1.582031 4.785156 -1.347656 4.703125 -1.109375 C 4.617188 -0.878906 4.539062 -0.640625 4.46875 -0.390625 L 4.578125 -0.34375 C 4.585938 -0.382812 4.632812 -0.429688 4.71875 -0.484375 C 4.8125 -0.535156 4.894531 -0.570312 4.96875 -0.59375 C 5.050781 -0.632812 5.101562 -0.664062 5.125 -0.6875 L 5.734375 -1.0625 C 6.335938 -1.4375 6.945312 -1.785156 7.5625 -2.109375 C 7.882812 -2.285156 8.203125 -2.441406 8.515625 -2.578125 C 8.554688 -2.609375 8.597656 -2.632812 8.640625 -2.65625 C 8.691406 -2.675781 8.734375 -2.695312 8.765625 -2.71875 C 8.890625 -2.769531 9.003906 -2.820312 9.109375 -2.875 C 9.222656 -2.925781 9.335938 -2.972656 9.453125 -3.015625 C 9.472656 -3.015625 9.488281 -3.015625 9.5 -3.015625 Z M -1.5 8.734375 C -0.71875 7.921875 -0.0703125 7.003906 0.4375 5.984375 C 0.957031 4.972656 1.445312 3.953125 1.90625 2.921875 L 1.8125 2.8125 C 0.664062 3.78125 -0.332031 4.859375 -1.1875 6.046875 C -1.394531 6.359375 -1.597656 6.679688 -1.796875 7.015625 C -2.003906 7.359375 -2.164062 7.738281 -2.28125 8.15625 C -2.289062 8.195312 -2.300781 8.25 -2.3125 8.3125 C -2.351562 8.414062 -2.378906 8.523438 -2.390625 8.640625 C -2.398438 8.765625 -2.335938 8.878906 -2.203125 8.984375 C -2.117188 9.046875 -2.035156 9.078125 -1.953125 9.078125 C -1.867188 9.078125 -1.796875 9.050781 -1.734375 9 C -1.679688 8.945312 -1.628906 8.890625 -1.578125 8.828125 C -1.546875 8.773438 -1.519531 8.742188 -1.5 8.734375 Z M -1.5 8.734375 "/></g></g></g><g fill="#ffffff" fill-opacity="1"><g transform="translate(52.750307, 18.289168)"><g><path d="M 6.25 -2.859375 C 6.28125 -2.828125 6.296875 -2.769531 6.296875 -2.6875 C 6.296875 -2.601562 6.242188 -2.523438 6.140625 -2.453125 C 6.035156 -2.378906 5.957031 -2.320312 5.90625 -2.28125 C 5.695312 -2.101562 5.484375 -1.925781 5.265625 -1.75 C 5.054688 -1.582031 4.84375 -1.425781 4.625 -1.28125 C 4.175781 -0.957031 3.695312 -0.664062 3.1875 -0.40625 C 2.675781 -0.15625 2.132812 0.046875 1.5625 0.203125 C 1.320312 0.253906 1.066406 0.28125 0.796875 0.28125 C 0.535156 0.28125 0.273438 0.160156 0.015625 -0.078125 C -0.242188 -0.296875 -0.390625 -0.535156 -0.421875 -0.796875 C -0.453125 -1.054688 -0.429688 -1.304688 -0.359375 -1.546875 C -0.140625 -2.359375 0.160156 -3.113281 0.546875 -3.8125 C 0.941406 -4.519531 1.414062 -5.175781 1.96875 -5.78125 C 2.03125 -5.863281 2.101562 -5.9375 2.1875 -6 C 2.28125 -6.070312 2.40625 -6.050781 2.5625 -5.9375 C 2.726562 -5.800781 2.78125 -5.679688 2.71875 -5.578125 C 2.664062 -5.484375 2.613281 -5.394531 2.5625 -5.3125 C 2.175781 -4.695312 1.804688 -4.082031 1.453125 -3.46875 C 1.097656 -2.863281 0.78125 -2.226562 0.5 -1.5625 C 0.457031 -1.4375 0.398438 -1.304688 0.328125 -1.171875 C 0.253906 -1.046875 0.21875 -0.914062 0.21875 -0.78125 C 0.21875 -0.644531 0.28125 -0.507812 0.40625 -0.375 C 0.625 -0.144531 0.863281 -0.046875 1.125 -0.078125 C 1.394531 -0.117188 1.632812 -0.164062 1.84375 -0.21875 C 2.3125 -0.320312 2.742188 -0.476562 3.140625 -0.6875 C 3.535156 -0.90625 3.910156 -1.148438 4.265625 -1.421875 C 4.316406 -1.453125 4.4375 -1.550781 4.625 -1.71875 C 4.820312 -1.882812 5.03125 -2.0625 5.25 -2.25 C 5.476562 -2.445312 5.6875 -2.601562 5.875 -2.71875 C 6.070312 -2.84375 6.195312 -2.890625 6.25 -2.859375 Z M 3.359375 -6.78125 C 3.078125 -6.757812 2.898438 -6.882812 2.828125 -7.15625 C 2.773438 -7.394531 2.800781 -7.566406 2.90625 -7.671875 C 3.007812 -7.773438 3.164062 -7.832031 3.375 -7.84375 C 3.519531 -7.851562 3.644531 -7.820312 3.75 -7.75 C 3.851562 -7.675781 3.929688 -7.550781 3.984375 -7.375 C 3.992188 -7.164062 3.9375 -7.019531 3.8125 -6.9375 C 3.695312 -6.851562 3.546875 -6.800781 3.359375 -6.78125 Z M 3.359375 -6.78125 "/></g></g></g><g fill="#ffffff" fill-opacity="1"><g transform="translate(58.667126, 18.289168)"><g><path d="M 9.890625 -3.015625 C 9.953125 -2.960938 9.992188 -2.914062 10.015625 -2.875 C 10.023438 -2.820312 10.015625 -2.773438 9.984375 -2.734375 C 9.953125 -2.691406 9.921875 -2.65625 9.890625 -2.625 C 9.835938 -2.570312 9.804688 -2.535156 9.796875 -2.515625 C 8.804688 -0.984375 7.398438 0.296875 5.578125 1.328125 C 5.390625 1.429688 5.144531 1.484375 4.84375 1.484375 L 4.8125 1.484375 C 4.507812 1.484375 4.28125 1.40625 4.125 1.25 C 3.957031 1.09375 3.875 0.863281 3.875 0.5625 C 3.875 0.28125 3.925781 0.03125 4.03125 -0.1875 C 4.144531 -0.40625 4.257812 -0.617188 4.375 -0.828125 L 4.5625 -1.109375 C 4.59375 -1.179688 4.628906 -1.253906 4.671875 -1.328125 C 4.710938 -1.398438 4.753906 -1.472656 4.796875 -1.546875 L 4.8125 -1.59375 C 4.832031 -1.644531 4.847656 -1.707031 4.859375 -1.78125 C 4.878906 -1.851562 4.847656 -1.929688 4.765625 -2.015625 C 4.671875 -2.109375 4.5625 -2.15625 4.4375 -2.15625 C 4.382812 -2.15625 4.328125 -2.140625 4.265625 -2.109375 C 4.023438 -2.066406 3.785156 -2.007812 3.546875 -1.9375 C 3.316406 -1.875 3.085938 -1.804688 2.859375 -1.734375 C 2.554688 -1.628906 2.265625 -1.503906 1.984375 -1.359375 C 1.703125 -1.210938 1.429688 -1.066406 1.171875 -0.921875 C 1.046875 -0.859375 0.925781 -0.789062 0.8125 -0.71875 C 0.695312 -0.65625 0.582031 -0.59375 0.46875 -0.53125 L 0.390625 -0.5 C 0.347656 -0.46875 0.296875 -0.4375 0.234375 -0.40625 C 0.171875 -0.382812 0.109375 -0.375 0.046875 -0.375 C -0.0546875 -0.375 -0.164062 -0.421875 -0.28125 -0.515625 C -0.414062 -0.640625 -0.484375 -0.75 -0.484375 -0.84375 C -0.484375 -0.945312 -0.472656 -1.054688 -0.453125 -1.171875 L -0.4375 -1.234375 C -0.21875 -2.210938 0.144531 -3.085938 0.65625 -3.859375 L 0.703125 -3.90625 C 0.722656 -3.957031 0.75 -4.003906 0.78125 -4.046875 C 0.820312 -4.085938 0.867188 -4.109375 0.921875 -4.109375 C 0.953125 -4.109375 0.984375 -4.097656 1.015625 -4.078125 C 1.097656 -4.035156 1.15625 -3.984375 1.1875 -3.921875 C 1.25 -3.804688 1.25 -3.664062 1.1875 -3.5 C 1.132812 -3.34375 1.078125 -3.210938 1.015625 -3.109375 C 0.984375 -3.035156 0.96875 -2.984375 0.96875 -2.953125 L 0.34375 -1.328125 C 0.332031 -1.304688 0.316406 -1.265625 0.296875 -1.203125 C 0.285156 -1.148438 0.304688 -1.109375 0.359375 -1.078125 C 0.410156 -1.035156 0.46875 -1.015625 0.53125 -1.015625 C 0.601562 -1.015625 0.6875 -1.03125 0.78125 -1.0625 C 0.882812 -1.09375 0.953125 -1.117188 0.984375 -1.140625 C 1.046875 -1.171875 1.097656 -1.203125 1.140625 -1.234375 C 1.191406 -1.265625 1.242188 -1.296875 1.296875 -1.328125 C 1.347656 -1.378906 1.398438 -1.421875 1.453125 -1.453125 C 1.515625 -1.484375 1.570312 -1.515625 1.625 -1.546875 C 1.820312 -1.640625 2.019531 -1.726562 2.21875 -1.8125 C 2.414062 -1.894531 2.613281 -1.976562 2.8125 -2.0625 C 3.300781 -2.269531 3.765625 -2.398438 4.203125 -2.453125 C 4.273438 -2.460938 4.335938 -2.46875 4.390625 -2.46875 C 4.703125 -2.46875 4.945312 -2.367188 5.125 -2.171875 C 5.332031 -1.941406 5.390625 -1.660156 5.296875 -1.328125 C 5.242188 -1.117188 5.175781 -0.921875 5.09375 -0.734375 C 5.019531 -0.546875 4.945312 -0.351562 4.875 -0.15625 C 4.832031 -0.0507812 4.789062 0.0507812 4.75 0.15625 C 4.707031 0.269531 4.660156 0.378906 4.609375 0.484375 L 4.59375 0.5625 C 4.550781 0.613281 4.523438 0.679688 4.515625 0.765625 C 4.503906 0.847656 4.535156 0.925781 4.609375 1 C 4.703125 1.09375 4.8125 1.140625 4.9375 1.140625 C 4.976562 1.140625 5.019531 1.132812 5.0625 1.125 C 5.113281 1.113281 5.164062 1.101562 5.21875 1.09375 C 5.78125 0.925781 6.269531 0.675781 6.6875 0.34375 C 7.101562 0.0195312 7.484375 -0.304688 7.828125 -0.640625 C 8.097656 -0.921875 8.390625 -1.226562 8.703125 -1.5625 C 9.023438 -1.90625 9.289062 -2.289062 9.5 -2.71875 L 9.546875 -2.765625 C 9.566406 -2.828125 9.597656 -2.890625 9.640625 -2.953125 C 9.679688 -3.015625 9.734375 -3.046875 9.796875 -3.046875 C 9.816406 -3.046875 9.847656 -3.035156 9.890625 -3.015625 Z M 9.890625 -3.015625 "/></g></g></g><g fill="#ffffff" fill-opacity="1"><g transform="translate(68.151959, 18.289168)"><g/></g></g><g fill="#ffffff" fill-opacity="1"><g transform="translate(73.530886, 18.289168)"><g><path d="M 18.3125 -16.15625 C 18.09375 -16.132812 17.898438 -16.1875 17.734375 -16.3125 C 17.578125 -16.4375 17.472656 -16.601562 17.421875 -16.8125 C 17.335938 -17.070312 17.359375 -17.273438 17.484375 -17.421875 C 17.609375 -17.578125 17.769531 -17.660156 17.96875 -17.671875 C 18.175781 -17.691406 18.367188 -17.644531 18.546875 -17.53125 C 18.722656 -17.414062 18.847656 -17.253906 18.921875 -17.046875 C 19.015625 -16.785156 18.992188 -16.570312 18.859375 -16.40625 C 18.722656 -16.25 18.539062 -16.164062 18.3125 -16.15625 Z M 16.3125 -16.390625 C 16.125 -16.390625 15.957031 -16.453125 15.8125 -16.578125 C 15.675781 -16.703125 15.585938 -16.859375 15.546875 -17.046875 C 15.515625 -17.296875 15.566406 -17.484375 15.703125 -17.609375 C 15.847656 -17.734375 16.039062 -17.800781 16.28125 -17.8125 C 16.4375 -17.820312 16.566406 -17.769531 16.671875 -17.65625 C 16.785156 -17.550781 16.875 -17.425781 16.9375 -17.28125 C 16.945312 -17.050781 16.90625 -16.847656 16.8125 -16.671875 C 16.726562 -16.492188 16.5625 -16.398438 16.3125 -16.390625 Z M 23.65625 -2.90625 C 23.707031 -2.84375 23.710938 -2.789062 23.671875 -2.75 C 23.640625 -2.707031 23.601562 -2.675781 23.5625 -2.65625 L 23.53125 -2.59375 C 21.75 -0.957031 19.710938 0.03125 17.421875 0.375 C 17.179688 0.394531 17 0.460938 16.875 0.578125 C 16.757812 0.703125 16.660156 0.84375 16.578125 1 C 15.597656 2.675781 14.546875 4.046875 13.421875 5.109375 C 13.046875 5.453125 12.644531 5.757812 12.21875 6.03125 C 11.84375 6.238281 11.492188 6.34375 11.171875 6.34375 C 10.890625 6.34375 10.597656 6.253906 10.296875 6.078125 C 9.921875 5.867188 9.660156 5.59375 9.515625 5.25 C 9.378906 4.90625 9.273438 4.566406 9.203125 4.234375 C 9.035156 3.453125 8.96875 2.695312 9 1.96875 C 9.039062 1.238281 9.113281 0.535156 9.21875 -0.140625 C 9.238281 -0.285156 9.257812 -0.429688 9.28125 -0.578125 C 9.3125 -0.722656 9.335938 -0.863281 9.359375 -1 C 9.453125 -1.519531 9.523438 -2.050781 9.578125 -2.59375 C 9.640625 -3.132812 9.59375 -3.734375 9.4375 -4.390625 C 9.195312 -5.429688 9.164062 -6.375 9.34375 -7.21875 C 9.53125 -8.070312 9.835938 -8.847656 10.265625 -9.546875 C 10.703125 -10.242188 11.175781 -10.890625 11.6875 -11.484375 C 12.914062 -12.898438 14.28125 -13.773438 15.78125 -14.109375 C 16.101562 -14.179688 16.421875 -14.21875 16.734375 -14.21875 C 17.703125 -14.21875 18.535156 -13.894531 19.234375 -13.25 C 19.984375 -12.53125 20.375 -11.59375 20.40625 -10.4375 C 20.445312 -9.445312 20.375 -8.507812 20.1875 -7.625 C 20 -6.738281 19.753906 -5.894531 19.453125 -5.09375 C 19.160156 -4.289062 18.859375 -3.519531 18.546875 -2.78125 C 18.410156 -2.488281 18.273438 -2.195312 18.140625 -1.90625 C 18.003906 -1.613281 17.859375 -1.316406 17.703125 -1.015625 C 17.628906 -0.878906 17.554688 -0.734375 17.484375 -0.578125 C 17.410156 -0.429688 17.34375 -0.28125 17.28125 -0.125 L 17.21875 0 L 17.359375 -0.015625 C 18.453125 -0.148438 19.441406 -0.445312 20.328125 -0.90625 C 21.222656 -1.363281 22.085938 -1.875 22.921875 -2.4375 C 22.929688 -2.445312 22.96875 -2.476562 23.03125 -2.53125 C 23.101562 -2.59375 23.203125 -2.671875 23.328125 -2.765625 C 23.460938 -2.859375 23.570312 -2.90625 23.65625 -2.90625 Z M 16.203125 0.71875 L 16.265625 0.609375 L 16.125 0.609375 C 15.070312 0.535156 14.101562 0.359375 13.21875 0.078125 C 12.332031 -0.203125 11.488281 -0.742188 10.6875 -1.546875 L 10.59375 -1.609375 L 10.578125 -1.53125 C 10.296875 -0.507812 10.09375 0.460938 9.96875 1.390625 C 9.851562 2.328125 9.878906 3.289062 10.046875 4.28125 C 10.140625 4.894531 10.316406 5.3125 10.578125 5.53125 C 10.722656 5.65625 10.898438 5.71875 11.109375 5.71875 C 11.347656 5.71875 11.632812 5.625 11.96875 5.4375 C 12.894531 4.894531 13.679688 4.210938 14.328125 3.390625 C 14.972656 2.578125 15.597656 1.6875 16.203125 0.71875 Z M 15.796875 0.171875 C 16.421875 0.171875 16.828125 -0.0859375 17.015625 -0.609375 C 17.085938 -0.785156 17.171875 -0.960938 17.265625 -1.140625 C 17.359375 -1.316406 17.445312 -1.476562 17.53125 -1.625 C 17.613281 -1.769531 17.691406 -1.914062 17.765625 -2.0625 C 17.847656 -2.207031 17.914062 -2.351562 17.96875 -2.5 L 18.09375 -2.796875 C 18.414062 -3.566406 18.726562 -4.34375 19.03125 -5.125 C 19.34375 -5.914062 19.582031 -6.738281 19.75 -7.59375 C 19.925781 -8.445312 19.992188 -9.351562 19.953125 -10.3125 C 19.890625 -11.4375 19.546875 -12.296875 18.921875 -12.890625 C 18.441406 -13.335938 17.867188 -13.5625 17.203125 -13.5625 C 16.785156 -13.5625 16.347656 -13.472656 15.890625 -13.296875 C 12.648438 -12.023438 10.679688 -9.585938 9.984375 -5.984375 C 9.921875 -5.660156 9.898438 -5.320312 9.921875 -4.96875 C 9.953125 -4.625 9.992188 -4.273438 10.046875 -3.921875 L 10.0625 -3.796875 L 10.15625 -3.859375 C 10.300781 -3.929688 10.398438 -4.019531 10.453125 -4.125 C 10.503906 -4.226562 10.546875 -4.335938 10.578125 -4.453125 C 10.609375 -4.484375 10.628906 -4.515625 10.640625 -4.546875 C 10.648438 -4.585938 10.660156 -4.617188 10.671875 -4.640625 C 11.117188 -5.515625 11.609375 -6.394531 12.140625 -7.28125 C 12.671875 -8.164062 13.296875 -8.984375 14.015625 -9.734375 C 14.046875 -9.773438 14.085938 -9.832031 14.140625 -9.90625 C 14.210938 -9.988281 14.285156 -10.066406 14.359375 -10.140625 C 14.429688 -10.222656 14.519531 -10.265625 14.625 -10.265625 C 14.695312 -10.265625 14.78125 -10.226562 14.875 -10.15625 C 14.925781 -10.09375 14.960938 -10.03125 14.984375 -9.96875 C 15.003906 -9.894531 14.988281 -9.8125 14.9375 -9.71875 C 14.882812 -9.632812 14.820312 -9.550781 14.75 -9.46875 C 14.6875 -9.382812 14.644531 -9.328125 14.625 -9.296875 L 14.375 -8.890625 C 13.769531 -7.953125 13.175781 -6.988281 12.59375 -6 C 12.019531 -5.019531 11.503906 -4 11.046875 -2.9375 C 10.898438 -2.582031 10.894531 -2.273438 11.03125 -2.015625 C 11.164062 -1.753906 11.375 -1.507812 11.65625 -1.28125 C 12.28125 -0.757812 12.914062 -0.40625 13.5625 -0.21875 C 14.207031 -0.0390625 14.84375 0.078125 15.46875 0.140625 C 15.582031 0.160156 15.691406 0.171875 15.796875 0.171875 Z M 15.796875 0.171875 "/></g></g></g><g fill="#ffffff" fill-opacity="1"><g transform="translate(96.767836, 18.289168)"><g><path d="M 8.515625 -3.375 C 8.515625 -3.382812 8.519531 -3.382812 8.53125 -3.375 C 8.550781 -3.375 8.546875 -3.351562 8.515625 -3.3125 C 8.421875 -3.15625 8.304688 -3.015625 8.171875 -2.890625 C 8.046875 -2.765625 7.90625 -2.648438 7.75 -2.546875 L 7.546875 -2.390625 C 7.171875 -2.085938 6.78125 -1.738281 6.375 -1.34375 C 6.0625 -1.0625 5.753906 -0.765625 5.453125 -0.453125 C 5.148438 -0.148438 4.859375 0.148438 4.578125 0.453125 L 4.125 0.921875 C 4.007812 1.035156 3.925781 1.164062 3.875 1.3125 C 3.820312 1.457031 3.78125 1.617188 3.75 1.796875 C 3.207031 5.109375 1.945312 7.859375 -0.03125 10.046875 C -0.257812 10.296875 -0.503906 10.472656 -0.765625 10.578125 C -0.910156 10.640625 -1.046875 10.671875 -1.171875 10.671875 C -1.347656 10.671875 -1.488281 10.617188 -1.59375 10.515625 C -1.757812 10.359375 -1.859375 10.117188 -1.890625 9.796875 C -1.898438 9.410156 -1.851562 9.050781 -1.75 8.71875 C -1.644531 8.394531 -1.503906 8.0625 -1.328125 7.71875 C -0.898438 6.851562 -0.398438 6.046875 0.171875 5.296875 C 0.753906 4.546875 1.34375 3.820312 1.9375 3.125 C 2.09375 2.925781 2.25 2.726562 2.40625 2.53125 C 2.570312 2.332031 2.734375 2.140625 2.890625 1.953125 C 2.929688 1.910156 2.984375 1.847656 3.046875 1.765625 C 3.171875 1.628906 3.285156 1.476562 3.390625 1.3125 C 3.492188 1.15625 3.539062 0.957031 3.53125 0.71875 C 3.519531 0.375 3.425781 0.109375 3.25 -0.078125 C 3.09375 -0.203125 2.898438 -0.265625 2.671875 -0.265625 C 2.585938 -0.265625 2.492188 -0.253906 2.390625 -0.234375 C 2.273438 -0.210938 2.164062 -0.179688 2.0625 -0.140625 C 1.96875 -0.109375 1.867188 -0.0664062 1.765625 -0.015625 C 1.703125 0.00390625 1.632812 0.0234375 1.5625 0.046875 C 1.488281 0.078125 1.414062 0.101562 1.34375 0.125 C 1.320312 0.132812 1.289062 0.148438 1.25 0.171875 C 1.21875 0.191406 1.191406 0.207031 1.171875 0.21875 C 1.117188 0.238281 1.066406 0.257812 1.015625 0.28125 C 0.972656 0.3125 0.925781 0.328125 0.875 0.328125 C 0.84375 0.328125 0.796875 0.3125 0.734375 0.28125 C 0.679688 0.257812 0.628906 0.207031 0.578125 0.125 C 0.484375 -0.0195312 0.457031 -0.128906 0.5 -0.203125 C 0.539062 -0.285156 0.613281 -0.367188 0.71875 -0.453125 C 0.78125 -0.492188 0.820312 -0.53125 0.84375 -0.5625 C 0.9375 -0.65625 1.035156 -0.742188 1.140625 -0.828125 C 1.253906 -0.921875 1.359375 -1.015625 1.453125 -1.109375 C 1.617188 -1.253906 1.78125 -1.398438 1.9375 -1.546875 C 2.09375 -1.691406 2.242188 -1.832031 2.390625 -1.96875 C 3.191406 -2.789062 3.753906 -3.613281 4.078125 -4.4375 C 4.117188 -4.539062 4.148438 -4.664062 4.171875 -4.8125 C 4.203125 -4.96875 4.140625 -5.113281 3.984375 -5.25 C 3.878906 -5.351562 3.757812 -5.40625 3.625 -5.40625 C 3.550781 -5.40625 3.484375 -5.394531 3.421875 -5.375 C 3.367188 -5.351562 3.3125 -5.332031 3.25 -5.3125 L 3.15625 -5.28125 C 2.738281 -5.125 2.375 -4.90625 2.0625 -4.625 C 1.75 -4.351562 1.453125 -4.066406 1.171875 -3.765625 L 0.9375 -3.53125 C 0.875 -3.457031 0.8125 -3.390625 0.75 -3.328125 C 0.6875 -3.273438 0.625 -3.21875 0.5625 -3.15625 L 0.5 -3.125 C 0.425781 -3.0625 0.375 -3.03125 0.34375 -3.03125 C 0.289062 -3.03125 0.242188 -3.054688 0.203125 -3.109375 C 0.0859375 -3.191406 0.0664062 -3.300781 0.140625 -3.4375 C 0.835938 -4.8125 1.910156 -5.570312 3.359375 -5.71875 C 3.390625 -5.71875 3.425781 -5.71875 3.46875 -5.71875 C 3.71875 -5.71875 3.921875 -5.640625 4.078125 -5.484375 C 4.265625 -5.296875 4.347656 -5.03125 4.328125 -4.6875 C 4.296875 -4.320312 4.210938 -3.988281 4.078125 -3.6875 C 3.953125 -3.394531 3.816406 -3.125 3.671875 -2.875 C 3.191406 -2.070312 2.597656 -1.300781 1.890625 -0.5625 L 1.78125 -0.453125 L 1.953125 -0.46875 C 2.035156 -0.46875 2.113281 -0.46875 2.1875 -0.46875 C 2.632812 -0.46875 2.984375 -0.375 3.234375 -0.1875 C 3.484375 -0.0078125 3.660156 0.28125 3.765625 0.6875 L 3.875 0.6875 C 3.882812 0.65625 3.9375 0.59375 4.03125 0.5 C 4.125 0.414062 4.203125 0.351562 4.265625 0.3125 C 4.335938 0.25 4.378906 0.210938 4.390625 0.203125 C 4.484375 0.0976562 4.578125 0 4.671875 -0.09375 C 4.765625 -0.1875 4.859375 -0.285156 4.953125 -0.390625 L 5.09375 -0.53125 C 5.25 -0.707031 5.40625 -0.878906 5.5625 -1.046875 C 5.71875 -1.210938 5.878906 -1.378906 6.046875 -1.546875 C 6.609375 -2.117188 7.175781 -2.585938 7.75 -2.953125 C 7.800781 -2.992188 7.847656 -3.03125 7.890625 -3.0625 C 7.941406 -3.101562 7.988281 -3.140625 8.03125 -3.171875 L 8.125 -3.25 C 8.144531 -3.257812 8.203125 -3.28125 8.296875 -3.3125 C 8.390625 -3.351562 8.460938 -3.375 8.515625 -3.375 Z M -0.875 9.921875 C 0.0195312 8.960938 0.800781 7.863281 1.46875 6.625 C 2.132812 5.382812 2.710938 3.941406 3.203125 2.296875 L 3.109375 2.21875 C 2.335938 3.019531 1.582031 3.851562 0.84375 4.71875 C 0.101562 5.582031 -0.523438 6.546875 -1.046875 7.609375 C -1.316406 8.171875 -1.507812 8.789062 -1.625 9.46875 C -1.675781 9.695312 -1.644531 9.867188 -1.53125 9.984375 C -1.457031 10.066406 -1.363281 10.109375 -1.25 10.109375 C -1.125 10.109375 -1 10.046875 -0.875 9.921875 Z M -0.875 9.921875 "/></g></g></g><g fill="#ffffff" fill-opacity="1"><g transform="translate(104.44177, 18.289168)"><g><path d="M 0.28125 -1.109375 C 0.15625 -0.628906 0.0664062 -0.125 0.015625 0.40625 C 0.015625 0.46875 0.0195312 0.550781 0.03125 0.65625 C 0.0390625 0.769531 0.0859375 0.859375 0.171875 0.921875 C 0.222656 0.960938 0.285156 0.984375 0.359375 0.984375 C 0.410156 0.984375 0.457031 0.972656 0.5 0.953125 C 0.726562 0.890625 0.9375 0.78125 1.125 0.625 C 1.3125 0.476562 1.476562 0.335938 1.625 0.203125 C 2.019531 -0.171875 2.3125 -0.632812 2.5 -1.1875 C 2.519531 -1.257812 2.535156 -1.332031 2.546875 -1.40625 C 2.554688 -1.488281 2.519531 -1.570312 2.4375 -1.65625 C 2.351562 -1.757812 2.257812 -1.8125 2.15625 -1.8125 C 2.113281 -1.8125 2.070312 -1.804688 2.03125 -1.796875 C 2 -1.785156 1.96875 -1.773438 1.9375 -1.765625 C 1.882812 -1.734375 1.835938 -1.710938 1.796875 -1.703125 C 1.753906 -1.703125 1.710938 -1.703125 1.671875 -1.703125 C 1.609375 -1.691406 1.5625 -1.6875 1.53125 -1.6875 C 1.332031 -1.6875 1.203125 -1.757812 1.140625 -1.90625 C 1.117188 -1.988281 1.117188 -2.050781 1.140625 -2.09375 C 1.179688 -2.164062 1.285156 -2.207031 1.453125 -2.21875 C 2.085938 -2.289062 2.691406 -2.378906 3.265625 -2.484375 C 3.847656 -2.597656 4.367188 -2.703125 4.828125 -2.796875 C 4.992188 -2.847656 5.160156 -2.890625 5.328125 -2.921875 C 5.503906 -2.960938 5.675781 -3.003906 5.84375 -3.046875 L 5.90625 -3.0625 C 5.988281 -3.09375 6.046875 -3.109375 6.078125 -3.109375 C 6.140625 -3.109375 6.195312 -3.066406 6.25 -2.984375 C 6.269531 -2.929688 6.273438 -2.894531 6.265625 -2.875 C 6.253906 -2.832031 6.222656 -2.804688 6.171875 -2.796875 C 6.128906 -2.785156 6.085938 -2.773438 6.046875 -2.765625 L 5.109375 -2.5625 C 4.828125 -2.488281 4.535156 -2.421875 4.234375 -2.359375 C 3.929688 -2.296875 3.632812 -2.226562 3.34375 -2.15625 C 3.132812 -2.113281 2.976562 -2.039062 2.875 -1.9375 C 2.769531 -1.84375 2.71875 -1.65625 2.71875 -1.375 C 2.71875 -0.832031 2.5625 -0.378906 2.25 -0.015625 C 1.9375 0.335938 1.59375 0.671875 1.21875 0.984375 L 1.09375 1.09375 C 0.976562 1.1875 0.851562 1.28125 0.71875 1.375 C 0.59375 1.476562 0.445312 1.53125 0.28125 1.53125 C 0.113281 1.53125 -0.0546875 1.460938 -0.234375 1.328125 C -0.503906 1.140625 -0.640625 0.921875 -0.640625 0.671875 C -0.640625 0.429688 -0.617188 0.195312 -0.578125 -0.03125 L -0.5625 -0.21875 C -0.0390625 -3.09375 0.992188 -5.679688 2.546875 -7.984375 L 2.9375 -8.578125 C 3.269531 -9.078125 3.613281 -9.578125 3.96875 -10.078125 C 4.332031 -10.578125 4.722656 -11.054688 5.140625 -11.515625 C 5.265625 -11.648438 5.40625 -11.78125 5.5625 -11.90625 C 5.71875 -12.03125 5.894531 -12.117188 6.09375 -12.171875 C 6.226562 -12.210938 6.351562 -12.234375 6.46875 -12.234375 C 6.757812 -12.234375 7 -12.140625 7.1875 -11.953125 C 7.425781 -11.722656 7.546875 -11.414062 7.546875 -11.03125 C 7.546875 -10.320312 7.414062 -9.695312 7.15625 -9.15625 C 6.894531 -8.613281 6.601562 -8.125 6.28125 -7.6875 C 4.988281 -5.957031 3.363281 -4.519531 1.40625 -3.375 C 1.375 -3.351562 1.335938 -3.332031 1.296875 -3.3125 C 1.234375 -3.28125 1.171875 -3.242188 1.109375 -3.203125 C 1.046875 -3.160156 1 -3.101562 0.96875 -3.03125 C 0.9375 -2.894531 0.894531 -2.765625 0.84375 -2.640625 C 0.789062 -2.523438 0.742188 -2.40625 0.703125 -2.28125 C 0.628906 -2.082031 0.554688 -1.882812 0.484375 -1.6875 C 0.410156 -1.5 0.34375 -1.304688 0.28125 -1.109375 Z M 1.5 -4.453125 C 1.46875 -4.367188 1.429688 -4.28125 1.390625 -4.1875 C 1.359375 -4.09375 1.320312 -4.003906 1.28125 -3.921875 L 1.359375 -3.84375 C 2.953125 -4.6875 4.332031 -5.820312 5.5 -7.25 C 6.34375 -8.257812 6.867188 -9.28125 7.078125 -10.3125 L 7.078125 -10.390625 C 7.128906 -10.585938 7.15625 -10.800781 7.15625 -11.03125 C 7.164062 -11.269531 7.050781 -11.46875 6.8125 -11.625 C 6.71875 -11.6875 6.625 -11.71875 6.53125 -11.71875 C 6.382812 -11.71875 6.253906 -11.660156 6.140625 -11.546875 C 6.035156 -11.441406 5.941406 -11.335938 5.859375 -11.234375 L 5.796875 -11.15625 C 4.515625 -9.582031 3.269531 -7.722656 2.0625 -5.578125 C 1.957031 -5.398438 1.859375 -5.210938 1.765625 -5.015625 C 1.671875 -4.828125 1.582031 -4.640625 1.5 -4.453125 Z M 1.5 -4.453125 "/></g></g></g><g fill="#ffffff" fill-opacity="1"><g transform="translate(110.197212, 18.289168)"><g><path d="M 6.140625 -2.65625 C 6.222656 -2.695312 6.316406 -2.71875 6.421875 -2.71875 C 6.429688 -2.664062 6.40625 -2.609375 6.34375 -2.546875 C 6.289062 -2.492188 6.238281 -2.445312 6.1875 -2.40625 L 6.078125 -2.3125 C 5.648438 -1.988281 5.210938 -1.675781 4.765625 -1.375 C 4.328125 -1.070312 3.851562 -0.820312 3.34375 -0.625 C 2.832031 -0.425781 2.269531 -0.328125 1.65625 -0.328125 L 1.578125 -0.328125 C 0.960938 -0.328125 0.488281 -0.507812 0.15625 -0.875 C -0.132812 -1.226562 -0.234375 -1.648438 -0.140625 -2.140625 C 0.191406 -3.773438 1.253906 -4.832031 3.046875 -5.3125 C 3.140625 -5.332031 3.238281 -5.34375 3.34375 -5.34375 C 3.625 -5.34375 3.851562 -5.21875 4.03125 -4.96875 C 4.175781 -4.78125 4.222656 -4.613281 4.171875 -4.46875 C 4.117188 -4.332031 4.035156 -4.191406 3.921875 -4.046875 C 3.441406 -3.460938 2.65625 -3.085938 1.5625 -2.921875 C 1.164062 -2.859375 0.90625 -2.703125 0.78125 -2.453125 C 0.664062 -2.203125 0.578125 -1.9375 0.515625 -1.65625 L 0.5 -1.53125 C 0.46875 -1.363281 0.5 -1.207031 0.59375 -1.0625 C 0.726562 -0.882812 0.9375 -0.75 1.21875 -0.65625 C 1.4375 -0.601562 1.664062 -0.578125 1.90625 -0.578125 C 2.09375 -0.578125 2.273438 -0.59375 2.453125 -0.625 C 2.628906 -0.664062 2.820312 -0.710938 3.03125 -0.765625 C 3.664062 -0.953125 4.300781 -1.257812 4.9375 -1.6875 C 5.207031 -1.863281 5.484375 -2.078125 5.765625 -2.328125 C 5.785156 -2.335938 5.804688 -2.351562 5.828125 -2.375 C 5.847656 -2.40625 5.875 -2.429688 5.90625 -2.453125 C 5.9375 -2.492188 5.96875 -2.523438 6 -2.546875 C 6.039062 -2.578125 6.085938 -2.613281 6.140625 -2.65625 Z M 1.78125 -3.5625 L 1.65625 -3.421875 L 1.84375 -3.484375 C 2.257812 -3.578125 2.613281 -3.703125 2.90625 -3.859375 C 3.207031 -4.015625 3.460938 -4.265625 3.671875 -4.609375 L 3.75 -4.75 L 3.59375 -4.703125 C 3.238281 -4.585938 2.910156 -4.445312 2.609375 -4.28125 C 2.316406 -4.125 2.039062 -3.882812 1.78125 -3.5625 Z M 1.78125 -3.5625 "/></g></g></g><g fill="#ffffff" fill-opacity="1"><g transform="translate(116.311255, 18.289168)"><g><path d="M 9.5 -3.015625 C 9.53125 -2.992188 9.523438 -2.945312 9.484375 -2.875 C 9.441406 -2.8125 9.398438 -2.757812 9.359375 -2.71875 C 9.242188 -2.625 9.109375 -2.535156 8.953125 -2.453125 C 8.804688 -2.378906 8.65625 -2.304688 8.5 -2.234375 C 8.425781 -2.203125 8.351562 -2.164062 8.28125 -2.125 C 8.207031 -2.082031 8.144531 -2.046875 8.09375 -2.015625 C 7.851562 -1.878906 7.613281 -1.742188 7.375 -1.609375 C 7.144531 -1.484375 6.914062 -1.347656 6.6875 -1.203125 C 5.695312 -0.585938 4.832031 0.0195312 4.09375 0.625 C 3.820312 0.851562 3.617188 1.117188 3.484375 1.421875 L 3.046875 2.328125 C 2.660156 3.117188 2.269531 3.921875 1.875 4.734375 C 1.488281 5.546875 1.0625 6.335938 0.59375 7.109375 C 0.40625 7.398438 0.175781 7.726562 -0.09375 8.09375 C -0.363281 8.457031 -0.691406 8.796875 -1.078125 9.109375 C -1.160156 9.171875 -1.25 9.234375 -1.34375 9.296875 C -1.445312 9.367188 -1.566406 9.414062 -1.703125 9.4375 C -1.804688 9.46875 -1.894531 9.484375 -1.96875 9.484375 C -2.144531 9.484375 -2.300781 9.421875 -2.4375 9.296875 C -2.539062 9.191406 -2.597656 9.085938 -2.609375 8.984375 C -2.628906 8.890625 -2.632812 8.773438 -2.625 8.640625 C -2.582031 8.367188 -2.507812 8.113281 -2.40625 7.875 C -2.3125 7.644531 -2.207031 7.421875 -2.09375 7.203125 C -1.175781 5.460938 0.160156 3.773438 1.921875 2.140625 C 2.484375 1.609375 2.921875 1.007812 3.234375 0.34375 C 3.429688 -0.0703125 3.632812 -0.488281 3.84375 -0.90625 C 4.0625 -1.332031 4.28125 -1.753906 4.5 -2.171875 L 5.09375 -3.359375 L 4.9375 -3.296875 C 4.539062 -3.140625 4.179688 -2.945312 3.859375 -2.71875 C 3.546875 -2.488281 3.242188 -2.242188 2.953125 -1.984375 C 2.835938 -1.878906 2.71875 -1.773438 2.59375 -1.671875 C 2.46875 -1.578125 2.335938 -1.476562 2.203125 -1.375 L 1.921875 -1.171875 C 1.679688 -0.972656 1.425781 -0.785156 1.15625 -0.609375 C 0.894531 -0.441406 0.613281 -0.304688 0.3125 -0.203125 C 0.175781 -0.160156 0.0546875 -0.140625 -0.046875 -0.140625 C -0.234375 -0.140625 -0.410156 -0.207031 -0.578125 -0.34375 C -0.847656 -0.539062 -0.96875 -0.820312 -0.9375 -1.1875 C -0.863281 -1.738281 -0.675781 -2.203125 -0.375 -2.578125 C -0.0703125 -2.960938 0.253906 -3.3125 0.609375 -3.625 C 0.671875 -3.6875 0.742188 -3.71875 0.828125 -3.71875 C 0.910156 -3.71875 0.992188 -3.679688 1.078125 -3.609375 C 1.160156 -3.523438 1.195312 -3.445312 1.1875 -3.375 C 1.1875 -3.3125 1.15625 -3.238281 1.09375 -3.15625 C 1.03125 -3.070312 0.972656 -2.988281 0.921875 -2.90625 C 0.867188 -2.820312 0.8125 -2.738281 0.75 -2.65625 C 0.664062 -2.53125 0.582031 -2.410156 0.5 -2.296875 C 0.414062 -2.191406 0.335938 -2.078125 0.265625 -1.953125 C 0.242188 -1.921875 0.21875 -1.882812 0.1875 -1.84375 C 0.15625 -1.800781 0.125 -1.757812 0.09375 -1.71875 C 0.0195312 -1.625 -0.0507812 -1.519531 -0.125 -1.40625 C -0.195312 -1.300781 -0.242188 -1.1875 -0.265625 -1.0625 C -0.304688 -0.90625 -0.289062 -0.785156 -0.21875 -0.703125 C -0.132812 -0.617188 -0.0078125 -0.578125 0.15625 -0.578125 C 0.238281 -0.578125 0.328125 -0.582031 0.421875 -0.59375 C 0.523438 -0.613281 0.601562 -0.632812 0.65625 -0.65625 C 0.800781 -0.71875 0.929688 -0.785156 1.046875 -0.859375 C 1.171875 -0.941406 1.296875 -1.023438 1.421875 -1.109375 C 1.691406 -1.316406 1.960938 -1.523438 2.234375 -1.734375 C 2.515625 -1.941406 2.785156 -2.144531 3.046875 -2.34375 C 3.265625 -2.507812 3.484375 -2.679688 3.703125 -2.859375 C 3.921875 -3.035156 4.140625 -3.203125 4.359375 -3.359375 C 4.390625 -3.378906 4.429688 -3.414062 4.484375 -3.46875 C 4.554688 -3.519531 4.628906 -3.570312 4.703125 -3.625 C 4.785156 -3.6875 4.875 -3.71875 4.96875 -3.71875 C 5.0625 -3.71875 5.171875 -3.664062 5.296875 -3.5625 C 5.421875 -3.445312 5.472656 -3.320312 5.453125 -3.1875 C 5.429688 -3.0625 5.390625 -2.929688 5.328125 -2.796875 C 5.296875 -2.722656 5.269531 -2.671875 5.25 -2.640625 C 5.207031 -2.492188 5.160156 -2.351562 5.109375 -2.21875 C 5.066406 -2.082031 5.015625 -1.945312 4.953125 -1.8125 C 4.867188 -1.582031 4.785156 -1.347656 4.703125 -1.109375 C 4.617188 -0.878906 4.539062 -0.640625 4.46875 -0.390625 L 4.578125 -0.34375 C 4.585938 -0.382812 4.632812 -0.429688 4.71875 -0.484375 C 4.8125 -0.535156 4.894531 -0.570312 4.96875 -0.59375 C 5.050781 -0.632812 5.101562 -0.664062 5.125 -0.6875 L 5.734375 -1.0625 C 6.335938 -1.4375 6.945312 -1.785156 7.5625 -2.109375 C 7.882812 -2.285156 8.203125 -2.441406 8.515625 -2.578125 C 8.554688 -2.609375 8.597656 -2.632812 8.640625 -2.65625 C 8.691406 -2.675781 8.734375 -2.695312 8.765625 -2.71875 C 8.890625 -2.769531 9.003906 -2.820312 9.109375 -2.875 C 9.222656 -2.925781 9.335938 -2.972656 9.453125 -3.015625 C 9.472656 -3.015625 9.488281 -3.015625 9.5 -3.015625 Z M -1.5 8.734375 C -0.71875 7.921875 -0.0703125 7.003906 0.4375 5.984375 C 0.957031 4.972656 1.445312 3.953125 1.90625 2.921875 L 1.8125 2.8125 C 0.664062 3.78125 -0.332031 4.859375 -1.1875 6.046875 C -1.394531 6.359375 -1.597656 6.679688 -1.796875 7.015625 C -2.003906 7.359375 -2.164062 7.738281 -2.28125 8.15625 C -2.289062 8.195312 -2.300781 8.25 -2.3125 8.3125 C -2.351562 8.414062 -2.378906 8.523438 -2.390625 8.640625 C -2.398438 8.765625 -2.335938 8.878906 -2.203125 8.984375 C -2.117188 9.046875 -2.035156 9.078125 -1.953125 9.078125 C -1.867188 9.078125 -1.796875 9.050781 -1.734375 9 C -1.679688 8.945312 -1.628906 8.890625 -1.578125 8.828125 C -1.546875 8.773438 -1.519531 8.742188 -1.5 8.734375 Z M -1.5 8.734375 "/></g></g></g></svg>