<svg xmlns="http://www.w3.org/2000/svg" xmlns:xlink="http://www.w3.org/1999/xlink" width="300" zoomAndPan="magnify" viewBox="0 0 224.87999 30.000001" height="40" preserveAspectRatio="xMidYMid meet" version="1.0"><defs><g/></defs><g fill="#000000" fill-opacity="1"><g transform="translate(3.569024, 17.5719)"><g><path d="M 13.9375 -16.890625 C 14.175781 -17.179688 14.320312 -17.210938 14.375 -16.984375 C 14.40625 -16.835938 14.398438 -16.628906 14.359375 -16.359375 C 14.316406 -16.085938 14.273438 -15.890625 14.234375 -15.765625 C 14.085938 -15.328125 13.867188 -14.753906 13.578125 -14.046875 C 13.296875 -13.347656 12.960938 -12.570312 12.578125 -11.71875 C 12.203125 -10.863281 11.804688 -9.984375 11.390625 -9.078125 C 10.984375 -8.171875 10.582031 -7.289062 10.1875 -6.4375 C 9.800781 -5.59375 9.441406 -4.828125 9.109375 -4.140625 C 8.785156 -3.453125 8.519531 -2.898438 8.3125 -2.484375 L 8.25 -2.40625 C 8.207031 -2.320312 8.164062 -2.238281 8.125 -2.15625 C 8.09375 -2.070312 8.046875 -1.976562 7.984375 -1.875 L 7.71875 -1.328125 L 7.890625 -1.40625 C 8.722656 -1.65625 9.570312 -1.898438 10.4375 -2.140625 C 11.300781 -2.390625 12.179688 -2.578125 13.078125 -2.703125 C 13.242188 -2.734375 13.359375 -2.800781 13.421875 -2.90625 C 13.492188 -3.007812 13.554688 -3.117188 13.609375 -3.234375 C 13.617188 -3.265625 13.625 -3.289062 13.625 -3.3125 C 13.632812 -3.34375 13.644531 -3.375 13.65625 -3.40625 C 14.332031 -4.882812 15.015625 -6.207031 15.703125 -7.375 C 16.390625 -8.539062 17.113281 -9.609375 17.875 -10.578125 C 17.914062 -10.617188 17.96875 -10.691406 18.03125 -10.796875 C 18.113281 -10.910156 18.203125 -11.023438 18.296875 -11.140625 C 18.390625 -11.253906 18.488281 -11.3125 18.59375 -11.3125 C 18.644531 -11.3125 18.695312 -11.296875 18.75 -11.265625 C 18.832031 -11.191406 18.878906 -11.125 18.890625 -11.0625 C 18.921875 -10.957031 18.898438 -10.859375 18.828125 -10.765625 C 18.765625 -10.671875 18.691406 -10.582031 18.609375 -10.5 C 18.566406 -10.445312 18.523438 -10.398438 18.484375 -10.359375 C 18.453125 -10.316406 18.425781 -10.273438 18.40625 -10.234375 L 18.0625 -9.671875 C 17.488281 -8.722656 16.921875 -7.757812 16.359375 -6.78125 C 15.796875 -5.8125 15.273438 -4.816406 14.796875 -3.796875 C 14.773438 -3.765625 14.75 -3.71875 14.71875 -3.65625 C 14.664062 -3.570312 14.617188 -3.476562 14.578125 -3.375 C 14.546875 -3.28125 14.554688 -3.15625 14.609375 -3 L 14.734375 -3 C 14.753906 -3.007812 14.847656 -3.015625 15.015625 -3.015625 C 15.191406 -3.023438 15.382812 -3.035156 15.59375 -3.046875 C 15.8125 -3.066406 16.015625 -3.078125 16.203125 -3.078125 C 16.390625 -3.085938 16.519531 -3.09375 16.59375 -3.09375 C 16.644531 -3.09375 16.703125 -3.09375 16.765625 -3.09375 C 16.835938 -3.101562 16.90625 -3.109375 16.96875 -3.109375 C 17.050781 -3.109375 17.132812 -3.109375 17.21875 -3.109375 C 17.300781 -3.109375 17.390625 -3.109375 17.484375 -3.109375 C 17.628906 -3.109375 17.753906 -3.109375 17.859375 -3.109375 L 17.96875 -3.09375 C 18.050781 -3.09375 18.140625 -3.085938 18.234375 -3.078125 C 18.328125 -3.078125 18.398438 -3.054688 18.453125 -3.015625 C 18.515625 -2.992188 18.546875 -2.972656 18.546875 -2.953125 C 18.546875 -2.898438 18.503906 -2.847656 18.421875 -2.796875 C 18.335938 -2.753906 18.265625 -2.722656 18.203125 -2.703125 C 18.054688 -2.679688 17.90625 -2.664062 17.75 -2.65625 C 17.601562 -2.644531 17.457031 -2.640625 17.3125 -2.640625 L 16.890625 -2.640625 C 16.785156 -2.640625 16.6875 -2.640625 16.59375 -2.640625 C 16.3125 -2.628906 16.019531 -2.613281 15.71875 -2.59375 C 15.425781 -2.570312 15.132812 -2.546875 14.84375 -2.515625 C 14.382812 -2.441406 14.0625 -2.207031 13.875 -1.8125 C 13.507812 -0.988281 13.171875 -0.148438 12.859375 0.703125 C 12.554688 1.554688 12.257812 2.398438 11.96875 3.234375 C 11.769531 3.796875 11.566406 4.359375 11.359375 4.921875 C 11.160156 5.492188 10.953125 6.0625 10.734375 6.625 C 10.679688 6.738281 10.625 6.851562 10.5625 6.96875 C 10.5 7.082031 10.410156 7.171875 10.296875 7.234375 C 10.253906 7.242188 10.222656 7.25 10.203125 7.25 C 10.179688 7.226562 10.160156 7.15625 10.140625 7.03125 C 10.128906 6.914062 10.164062 6.671875 10.25 6.296875 L 10.28125 6.21875 C 10.363281 5.832031 10.457031 5.445312 10.5625 5.0625 C 10.664062 4.6875 10.769531 4.304688 10.875 3.921875 L 11.09375 3.203125 C 11.25 2.703125 11.421875 2.203125 11.609375 1.703125 C 11.796875 1.203125 11.988281 0.703125 12.1875 0.203125 L 12.546875 -0.75 C 12.585938 -0.851562 12.628906 -0.960938 12.671875 -1.078125 C 12.722656 -1.203125 12.765625 -1.328125 12.796875 -1.453125 C 12.816406 -1.472656 12.835938 -1.519531 12.859375 -1.59375 C 12.867188 -1.664062 12.890625 -1.765625 12.921875 -1.890625 C 12.960938 -2.015625 12.992188 -2.082031 13.015625 -2.09375 L 12.953125 -2.234375 C 11.953125 -2.066406 11.019531 -1.859375 10.15625 -1.609375 C 9.300781 -1.359375 8.515625 -1.109375 7.796875 -0.859375 C 7.472656 -0.742188 7.21875 -0.535156 7.03125 -0.234375 C 6.894531 0.015625 6.753906 0.265625 6.609375 0.515625 C 6.460938 0.765625 6.316406 1.015625 6.171875 1.265625 C 5.835938 1.804688 5.507812 2.351562 5.1875 2.90625 C 4.863281 3.46875 4.550781 4.023438 4.25 4.578125 C 4.132812 4.796875 4.039062 5.023438 3.96875 5.265625 C 3.894531 5.503906 3.828125 5.738281 3.765625 5.96875 C 3.722656 6.101562 3.679688 6.226562 3.640625 6.34375 C 3.609375 6.46875 3.570312 6.597656 3.53125 6.734375 C 3.445312 6.984375 3.335938 7.191406 3.203125 7.359375 L 3.140625 7.453125 C 3.085938 7.535156 3.019531 7.617188 2.9375 7.703125 C 2.851562 7.796875 2.765625 7.84375 2.671875 7.84375 C 2.578125 7.84375 2.476562 7.804688 2.375 7.734375 C 2.195312 7.617188 2.109375 7.5 2.109375 7.375 C 2.117188 7.25 2.160156 7.097656 2.234375 6.921875 L 2.28125 6.84375 C 2.5625 6.050781 2.867188 5.316406 3.203125 4.640625 C 3.453125 4.128906 3.46875 3.6875 3.25 3.3125 C 3.050781 2.9375 2.625 2.648438 1.96875 2.453125 C 1.914062 2.429688 1.859375 2.414062 1.796875 2.40625 C 1.734375 2.40625 1.679688 2.40625 1.640625 2.40625 C 1.484375 2.382812 1.351562 2.359375 1.25 2.328125 C 1.144531 2.296875 1.066406 2.195312 1.015625 2.03125 C 0.953125 1.851562 0.96875 1.726562 1.0625 1.65625 C 1.15625 1.582031 1.269531 1.515625 1.40625 1.453125 C 1.4375 1.441406 1.46875 1.425781 1.5 1.40625 C 1.539062 1.382812 1.582031 1.367188 1.625 1.359375 C 2.289062 0.960938 2.960938 0.613281 3.640625 0.3125 C 4.328125 0.0078125 4.984375 -0.265625 5.609375 -0.515625 C 5.773438 -0.585938 5.9375 -0.664062 6.09375 -0.75 C 6.25 -0.84375 6.375 -0.972656 6.46875 -1.140625 L 6.859375 -1.84375 C 7.015625 -2.132812 7.234375 -2.566406 7.515625 -3.140625 C 7.796875 -3.710938 8.101562 -4.367188 8.4375 -5.109375 C 8.78125 -5.847656 9.132812 -6.617188 9.5 -7.421875 C 9.863281 -8.222656 10.210938 -8.992188 10.546875 -9.734375 C 10.878906 -10.472656 11.179688 -11.128906 11.453125 -11.703125 C 11.722656 -12.285156 11.929688 -12.734375 12.078125 -13.046875 C 12.296875 -13.472656 12.503906 -13.90625 12.703125 -14.34375 C 12.898438 -14.789062 13.101562 -15.242188 13.3125 -15.703125 C 13.40625 -15.890625 13.5 -16.09375 13.59375 -16.3125 C 13.6875 -16.53125 13.800781 -16.722656 13.9375 -16.890625 Z M 5.671875 0.234375 L 5.5 0.265625 C 4.84375 0.410156 4.222656 0.617188 3.640625 0.890625 C 3.054688 1.160156 2.421875 1.492188 1.734375 1.890625 L 1.578125 1.96875 L 1.765625 2.015625 C 2.203125 2.128906 2.570312 2.289062 2.875 2.5 C 3.1875 2.707031 3.476562 3.015625 3.75 3.421875 L 3.8125 3.53125 Z M 5.671875 0.234375 "/></g></g></g><g fill="#000000" fill-opacity="1"><g transform="translate(22.672472, 17.5719)"><g><path d="M 4.765625 -6.015625 C 4.617188 -6.003906 4.488281 -6.039062 4.375 -6.125 C 4.269531 -6.207031 4.203125 -6.320312 4.171875 -6.46875 C 4.109375 -6.644531 4.117188 -6.78125 4.203125 -6.875 C 4.285156 -6.96875 4.394531 -7.019531 4.53125 -7.03125 C 4.664062 -7.0625 4.796875 -7.035156 4.921875 -6.953125 C 5.046875 -6.878906 5.132812 -6.769531 5.1875 -6.625 C 5.25 -6.445312 5.234375 -6.300781 5.140625 -6.1875 C 5.046875 -6.082031 4.921875 -6.023438 4.765625 -6.015625 Z M 3.421875 -6.1875 C 3.296875 -6.1875 3.1875 -6.226562 3.09375 -6.3125 C 3 -6.394531 2.9375 -6.5 2.90625 -6.625 C 2.882812 -6.789062 2.921875 -6.914062 3.015625 -7 C 3.117188 -7.082031 3.25 -7.128906 3.40625 -7.140625 C 3.507812 -7.140625 3.597656 -7.101562 3.671875 -7.03125 C 3.742188 -6.957031 3.800781 -6.875 3.84375 -6.78125 C 3.84375 -6.625 3.8125 -6.488281 3.75 -6.375 C 3.695312 -6.257812 3.585938 -6.195312 3.421875 -6.1875 Z M 10.25 -2.875 C 10.300781 -2.832031 10.328125 -2.796875 10.328125 -2.765625 C 10.335938 -2.722656 10.300781 -2.660156 10.21875 -2.578125 C 9.664062 -2.035156 9.050781 -1.515625 8.375 -1.015625 C 7.695312 -0.515625 6.910156 -0.144531 6.015625 0.09375 C 5.804688 0.15625 5.609375 0.1875 5.421875 0.1875 C 5.066406 0.1875 4.769531 0.078125 4.53125 -0.140625 C 4.175781 -0.441406 3.957031 -0.960938 3.875 -1.703125 L 3.859375 -1.84375 L 3.328125 -1.40625 C 3.160156 -1.257812 2.988281 -1.113281 2.8125 -0.96875 C 2.644531 -0.820312 2.476562 -0.679688 2.3125 -0.546875 C 1.875 -0.191406 1.398438 0.0625 0.890625 0.21875 C 0.734375 0.269531 0.597656 0.296875 0.484375 0.296875 C 0.265625 0.296875 0.0703125 0.222656 -0.09375 0.078125 C -0.394531 -0.179688 -0.523438 -0.492188 -0.484375 -0.859375 C -0.316406 -2.347656 0.335938 -3.828125 1.484375 -5.296875 C 1.578125 -5.410156 1.671875 -5.46875 1.765625 -5.46875 C 1.835938 -5.46875 1.910156 -5.441406 1.984375 -5.390625 C 2.066406 -5.316406 2.101562 -5.242188 2.09375 -5.171875 C 2.082031 -5.097656 2.050781 -5.007812 2 -4.90625 C 1.914062 -4.726562 1.820312 -4.546875 1.71875 -4.359375 C 1.613281 -4.171875 1.507812 -3.976562 1.40625 -3.78125 C 1.132812 -3.300781 0.875 -2.804688 0.625 -2.296875 C 0.382812 -1.796875 0.242188 -1.253906 0.203125 -0.671875 C 0.203125 -0.617188 0.203125 -0.5625 0.203125 -0.5 C 0.210938 -0.445312 0.242188 -0.394531 0.296875 -0.34375 C 0.347656 -0.28125 0.410156 -0.242188 0.484375 -0.234375 C 0.523438 -0.234375 0.5625 -0.234375 0.59375 -0.234375 C 0.726562 -0.234375 0.859375 -0.257812 0.984375 -0.3125 C 1.117188 -0.375 1.238281 -0.429688 1.34375 -0.484375 C 2.84375 -1.265625 3.882812 -2.285156 4.46875 -3.546875 C 4.488281 -3.566406 4.503906 -3.59375 4.515625 -3.625 C 4.523438 -3.664062 4.535156 -3.707031 4.546875 -3.75 C 4.578125 -3.851562 4.617188 -3.953125 4.671875 -4.046875 C 4.722656 -4.148438 4.796875 -4.203125 4.890625 -4.203125 C 4.960938 -4.203125 5.039062 -4.171875 5.125 -4.109375 C 5.238281 -4.046875 5.3125 -3.976562 5.34375 -3.90625 C 5.382812 -3.820312 5.390625 -3.738281 5.359375 -3.65625 C 5.328125 -3.570312 5.285156 -3.488281 5.234375 -3.40625 C 5.222656 -3.351562 5.207031 -3.304688 5.1875 -3.265625 C 5.175781 -3.234375 5.160156 -3.203125 5.140625 -3.171875 C 5.109375 -3.066406 5.070312 -2.960938 5.03125 -2.859375 C 5 -2.753906 4.960938 -2.65625 4.921875 -2.5625 C 4.847656 -2.351562 4.78125 -2.140625 4.71875 -1.921875 C 4.65625 -1.703125 4.609375 -1.476562 4.578125 -1.25 C 4.546875 -0.90625 4.609375 -0.644531 4.765625 -0.46875 C 4.921875 -0.3125 5.191406 -0.226562 5.578125 -0.21875 C 5.992188 -0.21875 6.359375 -0.285156 6.671875 -0.421875 C 6.984375 -0.566406 7.28125 -0.722656 7.5625 -0.890625 C 8.59375 -1.492188 9.398438 -2.117188 9.984375 -2.765625 C 9.992188 -2.773438 10.015625 -2.800781 10.046875 -2.84375 C 10.085938 -2.894531 10.125 -2.921875 10.15625 -2.921875 C 10.175781 -2.921875 10.207031 -2.90625 10.25 -2.875 Z M 10.25 -2.875 "/></g></g></g><g fill="#000000" fill-opacity="1"><g transform="translate(32.478907, 17.5719)"><g><path d="M 6.1875 -3.21875 L 6.21875 -3.140625 C 6.21875 -3.097656 6.160156 -3.0625 6.046875 -3.03125 C 5.929688 -3.007812 5.835938 -2.992188 5.765625 -2.984375 C 5.691406 -2.972656 5.648438 -2.96875 5.640625 -2.96875 C 5.472656 -2.914062 5.300781 -2.867188 5.125 -2.828125 C 4.957031 -2.785156 4.789062 -2.734375 4.625 -2.671875 C 3.976562 -2.472656 3.425781 -2.257812 2.96875 -2.03125 C 2.613281 -1.851562 2.285156 -1.640625 1.984375 -1.390625 C 1.679688 -1.148438 1.488281 -0.785156 1.40625 -0.296875 C 1.226562 0.617188 0.6875 1.46875 -0.21875 2.25 C -0.570312 2.550781 -0.929688 2.703125 -1.296875 2.703125 C -1.546875 2.703125 -1.765625 2.625 -1.953125 2.46875 C -2.191406 2.269531 -2.3125 2 -2.3125 1.65625 C -2.3125 1.3125 -2.179688 0.988281 -1.921875 0.6875 C -1.609375 0.289062 -1.234375 -0.0507812 -0.796875 -0.34375 C -0.367188 -0.632812 0.0664062 -0.894531 0.515625 -1.125 C 0.785156 -1.269531 0.929688 -1.445312 0.953125 -1.65625 C 0.984375 -1.863281 0.890625 -2.128906 0.671875 -2.453125 C 0.585938 -2.566406 0.507812 -2.679688 0.4375 -2.796875 C 0.363281 -2.910156 0.289062 -3.023438 0.21875 -3.140625 L 0.09375 -3.359375 C -0.1875 -3.804688 -0.1875 -4.171875 0.09375 -4.453125 C 1.019531 -5.398438 2.1875 -5.914062 3.59375 -6 L 3.6875 -6 C 4.007812 -6 4.253906 -5.898438 4.421875 -5.703125 C 4.597656 -5.503906 4.648438 -5.226562 4.578125 -4.875 C 4.492188 -4.507812 4.269531 -4.191406 3.90625 -3.921875 C 3.882812 -3.898438 3.851562 -3.875 3.8125 -3.84375 C 3.769531 -3.820312 3.722656 -3.8125 3.671875 -3.8125 C 3.617188 -3.8125 3.566406 -3.835938 3.515625 -3.890625 C 3.441406 -3.941406 3.410156 -3.992188 3.421875 -4.046875 C 3.429688 -4.109375 3.453125 -4.1875 3.484375 -4.28125 C 3.554688 -4.40625 3.625 -4.53125 3.6875 -4.65625 C 3.757812 -4.789062 3.832031 -4.914062 3.90625 -5.03125 C 3.945312 -5.101562 3.972656 -5.175781 3.984375 -5.25 C 4.003906 -5.320312 3.984375 -5.410156 3.921875 -5.515625 C 3.847656 -5.617188 3.75 -5.671875 3.625 -5.671875 C 3.59375 -5.671875 3.546875 -5.664062 3.484375 -5.65625 L 3.4375 -5.65625 C 2.269531 -5.53125 1.335938 -5.085938 0.640625 -4.328125 C 0.410156 -4.078125 0.441406 -3.78125 0.734375 -3.4375 C 0.890625 -3.257812 1.03125 -3.0625 1.15625 -2.84375 C 1.289062 -2.601562 1.421875 -2.40625 1.546875 -2.25 C 1.671875 -2.101562 1.828125 -2.03125 2.015625 -2.03125 C 2.128906 -2.03125 2.265625 -2.066406 2.421875 -2.140625 C 2.878906 -2.347656 3.347656 -2.53125 3.828125 -2.6875 C 4.304688 -2.84375 4.757812 -2.984375 5.1875 -3.109375 C 5.257812 -3.128906 5.367188 -3.15625 5.515625 -3.1875 C 5.671875 -3.226562 5.816406 -3.25 5.953125 -3.25 C 6.023438 -3.25 6.078125 -3.242188 6.109375 -3.234375 C 6.148438 -3.222656 6.175781 -3.21875 6.1875 -3.21875 Z M -0.796875 2.21875 C 0.171875 1.707031 0.765625 0.757812 0.984375 -0.625 L 0.875 -0.671875 C 0.863281 -0.617188 0.796875 -0.5625 0.671875 -0.5 C 0.546875 -0.4375 0.4375 -0.378906 0.34375 -0.328125 C 0.21875 -0.265625 0.144531 -0.222656 0.125 -0.203125 C -0.164062 0.00390625 -0.425781 0.207031 -0.65625 0.40625 L -0.78125 0.515625 C -0.976562 0.679688 -1.179688 0.875 -1.390625 1.09375 C -1.597656 1.320312 -1.71875 1.5625 -1.75 1.8125 C -1.757812 1.976562 -1.722656 2.109375 -1.640625 2.203125 C -1.554688 2.285156 -1.425781 2.328125 -1.25 2.328125 C -1.15625 2.328125 -1.066406 2.3125 -0.984375 2.28125 C -0.910156 2.257812 -0.847656 2.238281 -0.796875 2.21875 Z M -0.796875 2.21875 "/></g></g></g><g fill="#000000" fill-opacity="1"><g transform="translate(38.173555, 17.5719)"><g><path d="M 6.21875 -2.6875 C 6.300781 -2.738281 6.398438 -2.765625 6.515625 -2.765625 C 6.523438 -2.703125 6.5 -2.644531 6.4375 -2.59375 C 6.375 -2.539062 6.320312 -2.488281 6.28125 -2.4375 L 6.171875 -2.34375 C 5.734375 -2.019531 5.289062 -1.703125 4.84375 -1.390625 C 4.394531 -1.078125 3.910156 -0.820312 3.390625 -0.625 C 2.878906 -0.425781 2.304688 -0.328125 1.671875 -0.328125 L 1.59375 -0.328125 C 0.976562 -0.328125 0.5 -0.515625 0.15625 -0.890625 C -0.144531 -1.242188 -0.242188 -1.671875 -0.140625 -2.171875 C 0.191406 -3.828125 1.269531 -4.898438 3.09375 -5.390625 C 3.1875 -5.410156 3.285156 -5.421875 3.390625 -5.421875 C 3.671875 -5.421875 3.90625 -5.289062 4.09375 -5.03125 C 4.238281 -4.84375 4.28125 -4.675781 4.21875 -4.53125 C 4.164062 -4.394531 4.085938 -4.253906 3.984375 -4.109375 C 3.492188 -3.515625 2.691406 -3.132812 1.578125 -2.96875 C 1.179688 -2.90625 0.921875 -2.742188 0.796875 -2.484375 C 0.679688 -2.234375 0.59375 -1.960938 0.53125 -1.671875 L 0.515625 -1.546875 C 0.472656 -1.378906 0.5 -1.222656 0.59375 -1.078125 C 0.726562 -0.890625 0.941406 -0.753906 1.234375 -0.671875 C 1.453125 -0.609375 1.679688 -0.578125 1.921875 -0.578125 C 2.117188 -0.578125 2.304688 -0.59375 2.484375 -0.625 C 2.671875 -0.664062 2.867188 -0.71875 3.078125 -0.78125 C 3.710938 -0.96875 4.351562 -1.273438 5 -1.703125 C 5.28125 -1.890625 5.5625 -2.109375 5.84375 -2.359375 C 5.863281 -2.367188 5.882812 -2.382812 5.90625 -2.40625 C 5.9375 -2.4375 5.960938 -2.460938 5.984375 -2.484375 C 6.015625 -2.523438 6.046875 -2.5625 6.078125 -2.59375 C 6.117188 -2.625 6.164062 -2.65625 6.21875 -2.6875 Z M 1.796875 -3.625 L 1.671875 -3.46875 L 1.875 -3.53125 C 2.300781 -3.625 2.660156 -3.75 2.953125 -3.90625 C 3.253906 -4.0625 3.515625 -4.316406 3.734375 -4.671875 L 3.796875 -4.8125 L 3.640625 -4.765625 C 3.285156 -4.648438 2.957031 -4.507812 2.65625 -4.34375 C 2.351562 -4.1875 2.066406 -3.945312 1.796875 -3.625 Z M 1.796875 -3.625 "/></g></g></g><g fill="#000000" fill-opacity="1"><g transform="translate(44.377625, 17.5719)"><g><path d="M 9.640625 -3.0625 C 9.660156 -3.03125 9.648438 -2.976562 9.609375 -2.90625 C 9.566406 -2.84375 9.53125 -2.796875 9.5 -2.765625 C 9.375 -2.671875 9.234375 -2.582031 9.078125 -2.5 C 8.929688 -2.414062 8.78125 -2.34375 8.625 -2.28125 C 8.550781 -2.238281 8.476562 -2.195312 8.40625 -2.15625 C 8.332031 -2.113281 8.265625 -2.070312 8.203125 -2.03125 C 7.960938 -1.90625 7.722656 -1.773438 7.484375 -1.640625 C 7.242188 -1.503906 7.007812 -1.363281 6.78125 -1.21875 C 5.78125 -0.601562 4.898438 0.015625 4.140625 0.640625 C 3.878906 0.867188 3.675781 1.132812 3.53125 1.4375 L 3.09375 2.359375 C 2.707031 3.160156 2.3125 3.972656 1.90625 4.796875 C 1.507812 5.617188 1.070312 6.421875 0.59375 7.203125 C 0.40625 7.503906 0.175781 7.835938 -0.09375 8.203125 C -0.375 8.578125 -0.707031 8.921875 -1.09375 9.234375 C -1.175781 9.296875 -1.269531 9.359375 -1.375 9.421875 C -1.476562 9.492188 -1.597656 9.539062 -1.734375 9.5625 C -1.835938 9.601562 -1.925781 9.625 -2 9.625 C -2.1875 9.625 -2.34375 9.554688 -2.46875 9.421875 C -2.582031 9.328125 -2.644531 9.226562 -2.65625 9.125 C -2.664062 9.019531 -2.664062 8.898438 -2.65625 8.765625 C -2.613281 8.484375 -2.539062 8.222656 -2.4375 7.984375 C -2.34375 7.753906 -2.238281 7.53125 -2.125 7.3125 C -1.195312 5.539062 0.160156 3.828125 1.953125 2.171875 C 2.515625 1.628906 2.957031 1.019531 3.28125 0.34375 C 3.476562 -0.0820312 3.6875 -0.503906 3.90625 -0.921875 C 4.125 -1.347656 4.34375 -1.773438 4.5625 -2.203125 L 5.171875 -3.40625 L 5 -3.34375 C 4.601562 -3.1875 4.242188 -2.988281 3.921875 -2.75 C 3.597656 -2.519531 3.289062 -2.273438 3 -2.015625 C 2.875 -1.910156 2.75 -1.804688 2.625 -1.703125 C 2.5 -1.597656 2.367188 -1.5 2.234375 -1.40625 L 1.953125 -1.1875 C 1.703125 -0.988281 1.441406 -0.800781 1.171875 -0.625 C 0.910156 -0.445312 0.625 -0.304688 0.3125 -0.203125 C 0.175781 -0.160156 0.0546875 -0.140625 -0.046875 -0.140625 C -0.234375 -0.140625 -0.410156 -0.207031 -0.578125 -0.34375 C -0.859375 -0.550781 -0.984375 -0.835938 -0.953125 -1.203125 C -0.878906 -1.753906 -0.6875 -2.222656 -0.375 -2.609375 C -0.0703125 -3.003906 0.257812 -3.359375 0.625 -3.671875 C 0.675781 -3.734375 0.75 -3.765625 0.84375 -3.765625 C 0.925781 -3.765625 1.007812 -3.726562 1.09375 -3.65625 C 1.175781 -3.570312 1.210938 -3.492188 1.203125 -3.421875 C 1.203125 -3.359375 1.171875 -3.285156 1.109375 -3.203125 C 1.046875 -3.117188 0.988281 -3.03125 0.9375 -2.9375 C 0.882812 -2.851562 0.828125 -2.769531 0.765625 -2.6875 C 0.679688 -2.570312 0.59375 -2.457031 0.5 -2.34375 C 0.414062 -2.226562 0.335938 -2.109375 0.265625 -1.984375 C 0.242188 -1.941406 0.21875 -1.898438 0.1875 -1.859375 C 0.15625 -1.816406 0.125 -1.78125 0.09375 -1.75 C 0.0195312 -1.644531 -0.0507812 -1.535156 -0.125 -1.421875 C -0.195312 -1.316406 -0.242188 -1.203125 -0.265625 -1.078125 C -0.304688 -0.921875 -0.289062 -0.796875 -0.21875 -0.703125 C -0.132812 -0.617188 -0.0078125 -0.578125 0.15625 -0.578125 C 0.25 -0.578125 0.34375 -0.585938 0.4375 -0.609375 C 0.53125 -0.628906 0.609375 -0.648438 0.671875 -0.671875 C 0.816406 -0.734375 0.945312 -0.800781 1.0625 -0.875 C 1.1875 -0.957031 1.3125 -1.039062 1.4375 -1.125 C 1.71875 -1.332031 1.992188 -1.539062 2.265625 -1.75 C 2.546875 -1.96875 2.820312 -2.175781 3.09375 -2.375 C 3.3125 -2.550781 3.53125 -2.726562 3.75 -2.90625 C 3.976562 -3.082031 4.203125 -3.25 4.421875 -3.40625 C 4.453125 -3.425781 4.492188 -3.460938 4.546875 -3.515625 C 4.617188 -3.566406 4.691406 -3.617188 4.765625 -3.671875 C 4.847656 -3.734375 4.9375 -3.765625 5.03125 -3.765625 C 5.132812 -3.765625 5.242188 -3.71875 5.359375 -3.625 C 5.492188 -3.5 5.550781 -3.367188 5.53125 -3.234375 C 5.507812 -3.097656 5.46875 -2.96875 5.40625 -2.84375 C 5.363281 -2.769531 5.335938 -2.710938 5.328125 -2.671875 C 5.273438 -2.523438 5.222656 -2.378906 5.171875 -2.234375 C 5.128906 -2.097656 5.078125 -1.96875 5.015625 -1.84375 C 4.929688 -1.601562 4.847656 -1.363281 4.765625 -1.125 C 4.679688 -0.894531 4.601562 -0.65625 4.53125 -0.40625 L 4.640625 -0.34375 C 4.648438 -0.394531 4.695312 -0.441406 4.78125 -0.484375 C 4.875 -0.535156 4.957031 -0.570312 5.03125 -0.59375 C 5.125 -0.644531 5.179688 -0.675781 5.203125 -0.6875 L 5.8125 -1.078125 C 6.425781 -1.460938 7.046875 -1.816406 7.671875 -2.140625 C 8.003906 -2.316406 8.328125 -2.476562 8.640625 -2.625 C 8.671875 -2.644531 8.710938 -2.664062 8.765625 -2.6875 C 8.816406 -2.71875 8.859375 -2.742188 8.890625 -2.765625 C 9.015625 -2.816406 9.128906 -2.867188 9.234375 -2.921875 C 9.347656 -2.972656 9.460938 -3.019531 9.578125 -3.0625 C 9.609375 -3.0625 9.628906 -3.0625 9.640625 -3.0625 Z M -1.53125 8.859375 C -0.726562 8.035156 -0.0664062 7.109375 0.453125 6.078125 C 0.972656 5.046875 1.460938 4.007812 1.921875 2.96875 L 1.84375 2.859375 C 0.675781 3.835938 -0.335938 4.925781 -1.203125 6.125 C -1.421875 6.445312 -1.628906 6.78125 -1.828125 7.125 C -2.035156 7.46875 -2.195312 7.851562 -2.3125 8.28125 C -2.320312 8.3125 -2.332031 8.359375 -2.34375 8.421875 C -2.382812 8.523438 -2.410156 8.640625 -2.421875 8.765625 C -2.429688 8.890625 -2.367188 9.003906 -2.234375 9.109375 C -2.148438 9.171875 -2.066406 9.203125 -1.984375 9.203125 C -1.898438 9.203125 -1.828125 9.175781 -1.765625 9.125 C -1.703125 9.070312 -1.644531 9.015625 -1.59375 8.953125 C -1.5625 8.898438 -1.539062 8.867188 -1.53125 8.859375 Z M -1.53125 8.859375 "/></g></g></g><g fill="#000000" fill-opacity="1"><g transform="translate(53.474504, 17.5719)"><g><path d="M 6.328125 -2.890625 C 6.367188 -2.867188 6.390625 -2.816406 6.390625 -2.734375 C 6.390625 -2.640625 6.335938 -2.554688 6.234375 -2.484375 C 6.128906 -2.410156 6.046875 -2.351562 5.984375 -2.3125 C 5.773438 -2.125 5.5625 -1.945312 5.34375 -1.78125 C 5.125 -1.613281 4.90625 -1.453125 4.6875 -1.296875 C 4.226562 -0.960938 3.738281 -0.664062 3.21875 -0.40625 C 2.707031 -0.15625 2.160156 0.046875 1.578125 0.203125 C 1.335938 0.265625 1.082031 0.296875 0.8125 0.296875 C 0.550781 0.296875 0.285156 0.171875 0.015625 -0.078125 C -0.242188 -0.304688 -0.390625 -0.550781 -0.421875 -0.8125 C -0.453125 -1.070312 -0.429688 -1.320312 -0.359375 -1.5625 C -0.140625 -2.382812 0.164062 -3.15625 0.5625 -3.875 C 0.957031 -4.59375 1.4375 -5.253906 2 -5.859375 C 2.0625 -5.941406 2.132812 -6.019531 2.21875 -6.09375 C 2.3125 -6.164062 2.4375 -6.140625 2.59375 -6.015625 C 2.769531 -5.878906 2.828125 -5.757812 2.765625 -5.65625 C 2.703125 -5.5625 2.644531 -5.472656 2.59375 -5.390625 C 2.207031 -4.765625 1.832031 -4.140625 1.46875 -3.515625 C 1.101562 -2.898438 0.785156 -2.253906 0.515625 -1.578125 C 0.460938 -1.460938 0.398438 -1.335938 0.328125 -1.203125 C 0.253906 -1.066406 0.21875 -0.925781 0.21875 -0.78125 C 0.21875 -0.644531 0.285156 -0.507812 0.421875 -0.375 C 0.640625 -0.144531 0.878906 -0.046875 1.140625 -0.078125 C 1.410156 -0.117188 1.65625 -0.164062 1.875 -0.21875 C 2.34375 -0.320312 2.773438 -0.484375 3.171875 -0.703125 C 3.578125 -0.921875 3.960938 -1.164062 4.328125 -1.4375 C 4.378906 -1.46875 4.5 -1.566406 4.6875 -1.734375 C 4.882812 -1.910156 5.097656 -2.09375 5.328125 -2.28125 C 5.554688 -2.476562 5.765625 -2.640625 5.953125 -2.765625 C 6.148438 -2.890625 6.273438 -2.929688 6.328125 -2.890625 Z M 3.40625 -6.875 C 3.125 -6.851562 2.945312 -6.976562 2.875 -7.25 C 2.8125 -7.5 2.832031 -7.675781 2.9375 -7.78125 C 3.050781 -7.882812 3.210938 -7.941406 3.421875 -7.953125 C 3.566406 -7.960938 3.691406 -7.929688 3.796875 -7.859375 C 3.910156 -7.785156 3.988281 -7.65625 4.03125 -7.46875 C 4.050781 -7.269531 4 -7.125 3.875 -7.03125 C 3.75 -6.945312 3.59375 -6.894531 3.40625 -6.875 Z M 3.40625 -6.875 "/></g></g></g><g fill="#000000" fill-opacity="1"><g transform="translate(59.478449, 17.5719)"><g><path d="M 10.015625 -3.0625 C 10.085938 -3.007812 10.132812 -2.957031 10.15625 -2.90625 C 10.164062 -2.863281 10.15625 -2.816406 10.125 -2.765625 C 10.09375 -2.722656 10.054688 -2.6875 10.015625 -2.65625 C 9.972656 -2.601562 9.945312 -2.566406 9.9375 -2.546875 C 8.925781 -0.992188 7.5 0.300781 5.65625 1.34375 C 5.457031 1.457031 5.207031 1.515625 4.90625 1.515625 L 4.875 1.515625 C 4.570312 1.515625 4.34375 1.429688 4.1875 1.265625 C 4.007812 1.109375 3.921875 0.875 3.921875 0.5625 C 3.921875 0.28125 3.972656 0.03125 4.078125 -0.1875 C 4.191406 -0.414062 4.3125 -0.632812 4.4375 -0.84375 L 4.625 -1.125 C 4.65625 -1.195312 4.691406 -1.269531 4.734375 -1.34375 C 4.773438 -1.414062 4.816406 -1.488281 4.859375 -1.5625 L 4.875 -1.625 C 4.894531 -1.664062 4.914062 -1.722656 4.9375 -1.796875 C 4.957031 -1.867188 4.925781 -1.945312 4.84375 -2.03125 C 4.738281 -2.132812 4.625 -2.1875 4.5 -2.1875 C 4.445312 -2.1875 4.390625 -2.171875 4.328125 -2.140625 C 4.085938 -2.097656 3.847656 -2.039062 3.609375 -1.96875 C 3.367188 -1.90625 3.128906 -1.835938 2.890625 -1.765625 C 2.585938 -1.648438 2.289062 -1.519531 2 -1.375 C 1.71875 -1.226562 1.445312 -1.078125 1.1875 -0.921875 C 1.0625 -0.867188 0.941406 -0.804688 0.828125 -0.734375 C 0.710938 -0.671875 0.59375 -0.609375 0.46875 -0.546875 L 0.40625 -0.515625 C 0.351562 -0.472656 0.296875 -0.4375 0.234375 -0.40625 C 0.171875 -0.382812 0.109375 -0.375 0.046875 -0.375 C -0.0546875 -0.375 -0.171875 -0.425781 -0.296875 -0.53125 C -0.421875 -0.644531 -0.484375 -0.753906 -0.484375 -0.859375 C -0.484375 -0.960938 -0.472656 -1.070312 -0.453125 -1.1875 L -0.4375 -1.25 C -0.21875 -2.25 0.148438 -3.132812 0.671875 -3.90625 L 0.703125 -3.96875 C 0.734375 -4.007812 0.765625 -4.050781 0.796875 -4.09375 C 0.835938 -4.144531 0.878906 -4.171875 0.921875 -4.171875 C 0.960938 -4.171875 1 -4.15625 1.03125 -4.125 C 1.113281 -4.09375 1.171875 -4.046875 1.203125 -3.984375 C 1.265625 -3.859375 1.265625 -3.710938 1.203125 -3.546875 C 1.148438 -3.390625 1.09375 -3.253906 1.03125 -3.140625 C 1 -3.066406 0.984375 -3.019531 0.984375 -3 L 0.34375 -1.34375 C 0.332031 -1.320312 0.320312 -1.28125 0.3125 -1.21875 C 0.300781 -1.164062 0.316406 -1.125 0.359375 -1.09375 C 0.410156 -1.050781 0.472656 -1.03125 0.546875 -1.03125 C 0.617188 -1.03125 0.703125 -1.046875 0.796875 -1.078125 C 0.898438 -1.109375 0.96875 -1.132812 1 -1.15625 C 1.0625 -1.1875 1.113281 -1.21875 1.15625 -1.25 C 1.207031 -1.28125 1.257812 -1.3125 1.3125 -1.34375 C 1.375 -1.394531 1.429688 -1.4375 1.484375 -1.46875 C 1.535156 -1.507812 1.59375 -1.539062 1.65625 -1.5625 C 1.851562 -1.65625 2.050781 -1.742188 2.25 -1.828125 C 2.445312 -1.921875 2.648438 -2.007812 2.859375 -2.09375 C 3.347656 -2.300781 3.8125 -2.429688 4.25 -2.484375 C 4.320312 -2.503906 4.390625 -2.515625 4.453125 -2.515625 C 4.765625 -2.515625 5.015625 -2.410156 5.203125 -2.203125 C 5.410156 -1.972656 5.460938 -1.6875 5.359375 -1.34375 C 5.316406 -1.132812 5.253906 -0.929688 5.171875 -0.734375 C 5.097656 -0.546875 5.023438 -0.351562 4.953125 -0.15625 C 4.898438 -0.0507812 4.851562 0.0507812 4.8125 0.15625 C 4.769531 0.269531 4.722656 0.378906 4.671875 0.484375 L 4.65625 0.5625 C 4.613281 0.625 4.585938 0.695312 4.578125 0.78125 C 4.566406 0.863281 4.597656 0.941406 4.671875 1.015625 C 4.765625 1.109375 4.875 1.15625 5 1.15625 C 5.050781 1.15625 5.097656 1.148438 5.140625 1.140625 C 5.191406 1.128906 5.242188 1.117188 5.296875 1.109375 C 5.859375 0.941406 6.351562 0.691406 6.78125 0.359375 C 7.207031 0.0234375 7.59375 -0.3125 7.9375 -0.65625 C 8.207031 -0.9375 8.503906 -1.25 8.828125 -1.59375 C 9.148438 -1.9375 9.421875 -2.328125 9.640625 -2.765625 L 9.671875 -2.796875 C 9.703125 -2.859375 9.738281 -2.921875 9.78125 -2.984375 C 9.820312 -3.054688 9.875 -3.09375 9.9375 -3.09375 C 9.957031 -3.09375 9.984375 -3.082031 10.015625 -3.0625 Z M 10.015625 -3.0625 "/></g></g></g><g fill="#000000" fill-opacity="1"><g transform="translate(69.102952, 17.5719)"><g/></g></g><g fill="#000000" fill-opacity="1"><g transform="translate(74.561081, 17.5719)"><g><path d="M 18.5625 -16.390625 C 18.34375 -16.359375 18.148438 -16.40625 17.984375 -16.53125 C 17.828125 -16.664062 17.71875 -16.835938 17.65625 -17.046875 C 17.570312 -17.304688 17.59375 -17.507812 17.71875 -17.65625 C 17.851562 -17.8125 18.019531 -17.898438 18.21875 -17.921875 C 18.425781 -17.941406 18.617188 -17.894531 18.796875 -17.78125 C 18.984375 -17.664062 19.113281 -17.5 19.1875 -17.28125 C 19.28125 -17.019531 19.257812 -16.804688 19.125 -16.640625 C 18.988281 -16.484375 18.800781 -16.398438 18.5625 -16.390625 Z M 16.53125 -16.625 C 16.351562 -16.625 16.191406 -16.6875 16.046875 -16.8125 C 15.898438 -16.9375 15.804688 -17.09375 15.765625 -17.28125 C 15.734375 -17.53125 15.789062 -17.71875 15.9375 -17.84375 C 16.082031 -17.976562 16.273438 -18.050781 16.515625 -18.0625 C 16.671875 -18.070312 16.800781 -18.019531 16.90625 -17.90625 C 17.019531 -17.800781 17.109375 -17.671875 17.171875 -17.515625 C 17.179688 -17.285156 17.140625 -17.082031 17.046875 -16.90625 C 16.960938 -16.726562 16.789062 -16.632812 16.53125 -16.625 Z M 23.984375 -2.953125 C 24.035156 -2.890625 24.039062 -2.835938 24 -2.796875 C 23.96875 -2.753906 23.929688 -2.71875 23.890625 -2.6875 L 23.859375 -2.640625 C 22.054688 -0.972656 19.988281 0.03125 17.65625 0.375 C 17.414062 0.40625 17.234375 0.476562 17.109375 0.59375 C 16.992188 0.71875 16.894531 0.859375 16.8125 1.015625 C 15.8125 2.710938 14.742188 4.101562 13.609375 5.1875 C 13.234375 5.53125 12.828125 5.835938 12.390625 6.109375 C 12.015625 6.328125 11.660156 6.4375 11.328125 6.4375 C 11.035156 6.4375 10.738281 6.347656 10.4375 6.171875 C 10.0625 5.953125 9.800781 5.664062 9.65625 5.3125 C 9.507812 4.96875 9.398438 4.628906 9.328125 4.296875 C 9.160156 3.503906 9.09375 2.738281 9.125 2 C 9.164062 1.257812 9.238281 0.546875 9.34375 -0.140625 C 9.375 -0.285156 9.398438 -0.429688 9.421875 -0.578125 C 9.441406 -0.722656 9.46875 -0.867188 9.5 -1.015625 C 9.59375 -1.535156 9.664062 -2.070312 9.71875 -2.625 C 9.769531 -3.175781 9.71875 -3.785156 9.5625 -4.453125 C 9.320312 -5.503906 9.296875 -6.460938 9.484375 -7.328125 C 9.671875 -8.191406 9.984375 -8.976562 10.421875 -9.6875 C 10.859375 -10.394531 11.335938 -11.046875 11.859375 -11.640625 C 13.097656 -13.078125 14.476562 -13.96875 16 -14.3125 C 16.332031 -14.382812 16.65625 -14.421875 16.96875 -14.421875 C 17.945312 -14.421875 18.789062 -14.09375 19.5 -13.4375 C 20.257812 -12.707031 20.660156 -11.753906 20.703125 -10.578125 C 20.734375 -9.578125 20.65625 -8.628906 20.46875 -7.734375 C 20.28125 -6.835938 20.035156 -5.984375 19.734375 -5.171875 C 19.429688 -4.359375 19.125 -3.570312 18.8125 -2.8125 C 18.675781 -2.519531 18.535156 -2.222656 18.390625 -1.921875 C 18.253906 -1.628906 18.109375 -1.332031 17.953125 -1.03125 C 17.878906 -0.882812 17.804688 -0.734375 17.734375 -0.578125 C 17.660156 -0.429688 17.585938 -0.28125 17.515625 -0.125 L 17.453125 0 L 17.609375 -0.015625 C 18.710938 -0.148438 19.710938 -0.453125 20.609375 -0.921875 C 21.515625 -1.390625 22.394531 -1.90625 23.25 -2.46875 C 23.257812 -2.476562 23.296875 -2.507812 23.359375 -2.5625 C 23.429688 -2.625 23.53125 -2.703125 23.65625 -2.796875 C 23.789062 -2.898438 23.898438 -2.953125 23.984375 -2.953125 Z M 16.421875 0.734375 L 16.5 0.625 L 16.34375 0.625 C 15.28125 0.550781 14.300781 0.367188 13.40625 0.078125 C 12.507812 -0.203125 11.65625 -0.75 10.84375 -1.5625 L 10.75 -1.640625 L 10.734375 -1.546875 C 10.441406 -0.515625 10.234375 0.472656 10.109375 1.421875 C 9.992188 2.367188 10.019531 3.34375 10.1875 4.34375 C 10.28125 4.96875 10.460938 5.390625 10.734375 5.609375 C 10.878906 5.734375 11.054688 5.796875 11.265625 5.796875 C 11.503906 5.796875 11.789062 5.703125 12.125 5.515625 C 13.070312 4.960938 13.875 4.269531 14.53125 3.4375 C 15.1875 2.613281 15.816406 1.710938 16.421875 0.734375 Z M 16.015625 0.1875 C 16.648438 0.1875 17.066406 -0.0820312 17.265625 -0.625 C 17.335938 -0.800781 17.414062 -0.976562 17.5 -1.15625 C 17.59375 -1.332031 17.679688 -1.5 17.765625 -1.65625 C 17.847656 -1.800781 17.929688 -1.945312 18.015625 -2.09375 C 18.097656 -2.238281 18.164062 -2.382812 18.21875 -2.53125 L 18.34375 -2.84375 C 18.675781 -3.613281 18.992188 -4.398438 19.296875 -5.203125 C 19.609375 -6.003906 19.851562 -6.835938 20.03125 -7.703125 C 20.207031 -8.566406 20.269531 -9.484375 20.21875 -10.453125 C 20.164062 -11.597656 19.820312 -12.472656 19.1875 -13.078125 C 18.695312 -13.523438 18.113281 -13.75 17.4375 -13.75 C 17.019531 -13.75 16.578125 -13.660156 16.109375 -13.484375 C 12.828125 -12.191406 10.832031 -9.722656 10.125 -6.078125 C 10.050781 -5.742188 10.03125 -5.398438 10.0625 -5.046875 C 10.09375 -4.691406 10.132812 -4.335938 10.1875 -3.984375 L 10.203125 -3.859375 L 10.296875 -3.90625 C 10.441406 -3.976562 10.539062 -4.066406 10.59375 -4.171875 C 10.644531 -4.285156 10.691406 -4.398438 10.734375 -4.515625 C 10.753906 -4.546875 10.769531 -4.578125 10.78125 -4.609375 C 10.789062 -4.648438 10.804688 -4.679688 10.828125 -4.703125 C 11.273438 -5.585938 11.765625 -6.476562 12.296875 -7.375 C 12.835938 -8.28125 13.472656 -9.113281 14.203125 -9.875 C 14.242188 -9.914062 14.285156 -9.972656 14.328125 -10.046875 C 14.398438 -10.128906 14.472656 -10.207031 14.546875 -10.28125 C 14.628906 -10.363281 14.722656 -10.40625 14.828125 -10.40625 C 14.898438 -10.40625 14.984375 -10.367188 15.078125 -10.296875 C 15.140625 -10.234375 15.175781 -10.171875 15.1875 -10.109375 C 15.207031 -10.035156 15.191406 -9.953125 15.140625 -9.859375 C 15.085938 -9.773438 15.023438 -9.691406 14.953125 -9.609375 C 14.890625 -9.515625 14.847656 -9.453125 14.828125 -9.421875 L 14.5625 -9.015625 C 13.957031 -8.054688 13.359375 -7.078125 12.765625 -6.078125 C 12.179688 -5.085938 11.660156 -4.054688 11.203125 -2.984375 C 11.054688 -2.617188 11.050781 -2.304688 11.1875 -2.046875 C 11.320312 -1.785156 11.535156 -1.535156 11.828125 -1.296875 C 12.453125 -0.773438 13.09375 -0.421875 13.75 -0.234375 C 14.40625 -0.046875 15.046875 0.078125 15.671875 0.140625 C 15.796875 0.171875 15.910156 0.1875 16.015625 0.1875 Z M 16.015625 0.1875 "/></g></g></g><g fill="#000000" fill-opacity="1"><g transform="translate(98.1402, 17.5719)"><g><path d="M 8.640625 -3.421875 C 8.640625 -3.429688 8.644531 -3.429688 8.65625 -3.421875 C 8.664062 -3.421875 8.660156 -3.398438 8.640625 -3.359375 C 8.546875 -3.203125 8.429688 -3.0625 8.296875 -2.9375 C 8.160156 -2.8125 8.015625 -2.691406 7.859375 -2.578125 L 7.65625 -2.421875 C 7.269531 -2.117188 6.867188 -1.765625 6.453125 -1.359375 C 6.140625 -1.066406 5.832031 -0.765625 5.53125 -0.453125 C 5.226562 -0.148438 4.929688 0.148438 4.640625 0.453125 L 4.1875 0.921875 C 4.0625 1.046875 3.972656 1.179688 3.921875 1.328125 C 3.878906 1.472656 3.835938 1.632812 3.796875 1.8125 C 3.253906 5.175781 1.976562 7.96875 -0.03125 10.1875 C -0.257812 10.4375 -0.507812 10.617188 -0.78125 10.734375 C -0.925781 10.796875 -1.0625 10.828125 -1.1875 10.828125 C -1.363281 10.828125 -1.507812 10.769531 -1.625 10.65625 C -1.789062 10.5 -1.882812 10.257812 -1.90625 9.9375 C -1.914062 9.539062 -1.867188 9.175781 -1.765625 8.84375 C -1.671875 8.507812 -1.53125 8.171875 -1.34375 7.828125 C -0.90625 6.953125 -0.394531 6.132812 0.1875 5.375 C 0.769531 4.613281 1.363281 3.878906 1.96875 3.171875 C 2.125 2.972656 2.28125 2.773438 2.4375 2.578125 C 2.601562 2.378906 2.765625 2.179688 2.921875 1.984375 C 2.972656 1.929688 3.03125 1.863281 3.09375 1.78125 C 3.21875 1.644531 3.332031 1.492188 3.4375 1.328125 C 3.539062 1.171875 3.585938 0.972656 3.578125 0.734375 C 3.566406 0.378906 3.472656 0.109375 3.296875 -0.078125 C 3.140625 -0.203125 2.941406 -0.265625 2.703125 -0.265625 C 2.617188 -0.265625 2.523438 -0.253906 2.421875 -0.234375 C 2.304688 -0.210938 2.195312 -0.179688 2.09375 -0.140625 C 2 -0.109375 1.894531 -0.0664062 1.78125 -0.015625 C 1.71875 0.00390625 1.648438 0.0234375 1.578125 0.046875 C 1.503906 0.078125 1.429688 0.101562 1.359375 0.125 C 1.335938 0.132812 1.304688 0.148438 1.265625 0.171875 C 1.234375 0.191406 1.207031 0.207031 1.1875 0.21875 C 1.132812 0.238281 1.082031 0.257812 1.03125 0.28125 C 0.988281 0.3125 0.941406 0.328125 0.890625 0.328125 C 0.859375 0.328125 0.8125 0.3125 0.75 0.28125 C 0.695312 0.257812 0.640625 0.207031 0.578125 0.125 C 0.484375 -0.0195312 0.457031 -0.128906 0.5 -0.203125 C 0.539062 -0.285156 0.617188 -0.367188 0.734375 -0.453125 C 0.785156 -0.503906 0.828125 -0.539062 0.859375 -0.5625 C 0.953125 -0.65625 1.050781 -0.75 1.15625 -0.84375 C 1.269531 -0.9375 1.375 -1.03125 1.46875 -1.125 C 1.644531 -1.269531 1.8125 -1.414062 1.96875 -1.5625 C 2.125 -1.707031 2.273438 -1.851562 2.421875 -2 C 3.234375 -2.832031 3.800781 -3.664062 4.125 -4.5 C 4.175781 -4.601562 4.210938 -4.726562 4.234375 -4.875 C 4.265625 -5.03125 4.195312 -5.179688 4.03125 -5.328125 C 3.925781 -5.421875 3.804688 -5.46875 3.671875 -5.46875 C 3.597656 -5.46875 3.53125 -5.457031 3.46875 -5.4375 C 3.414062 -5.425781 3.359375 -5.410156 3.296875 -5.390625 L 3.203125 -5.34375 C 2.773438 -5.1875 2.40625 -4.96875 2.09375 -4.6875 C 1.78125 -4.414062 1.476562 -4.125 1.1875 -3.8125 L 0.953125 -3.578125 C 0.890625 -3.503906 0.828125 -3.4375 0.765625 -3.375 C 0.703125 -3.320312 0.632812 -3.265625 0.5625 -3.203125 L 0.515625 -3.171875 C 0.441406 -3.109375 0.382812 -3.078125 0.34375 -3.078125 C 0.289062 -3.078125 0.242188 -3.097656 0.203125 -3.140625 C 0.0859375 -3.234375 0.0664062 -3.347656 0.140625 -3.484375 C 0.847656 -4.878906 1.9375 -5.648438 3.40625 -5.796875 C 3.4375 -5.796875 3.472656 -5.796875 3.515625 -5.796875 C 3.765625 -5.796875 3.96875 -5.71875 4.125 -5.5625 C 4.320312 -5.375 4.410156 -5.101562 4.390625 -4.75 C 4.359375 -4.382812 4.273438 -4.050781 4.140625 -3.75 C 4.015625 -3.445312 3.878906 -3.164062 3.734375 -2.90625 C 3.242188 -2.09375 2.632812 -1.3125 1.90625 -0.5625 L 1.796875 -0.453125 L 1.984375 -0.46875 C 2.066406 -0.46875 2.144531 -0.46875 2.21875 -0.46875 C 2.664062 -0.46875 3.015625 -0.375 3.265625 -0.1875 C 3.523438 -0.0078125 3.707031 0.28125 3.8125 0.6875 L 3.921875 0.6875 C 3.941406 0.664062 4 0.609375 4.09375 0.515625 C 4.1875 0.421875 4.265625 0.351562 4.328125 0.3125 C 4.398438 0.25 4.441406 0.210938 4.453125 0.203125 C 4.546875 0.0976562 4.640625 0 4.734375 -0.09375 C 4.828125 -0.1875 4.921875 -0.289062 5.015625 -0.40625 L 5.171875 -0.546875 C 5.328125 -0.710938 5.484375 -0.878906 5.640625 -1.046875 C 5.796875 -1.222656 5.957031 -1.394531 6.125 -1.5625 C 6.695312 -2.144531 7.273438 -2.625 7.859375 -3 C 7.910156 -3.039062 7.957031 -3.078125 8 -3.109375 C 8.050781 -3.148438 8.097656 -3.1875 8.140625 -3.21875 L 8.234375 -3.296875 C 8.265625 -3.304688 8.320312 -3.328125 8.40625 -3.359375 C 8.5 -3.398438 8.578125 -3.421875 8.640625 -3.421875 Z M -0.890625 10.0625 C 0.015625 9.09375 0.804688 7.976562 1.484375 6.71875 C 2.171875 5.46875 2.757812 4.003906 3.25 2.328125 L 3.140625 2.25 C 2.367188 3.0625 1.609375 3.90625 0.859375 4.78125 C 0.109375 5.65625 -0.53125 6.632812 -1.0625 7.71875 C -1.332031 8.28125 -1.53125 8.910156 -1.65625 9.609375 C -1.707031 9.835938 -1.671875 10.007812 -1.546875 10.125 C -1.472656 10.207031 -1.378906 10.25 -1.265625 10.25 C -1.140625 10.25 -1.015625 10.1875 -0.890625 10.0625 Z M -0.890625 10.0625 "/></g></g></g><g fill="#000000" fill-opacity="1"><g transform="translate(105.92713, 17.5719)"><g><path d="M 0.296875 -1.125 C 0.160156 -0.644531 0.0664062 -0.128906 0.015625 0.421875 C 0.015625 0.484375 0.0195312 0.566406 0.03125 0.671875 C 0.0390625 0.785156 0.09375 0.867188 0.1875 0.921875 C 0.226562 0.972656 0.285156 1 0.359375 1 C 0.410156 1 0.460938 0.988281 0.515625 0.96875 C 0.742188 0.90625 0.953125 0.796875 1.140625 0.640625 C 1.328125 0.492188 1.5 0.347656 1.65625 0.203125 C 2.050781 -0.171875 2.34375 -0.640625 2.53125 -1.203125 C 2.550781 -1.273438 2.566406 -1.347656 2.578125 -1.421875 C 2.585938 -1.503906 2.550781 -1.585938 2.46875 -1.671875 C 2.382812 -1.785156 2.289062 -1.84375 2.1875 -1.84375 C 2.144531 -1.84375 2.101562 -1.832031 2.0625 -1.8125 C 2.03125 -1.800781 2 -1.789062 1.96875 -1.78125 C 1.914062 -1.757812 1.867188 -1.742188 1.828125 -1.734375 C 1.785156 -1.734375 1.738281 -1.734375 1.6875 -1.734375 C 1.625 -1.710938 1.578125 -1.703125 1.546875 -1.703125 C 1.347656 -1.703125 1.21875 -1.773438 1.15625 -1.921875 C 1.132812 -2.015625 1.132812 -2.082031 1.15625 -2.125 C 1.195312 -2.195312 1.300781 -2.238281 1.46875 -2.25 C 2.113281 -2.320312 2.726562 -2.410156 3.3125 -2.515625 C 3.90625 -2.628906 4.429688 -2.738281 4.890625 -2.84375 C 5.054688 -2.882812 5.226562 -2.921875 5.40625 -2.953125 C 5.582031 -2.992188 5.753906 -3.039062 5.921875 -3.09375 L 5.984375 -3.109375 C 6.066406 -3.128906 6.128906 -3.140625 6.171875 -3.140625 C 6.222656 -3.140625 6.273438 -3.097656 6.328125 -3.015625 C 6.347656 -2.972656 6.351562 -2.9375 6.34375 -2.90625 C 6.332031 -2.875 6.304688 -2.847656 6.265625 -2.828125 C 6.222656 -2.816406 6.175781 -2.804688 6.125 -2.796875 L 5.1875 -2.59375 C 4.894531 -2.519531 4.597656 -2.453125 4.296875 -2.390625 C 3.992188 -2.328125 3.691406 -2.257812 3.390625 -2.1875 C 3.179688 -2.144531 3.023438 -2.070312 2.921875 -1.96875 C 2.816406 -1.863281 2.765625 -1.675781 2.765625 -1.40625 C 2.765625 -0.84375 2.601562 -0.378906 2.28125 -0.015625 C 1.957031 0.347656 1.609375 0.6875 1.234375 1 L 1.109375 1.109375 C 0.984375 1.203125 0.859375 1.296875 0.734375 1.390625 C 0.609375 1.492188 0.460938 1.546875 0.296875 1.546875 C 0.117188 1.546875 -0.0546875 1.476562 -0.234375 1.34375 C -0.515625 1.15625 -0.65625 0.9375 -0.65625 0.6875 C -0.65625 0.4375 -0.628906 0.195312 -0.578125 -0.03125 L -0.5625 -0.21875 C -0.0390625 -3.132812 1.003906 -5.757812 2.578125 -8.09375 L 2.984375 -8.6875 C 3.316406 -9.195312 3.664062 -9.707031 4.03125 -10.21875 C 4.394531 -10.726562 4.789062 -11.210938 5.21875 -11.671875 C 5.34375 -11.804688 5.484375 -11.9375 5.640625 -12.0625 C 5.796875 -12.195312 5.976562 -12.289062 6.1875 -12.34375 C 6.320312 -12.382812 6.445312 -12.40625 6.5625 -12.40625 C 6.851562 -12.40625 7.097656 -12.304688 7.296875 -12.109375 C 7.535156 -11.878906 7.65625 -11.570312 7.65625 -11.1875 C 7.65625 -10.46875 7.519531 -9.832031 7.25 -9.28125 C 6.988281 -8.726562 6.691406 -8.234375 6.359375 -7.796875 C 5.054688 -6.046875 3.410156 -4.585938 1.421875 -3.421875 C 1.390625 -3.398438 1.351562 -3.378906 1.3125 -3.359375 C 1.25 -3.328125 1.1875 -3.289062 1.125 -3.25 C 1.0625 -3.207031 1.015625 -3.148438 0.984375 -3.078125 C 0.941406 -2.941406 0.894531 -2.8125 0.84375 -2.6875 C 0.800781 -2.570312 0.753906 -2.445312 0.703125 -2.3125 C 0.628906 -2.113281 0.554688 -1.914062 0.484375 -1.71875 C 0.410156 -1.519531 0.347656 -1.320312 0.296875 -1.125 Z M 1.53125 -4.515625 C 1.488281 -4.429688 1.445312 -4.34375 1.40625 -4.25 C 1.375 -4.15625 1.335938 -4.066406 1.296875 -3.984375 L 1.375 -3.890625 C 2.988281 -4.753906 4.390625 -5.90625 5.578125 -7.34375 C 6.429688 -8.375 6.96875 -9.410156 7.1875 -10.453125 L 7.1875 -10.53125 C 7.226562 -10.738281 7.253906 -10.957031 7.265625 -11.1875 C 7.273438 -11.425781 7.15625 -11.625 6.90625 -11.78125 C 6.8125 -11.84375 6.71875 -11.875 6.625 -11.875 C 6.476562 -11.875 6.347656 -11.816406 6.234375 -11.703125 C 6.128906 -11.597656 6.035156 -11.492188 5.953125 -11.390625 L 5.875 -11.3125 C 4.570312 -9.707031 3.3125 -7.820312 2.09375 -5.65625 C 1.976562 -5.476562 1.875 -5.289062 1.78125 -5.09375 C 1.695312 -4.894531 1.613281 -4.703125 1.53125 -4.515625 Z M 1.53125 -4.515625 "/></g></g></g><g fill="#000000" fill-opacity="1"><g transform="translate(111.767326, 17.5719)"><g><path d="M 6.21875 -2.6875 C 6.300781 -2.738281 6.398438 -2.765625 6.515625 -2.765625 C 6.523438 -2.703125 6.5 -2.644531 6.4375 -2.59375 C 6.375 -2.539062 6.320312 -2.488281 6.28125 -2.4375 L 6.171875 -2.34375 C 5.734375 -2.019531 5.289062 -1.703125 4.84375 -1.390625 C 4.394531 -1.078125 3.910156 -0.820312 3.390625 -0.625 C 2.878906 -0.425781 2.304688 -0.328125 1.671875 -0.328125 L 1.59375 -0.328125 C 0.976562 -0.328125 0.5 -0.515625 0.15625 -0.890625 C -0.144531 -1.242188 -0.242188 -1.671875 -0.140625 -2.171875 C 0.191406 -3.828125 1.269531 -4.898438 3.09375 -5.390625 C 3.1875 -5.410156 3.285156 -5.421875 3.390625 -5.421875 C 3.671875 -5.421875 3.90625 -5.289062 4.09375 -5.03125 C 4.238281 -4.84375 4.28125 -4.675781 4.21875 -4.53125 C 4.164062 -4.394531 4.085938 -4.253906 3.984375 -4.109375 C 3.492188 -3.515625 2.691406 -3.132812 1.578125 -2.96875 C 1.179688 -2.90625 0.921875 -2.742188 0.796875 -2.484375 C 0.679688 -2.234375 0.59375 -1.960938 0.53125 -1.671875 L 0.515625 -1.546875 C 0.472656 -1.378906 0.5 -1.222656 0.59375 -1.078125 C 0.726562 -0.890625 0.941406 -0.753906 1.234375 -0.671875 C 1.453125 -0.609375 1.679688 -0.578125 1.921875 -0.578125 C 2.117188 -0.578125 2.304688 -0.59375 2.484375 -0.625 C 2.671875 -0.664062 2.867188 -0.71875 3.078125 -0.78125 C 3.710938 -0.96875 4.351562 -1.273438 5 -1.703125 C 5.28125 -1.890625 5.5625 -2.109375 5.84375 -2.359375 C 5.863281 -2.367188 5.882812 -2.382812 5.90625 -2.40625 C 5.9375 -2.4375 5.960938 -2.460938 5.984375 -2.484375 C 6.015625 -2.523438 6.046875 -2.5625 6.078125 -2.59375 C 6.117188 -2.625 6.164062 -2.65625 6.21875 -2.6875 Z M 1.796875 -3.625 L 1.671875 -3.46875 L 1.875 -3.53125 C 2.300781 -3.625 2.660156 -3.75 2.953125 -3.90625 C 3.253906 -4.0625 3.515625 -4.316406 3.734375 -4.671875 L 3.796875 -4.8125 L 3.640625 -4.765625 C 3.285156 -4.648438 2.957031 -4.507812 2.65625 -4.34375 C 2.351562 -4.1875 2.066406 -3.945312 1.796875 -3.625 Z M 1.796875 -3.625 "/></g></g></g><g fill="#000000" fill-opacity="1"><g transform="translate(117.971396, 17.5719)"><g><path d="M 9.640625 -3.0625 C 9.660156 -3.03125 9.648438 -2.976562 9.609375 -2.90625 C 9.566406 -2.84375 9.53125 -2.796875 9.5 -2.765625 C 9.375 -2.671875 9.234375 -2.582031 9.078125 -2.5 C 8.929688 -2.414062 8.78125 -2.34375 8.625 -2.28125 C 8.550781 -2.238281 8.476562 -2.195312 8.40625 -2.15625 C 8.332031 -2.113281 8.265625 -2.070312 8.203125 -2.03125 C 7.960938 -1.90625 7.722656 -1.773438 7.484375 -1.640625 C 7.242188 -1.503906 7.007812 -1.363281 6.78125 -1.21875 C 5.78125 -0.601562 4.898438 0.015625 4.140625 0.640625 C 3.878906 0.867188 3.675781 1.132812 3.53125 1.4375 L 3.09375 2.359375 C 2.707031 3.160156 2.3125 3.972656 1.90625 4.796875 C 1.507812 5.617188 1.070312 6.421875 0.59375 7.203125 C 0.40625 7.503906 0.175781 7.835938 -0.09375 8.203125 C -0.375 8.578125 -0.707031 8.921875 -1.09375 9.234375 C -1.175781 9.296875 -1.269531 9.359375 -1.375 9.421875 C -1.476562 9.492188 -1.597656 9.539062 -1.734375 9.5625 C -1.835938 9.601562 -1.925781 9.625 -2 9.625 C -2.1875 9.625 -2.34375 9.554688 -2.46875 9.421875 C -2.582031 9.328125 -2.644531 9.226562 -2.65625 9.125 C -2.664062 9.019531 -2.664062 8.898438 -2.65625 8.765625 C -2.613281 8.484375 -2.539062 8.222656 -2.4375 7.984375 C -2.34375 7.753906 -2.238281 7.53125 -2.125 7.3125 C -1.195312 5.539062 0.160156 3.828125 1.953125 2.171875 C 2.515625 1.628906 2.957031 1.019531 3.28125 0.34375 C 3.476562 -0.0820312 3.6875 -0.503906 3.90625 -0.921875 C 4.125 -1.347656 4.34375 -1.773438 4.5625 -2.203125 L 5.171875 -3.40625 L 5 -3.34375 C 4.601562 -3.1875 4.242188 -2.988281 3.921875 -2.75 C 3.597656 -2.519531 3.289062 -2.273438 3 -2.015625 C 2.875 -1.910156 2.75 -1.804688 2.625 -1.703125 C 2.5 -1.597656 2.367188 -1.5 2.234375 -1.40625 L 1.953125 -1.1875 C 1.703125 -0.988281 1.441406 -0.800781 1.171875 -0.625 C 0.910156 -0.445312 0.625 -0.304688 0.3125 -0.203125 C 0.175781 -0.160156 0.0546875 -0.140625 -0.046875 -0.140625 C -0.234375 -0.140625 -0.410156 -0.207031 -0.578125 -0.34375 C -0.859375 -0.550781 -0.984375 -0.835938 -0.953125 -1.203125 C -0.878906 -1.753906 -0.6875 -2.222656 -0.375 -2.609375 C -0.0703125 -3.003906 0.257812 -3.359375 0.625 -3.671875 C 0.675781 -3.734375 0.75 -3.765625 0.84375 -3.765625 C 0.925781 -3.765625 1.007812 -3.726562 1.09375 -3.65625 C 1.175781 -3.570312 1.210938 -3.492188 1.203125 -3.421875 C 1.203125 -3.359375 1.171875 -3.285156 1.109375 -3.203125 C 1.046875 -3.117188 0.988281 -3.03125 0.9375 -2.9375 C 0.882812 -2.851562 0.828125 -2.769531 0.765625 -2.6875 C 0.679688 -2.570312 0.59375 -2.457031 0.5 -2.34375 C 0.414062 -2.226562 0.335938 -2.109375 0.265625 -1.984375 C 0.242188 -1.941406 0.21875 -1.898438 0.1875 -1.859375 C 0.15625 -1.816406 0.125 -1.78125 0.09375 -1.75 C 0.0195312 -1.644531 -0.0507812 -1.535156 -0.125 -1.421875 C -0.195312 -1.316406 -0.242188 -1.203125 -0.265625 -1.078125 C -0.304688 -0.921875 -0.289062 -0.796875 -0.21875 -0.703125 C -0.132812 -0.617188 -0.0078125 -0.578125 0.15625 -0.578125 C 0.25 -0.578125 0.34375 -0.585938 0.4375 -0.609375 C 0.53125 -0.628906 0.609375 -0.648438 0.671875 -0.671875 C 0.816406 -0.734375 0.945312 -0.800781 1.0625 -0.875 C 1.1875 -0.957031 1.3125 -1.039062 1.4375 -1.125 C 1.71875 -1.332031 1.992188 -1.539062 2.265625 -1.75 C 2.546875 -1.96875 2.820312 -2.175781 3.09375 -2.375 C 3.3125 -2.550781 3.53125 -2.726562 3.75 -2.90625 C 3.976562 -3.082031 4.203125 -3.25 4.421875 -3.40625 C 4.453125 -3.425781 4.492188 -3.460938 4.546875 -3.515625 C 4.617188 -3.566406 4.691406 -3.617188 4.765625 -3.671875 C 4.847656 -3.734375 4.9375 -3.765625 5.03125 -3.765625 C 5.132812 -3.765625 5.242188 -3.71875 5.359375 -3.625 C 5.492188 -3.5 5.550781 -3.367188 5.53125 -3.234375 C 5.507812 -3.097656 5.46875 -2.96875 5.40625 -2.84375 C 5.363281 -2.769531 5.335938 -2.710938 5.328125 -2.671875 C 5.273438 -2.523438 5.222656 -2.378906 5.171875 -2.234375 C 5.128906 -2.097656 5.078125 -1.96875 5.015625 -1.84375 C 4.929688 -1.601562 4.847656 -1.363281 4.765625 -1.125 C 4.679688 -0.894531 4.601562 -0.65625 4.53125 -0.40625 L 4.640625 -0.34375 C 4.648438 -0.394531 4.695312 -0.441406 4.78125 -0.484375 C 4.875 -0.535156 4.957031 -0.570312 5.03125 -0.59375 C 5.125 -0.644531 5.179688 -0.675781 5.203125 -0.6875 L 5.8125 -1.078125 C 6.425781 -1.460938 7.046875 -1.816406 7.671875 -2.140625 C 8.003906 -2.316406 8.328125 -2.476562 8.640625 -2.625 C 8.671875 -2.644531 8.710938 -2.664062 8.765625 -2.6875 C 8.816406 -2.71875 8.859375 -2.742188 8.890625 -2.765625 C 9.015625 -2.816406 9.128906 -2.867188 9.234375 -2.921875 C 9.347656 -2.972656 9.460938 -3.019531 9.578125 -3.0625 C 9.609375 -3.0625 9.628906 -3.0625 9.640625 -3.0625 Z M -1.53125 8.859375 C -0.726562 8.035156 -0.0664062 7.109375 0.453125 6.078125 C 0.972656 5.046875 1.460938 4.007812 1.921875 2.96875 L 1.84375 2.859375 C 0.675781 3.835938 -0.335938 4.925781 -1.203125 6.125 C -1.421875 6.445312 -1.628906 6.78125 -1.828125 7.125 C -2.035156 7.46875 -2.195312 7.851562 -2.3125 8.28125 C -2.320312 8.3125 -2.332031 8.359375 -2.34375 8.421875 C -2.382812 8.523438 -2.410156 8.640625 -2.421875 8.765625 C -2.429688 8.890625 -2.367188 9.003906 -2.234375 9.109375 C -2.148438 9.171875 -2.066406 9.203125 -1.984375 9.203125 C -1.898438 9.203125 -1.828125 9.175781 -1.765625 9.125 C -1.703125 9.070312 -1.644531 9.015625 -1.59375 8.953125 C -1.5625 8.898438 -1.539062 8.867188 -1.53125 8.859375 Z M -1.53125 8.859375 "/></g></g></g></svg>