<svg xmlns="http://www.w3.org/2000/svg" xmlns:xlink="http://www.w3.org/1999/xlink" width="1920" zoomAndPan="magnify" viewBox="0 0 1440 449.999984" height="600" preserveAspectRatio="xMidYMid meet" version="1.0"><defs><g/></defs><g fill="#ffffff" fill-opacity="1"><g transform="translate(138.553227, 361.371221)"><g><path d="M 100.953125 -297.953125 C 96.460938 -297.953125 92.304688 -299.070312 88.484375 -301.3125 C 84.671875 -303.550781 81.640625 -306.582031 79.390625 -310.40625 C 77.148438 -314.226562 76.03125 -318.378906 76.03125 -322.859375 C 76.03125 -327.347656 77.148438 -331.53125 79.390625 -335.40625 C 81.640625 -339.289062 84.671875 -342.382812 88.484375 -344.6875 C 92.304688 -346.988281 96.460938 -348.140625 100.953125 -348.140625 C 105.441406 -348.140625 109.59375 -346.988281 113.40625 -344.6875 C 117.226562 -342.382812 120.257812 -339.289062 122.5 -335.40625 C 124.75 -331.53125 125.875 -327.347656 125.875 -322.859375 C 125.875 -318.492188 124.722656 -314.398438 122.421875 -310.578125 C 120.117188 -306.765625 117.054688 -303.707031 113.234375 -301.40625 C 109.410156 -299.101562 105.316406 -297.953125 100.953125 -297.953125 Z M 187.359375 -297.953125 C 182.867188 -297.953125 178.710938 -299.070312 174.890625 -301.3125 C 171.078125 -303.550781 168.046875 -306.582031 165.796875 -310.40625 C 163.554688 -314.226562 162.4375 -318.378906 162.4375 -322.859375 C 162.4375 -327.347656 163.554688 -331.53125 165.796875 -335.40625 C 168.046875 -339.289062 171.078125 -342.382812 174.890625 -344.6875 C 178.710938 -346.988281 182.867188 -348.140625 187.359375 -348.140625 C 191.835938 -348.140625 196.015625 -346.988281 199.890625 -344.6875 C 203.773438 -342.382812 206.898438 -339.289062 209.265625 -335.40625 C 211.628906 -331.53125 212.8125 -327.347656 212.8125 -322.859375 C 212.8125 -318.492188 211.628906 -314.398438 209.265625 -310.578125 C 206.898438 -306.765625 203.773438 -303.707031 199.890625 -301.40625 C 196.015625 -299.101562 191.835938 -297.953125 187.359375 -297.953125 Z M 144.609375 4.90625 C 128.109375 4.90625 112.703125 2.269531 98.390625 -3 C 84.085938 -8.269531 71.785156 -15.578125 61.484375 -24.921875 C 51.535156 -34.015625 43.015625 -44.65625 35.921875 -56.84375 C 28.828125 -69.03125 23.644531 -81.914062 20.375 -95.5 C 16.976562 -108.957031 15.28125 -122.835938 15.28125 -137.140625 C 15.28125 -166.734375 22.128906 -193.472656 35.828125 -217.359375 C 43.109375 -229.972656 51.8125 -240.796875 61.9375 -249.828125 C 72.0625 -258.859375 84.035156 -266.046875 97.859375 -271.390625 C 112.410156 -276.722656 127.992188 -279.390625 144.609375 -279.390625 C 161.097656 -279.390625 176.523438 -276.71875 190.890625 -271.375 C 205.265625 -266.039062 217.546875 -258.707031 227.734375 -249.375 C 237.671875 -240.28125 246.15625 -229.640625 253.1875 -217.453125 C 260.226562 -205.265625 265.445312 -192.378906 268.84375 -178.796875 C 272.113281 -165.210938 273.75 -151.328125 273.75 -137.140625 C 273.75 -107.554688 266.894531 -80.820312 253.1875 -56.9375 C 245.914062 -44.320312 237.25 -33.523438 227.1875 -24.546875 C 217.125 -15.578125 205.175781 -8.488281 191.34375 -3.28125 C 177.039062 2.175781 161.460938 4.90625 144.609375 4.90625 Z M 144.609375 -20.546875 C 157.335938 -20.546875 169.066406 -23.789062 179.796875 -30.28125 C 190.523438 -36.769531 199.347656 -45.65625 206.265625 -56.9375 C 213.054688 -67.84375 218.238281 -80.175781 221.8125 -93.9375 C 225.394531 -107.707031 227.1875 -121.988281 227.1875 -136.78125 C 227.1875 -148.664062 226.0625 -160.242188 223.8125 -171.515625 C 221.570312 -182.796875 218.148438 -193.285156 213.546875 -202.984375 C 203.472656 -224.328125 190.191406 -239.125 173.703125 -247.375 C 164.847656 -251.738281 155.148438 -253.921875 144.609375 -253.921875 C 131.867188 -253.921875 120.164062 -250.675781 109.5 -244.1875 C 98.832031 -237.695312 89.976562 -228.816406 82.9375 -217.546875 C 76.144531 -206.503906 70.929688 -194.101562 67.296875 -180.34375 C 63.660156 -166.582031 61.84375 -152.304688 61.84375 -137.515625 C 61.84375 -112.410156 66.453125 -90.21875 75.671875 -70.9375 C 80.515625 -60.507812 86.179688 -51.625 92.671875 -44.28125 C 99.160156 -36.945312 106.769531 -31.222656 115.5 -27.109375 C 124.476562 -22.734375 134.179688 -20.546875 144.609375 -20.546875 Z M 144.609375 -20.546875 "/></g></g><g transform="translate(427.586009, 361.371221)"><g><path d="M 23.09375 0 L 19.828125 -28.734375 L 20.1875 -28.734375 L 136.0625 -174.796875 L 51.46875 -174.796875 L 51.46875 -124.78125 L 21.640625 -124.78125 L 21.640625 -195.171875 L 170.984375 -195.171875 L 176.25 -168.0625 L 58.9375 -20.375 L 153.875 -20.375 L 153.875 -76.03125 L 183.71875 -76.03125 L 183.71875 0 Z M 23.09375 0 "/></g></g><g transform="translate(626.398364, 361.371221)"><g><path d="M 119.5 4.90625 C 105.550781 4.90625 92.816406 1.421875 81.296875 -5.546875 C 69.785156 -12.515625 61.179688 -22.734375 55.484375 -36.203125 L 41.296875 0 L 24.5625 0 L 24.5625 -251.375 L -13.09375 -251.375 L -13.09375 -273.75 L 63.65625 -273.75 L 63.65625 -171.34375 C 69.84375 -180.4375 77.695312 -187.5625 87.21875 -192.71875 C 96.738281 -197.875 106.894531 -200.453125 117.6875 -200.453125 C 134.300781 -200.453125 148.972656 -196.113281 161.703125 -187.4375 C 174.429688 -178.769531 184.25 -166.644531 191.15625 -151.0625 C 198.070312 -135.476562 201.53125 -117.679688 201.53125 -97.671875 C 201.53125 -78.390625 198.101562 -60.988281 191.25 -45.46875 C 184.40625 -29.945312 174.738281 -17.703125 162.25 -8.734375 C 149.757812 0.359375 135.507812 4.90625 119.5 4.90625 Z M 112.046875 -17.09375 C 121.628906 -17.09375 130.207031 -20.851562 137.78125 -28.375 C 145.363281 -35.894531 150.972656 -45.71875 154.609375 -57.84375 C 158.128906 -69.726562 159.890625 -82.21875 159.890625 -95.3125 C 159.890625 -116.769531 156.367188 -135.804688 149.328125 -152.421875 C 145.566406 -160.910156 140.472656 -167.609375 134.046875 -172.515625 C 127.628906 -177.429688 120.296875 -179.890625 112.046875 -179.890625 C 104.285156 -179.890625 97.128906 -177.554688 90.578125 -172.890625 C 84.035156 -168.222656 78.882812 -162.007812 75.125 -154.25 C 71.363281 -146.726562 68.507812 -138.84375 66.5625 -130.59375 C 64.625 -122.351562 63.65625 -114.226562 63.65625 -106.21875 C 63.65625 -89.613281 65.59375 -74.609375 69.46875 -61.203125 C 73.351562 -47.804688 78.9375 -37.164062 86.21875 -29.28125 C 93.613281 -21.15625 102.222656 -17.09375 112.046875 -17.09375 Z M 112.046875 -17.09375 "/></g></g><g transform="translate(841.945151, 361.371221)"><g><path d="M 108.40625 4.90625 C 93.851562 4.90625 80.453125 2.148438 68.203125 -3.359375 C 55.960938 -8.878906 45.835938 -16.488281 37.828125 -26.1875 C 29.953125 -35.644531 23.921875 -46.316406 19.734375 -58.203125 C 15.546875 -70.085938 13.453125 -82.394531 13.453125 -95.125 C 13.453125 -106.164062 14.753906 -116.835938 17.359375 -127.140625 C 19.972656 -137.453125 23.828125 -146.972656 28.921875 -155.703125 C 40.078125 -174.734375 54.992188 -187.769531 73.671875 -194.8125 C 83.492188 -198.570312 94.34375 -200.453125 106.21875 -200.453125 C 118.59375 -200.453125 130.113281 -198.265625 140.78125 -193.890625 C 151.457031 -189.523438 160.796875 -183.222656 168.796875 -174.984375 C 176.921875 -166.492188 183.316406 -155.820312 187.984375 -142.96875 C 192.648438 -130.113281 195.109375 -115.863281 195.359375 -100.21875 L 55.109375 -100.21875 L 55.109375 -98.765625 C 55.109375 -77.671875 59.597656 -59.90625 68.578125 -45.46875 C 73.054688 -38.195312 79.054688 -32.53125 86.578125 -28.46875 C 94.097656 -24.40625 102.648438 -22.375 112.234375 -22.375 C 120.710938 -22.375 128.921875 -24.160156 136.859375 -27.734375 C 144.804688 -31.316406 151.722656 -36.53125 157.609375 -43.375 C 163.492188 -50.226562 167.707031 -58.265625 170.25 -67.484375 L 191.53125 -60.75 C 188.375 -47.414062 182.976562 -35.804688 175.34375 -25.921875 C 167.707031 -16.035156 158.1875 -8.425781 146.78125 -3.09375 C 135.382812 2.238281 122.59375 4.90625 108.40625 4.90625 Z M 155.34375 -119.859375 C 155.09375 -131.378906 152.816406 -141.597656 148.515625 -150.515625 C 144.210938 -159.429688 138.453125 -166.375 131.234375 -171.34375 C 124.015625 -176.3125 116.039062 -178.796875 107.3125 -178.796875 C 98.457031 -178.796875 90.332031 -176.3125 82.9375 -171.34375 C 75.539062 -166.375 69.507812 -159.429688 64.84375 -150.515625 C 60.175781 -141.597656 57.359375 -131.378906 56.390625 -119.859375 Z M 155.34375 -119.859375 "/></g></g><g transform="translate(1051.125579, 361.371221)"><g><path d="M 65.484375 84.9375 C 54.441406 84.9375 44.644531 83.207031 36.09375 79.75 C 27.550781 76.300781 20.882812 71.515625 16.09375 65.390625 C 11.300781 59.265625 8.90625 52.257812 8.90625 44.375 C 8.90625 35.769531 11.722656 28.769531 17.359375 23.375 C 23.003906 17.976562 30.617188 15.28125 40.203125 15.28125 C 47.472656 15.28125 53.078125 17.734375 57.015625 22.640625 C 60.960938 27.554688 62.9375 33.894531 62.9375 41.65625 C 62.9375 45.894531 61.539062 49.769531 58.75 53.28125 C 55.957031 56.800781 52.257812 59.65625 47.65625 61.84375 C 52.625 64.507812 56.625 65.84375 59.65625 65.84375 C 70.570312 65.84375 79.664062 60.960938 86.9375 51.203125 C 94.21875 41.441406 99.738281 25.769531 103.5 4.1875 L 31.28125 -174.796875 L -4.90625 -174.796875 L -4.90625 -195.171875 L 107.3125 -195.171875 L 107.3125 -174.796875 L 74.21875 -174.796875 L 126.953125 -32.015625 L 172.0625 -174.796875 L 141.875 -174.796875 L 141.875 -195.171875 L 235.375 -195.171875 L 235.375 -174.796875 L 204.078125 -174.796875 L 141.515625 0.734375 C 134.359375 21.460938 127.019531 37.953125 119.5 50.203125 C 111.976562 62.453125 103.851562 71.300781 95.125 76.75 C 86.394531 82.207031 76.515625 84.9375 65.484375 84.9375 Z M 65.484375 84.9375 "/></g></g></g></svg>